<svg
  xmlns="http://www.w3.org/2000/svg"
  width="13.536vw" height="7.567vh"
  viewBox="0 0 209 41"
  fill="none">
  <path d="
  M 3.2498 40
  C 1.58314 40 0.749802 39.1667 0.749802 37.5
  V 15.15
  C 0.749802 13.4833 1.58314 12.65 3.2498 12.65
  C 4.91647 12.65 5.7498 13.4833 5.7498 15.15
  V 16.1C6.7498 14.9333 7.96647 14.0167 9.3998 13.35
  C 10.8665 12.6833 12.4498 12.35 14.1498 12.35
  C 16.1498 12.35 17.6331 12.6833 18.5998 13.35
  C 19.5998 13.9833 19.9831 14.75 19.7498 15.65
  C 19.5831 16.35 19.2498 16.8167 18.7498 17.05
  C 18.2498 17.25 17.6665 17.2833 16.9998 17.15
  C 14.8665 16.7167 12.9498 16.6833 11.2498 17.05
  C 9.5498 17.4167 8.1998 18.1 7.1998 19.1
  C 6.23314 20.1 5.7498 21.3667 5.7498 22.9
  V 37.5
  C 5.7498 39.1667 4.91647 40 3.2498 40Z
  M 35.9143 40.2
  C 33.1476 40.2 30.6809 39.6167 28.5143 38.45
  C 26.3809 37.25 24.6976 35.6167 23.4643 33.55
  C 22.2643 31.45 21.6643 29.05 21.6643 26.35
  C 21.6643 23.6167 22.2309 21.2167 23.3643 19.15
  C 24.5309 17.05 26.1309 15.4167 28.1643 14.25
  C 30.1976 13.05 32.5309 12.45 35.1643 12.45
  C 37.7643 12.45 39.9976 13.0333 41.8643 14.2
  C 43.7309 15.3333 45.1476 16.9167 46.1143 18.95
  C 47.1143 20.95 47.6143 23.2667 47.6143 25.9
  C 47.6143 26.5333 47.3976 27.0667 46.9643 27.5
  C 46.5309 27.9 45.9809 28.1 45.3143 28.1
  H 26.3143
  C 26.6809 30.4 27.7309 32.2833 29.4643 33.75
  C 31.2309 35.1833 33.3809 35.9 35.9143 35.9
  C 36.9476 35.9 37.9976 35.7167 39.0643 35.35
  C 40.1643 34.95 41.0476 34.5 41.7143 34
  C 42.2143 33.6333 42.7476 33.45 43.3143 33.45
  C 43.9143 33.4167 44.4309 33.5833 44.8643 33.95
  C 45.4309 34.45 45.7309 35 45.7643 35.6
  C 45.7976 36.2 45.5309 36.7167 44.9643 37.15
  C 43.8309 38.05 42.4143 38.7833 40.7143 39.35
  C 39.0476 39.9167 37.4476 40.2 35.9143 40.2Z
  M 35.1643 16.75
  C 32.6976 16.75 30.7143 17.4333 29.2143 18.8
  C 27.7143 20.1667 26.7643 21.9333 26.3643 24.1
  H 43.0143
  C 42.7143 21.9667 41.8976 20.2167 40.5643 18.85
  C 39.2309 17.45 37.4309 16.75 35.1643 16.75Z"
  fill="#4f69ca"/>
  <path d="
  M 72.1189 40.5
  C 69.4189 40.5 66.8856 40 64.5189 39
  C 62.1856 37.9667 60.1356 36.55 58.3689 34.75
  C 56.6356 32.9167 55.2689 30.7833 54.2689 28.35
  C 53.3023 25.9167 52.8189 23.2833 52.8189 20.45
  C 52.8189 17.65 53.3023 15.05 54.2689 12.65
  C 55.2689 10.2167 56.6356 8.1 58.3689 6.3
  C 60.1356 4.46667 62.1856 3.03333 64.5189 2
  C 66.8523 0.966666 69.3856 0.45 72.1189 0.45
  C 74.6856 0.45 76.8856 0.783333 78.7189 1.45
  C 80.5856 2.11666 82.4523 3.21666 84.3189 4.75
  C 84.7189 5.08333 84.9856 5.4 85.1189 5.7
  C 85.2523 6 85.3189 6.36666 85.3189 6.8
  C 85.3189 7.43333 85.0856 7.96666 84.6189 8.4
  C 84.1856 8.8 83.6523 9.03333 83.0189 9.1
  C 82.3856 9.13333 81.7689 8.91666 81.1689 8.45
  C 79.9356 7.38333 78.6523 6.56666 77.3189 6
  C 76.0189 5.43333 74.2856 5.15 72.1189 5.15
  C 70.1523 5.15 68.3023 5.55 66.5689 6.35
  C 64.8356 7.15 63.3023 8.25 61.9689 9.65
  C 60.6689 11.05 59.6523 12.6833 58.9189 14.55
  C 58.1856 16.3833 57.8189 18.35 57.8189 20.45
  C 57.8189 22.5833 58.1856 24.5833 58.9189 26.45
  C 59.6523 28.2833 60.6689 29.9 61.9689 31.3
  C 63.3023 32.7 64.8356 33.8 66.5689 34.6
  C 68.3023 35.3667 70.1523 35.75 72.1189 35.75
  C 73.8189 35.75 75.4189 35.4667 76.9189 34.9
  C 78.4523 34.3 79.9189 33.4833 81.3189 32.45
  C 81.9189 32.0167 82.5023 31.8333 83.0689 31.9
  C 83.6689 31.9333 84.1689 32.1667 84.5689 32.6
  C 84.9689 33 85.1689 33.5667 85.1689 34.3
  C 85.1689 35 84.9023 35.6167 84.3689 36.15
  C 80.7689 39.05 76.6856 40.5 72.1189 40.5Z
  M 95.5361 40.05
  C 94.8028 40.05 94.1861 39.8167 93.6861 39.35
  C 93.2195 38.85 92.9861 38.2333 92.9861 37.5
  V 15.2
  C 92.9861 14.4333 93.2195 13.8167 93.6861 13.35
  C 94.1861 12.8833 94.8028 12.65 95.5361 12.65
  C 96.3028 12.65 96.9195 12.8833 97.3861 13.35
  C 97.8528 13.8167 98.0861 14.4333 98.0861 15.2
  V 15.75
  C 99.1195 14.7167 100.369 13.9 101.836 13.3
  C 103.303 12.7 104.886 12.4 106.586 12.4
  C 108.886 12.4 110.936 12.9 112.736 13.9
  C 114.569 14.8667 116.003 16.3 117.036 18.2
  C 118.103 20.1 118.636 22.4333 118.636 25.2
  V 37.5
  C 118.636 38.2333 118.386 38.85 117.886 39.35
  C 117.419 39.8167 116.819 40.05 116.086 40.05
  C 115.353 40.05 114.736 39.8167 114.236 39.35
  C 113.769 38.85 113.536 38.2333 113.536 37.5
  V 25.2
  C 113.536 22.3667 112.769 20.3 111.236 19
  C 109.736 17.6667 107.853 17 105.586 17
  C 104.186 17 102.919 17.2833 101.786 17.85
  C 100.653 18.4167 99.7528 19.1833 99.0861 20.15
  C 98.4195 21.0833 98.0861 22.1667 98.0861 23.4
  V 37.5
  C 98.0861 38.2333 97.8528 38.85 97.3861 39.35
  C 96.9195 39.8167 96.3028 40.05 95.5361 40.05Z
  M 95.5361 30.05
  C 94.8028 30.05 94.1861 29.8167 93.6861 29.35
  C 93.2195 28.85 92.9861 28.2333 92.9861 27.5
  V 3.5
  C 92.9861 2.73333 93.2195 2.11667 93.6861 1.65
  C 94.1861 1.18333 94.8028 0.949999 95.5361 0.949999
  C 96.3028 0.949999 96.9195 1.18333 97.3861 1.65
  C 97.8528 2.11667 98.0861 2.73333 98.0861 3.5
  V 27.5
  C 98.0861 28.2333 97.8528 28.85 97.3861 29.35
  C 96.9195 29.8167 96.3028 30.05 95.5361 30.05Z
  M 139.967 40.2
  C 137.2 40.2 134.734 39.6167 132.567 38.45
  C 130.434 37.25 128.75 35.6167 127.517 33.55
  C 126.317 31.45 125.717 29.05 125.717 26.35
  C 125.717 23.6167 126.284 21.2167 127.417 19.15
  C 128.584 17.05 130.184 15.4167 132.217 14.25
  C 134.25 13.05 136.584 12.45 139.217 12.45
  C 141.817 12.45 144.05 13.0333 145.917 14.2
  C 147.784 15.3333 149.2 16.9167 150.167 18.95
  C 151.167 20.95 151.667 23.2667 151.667 25.9
  C 151.667 26.5333 151.45 27.0667 151.017 27.5
  C 150.584 27.9 150.034 28.1 149.367 28.1H130.367
  C 130.734 30.4 131.784 32.2833 133.517 33.75
  C 135.284 35.1833 137.434 35.9 139.967 35.9
  C 141 35.9 142.05 35.7167 143.117 35.35
  C 144.217 34.95 145.1 34.5 145.767 34
  C 146.267 33.6333 146.8 33.45 147.367 33.45
  C 147.967 33.4167 148.484 33.5833 148.917 33.95
  C 149.484 34.45 149.784 35 149.817 35.6
  C 149.85 36.2 149.584 36.7167 149.017 37.15
  C 147.884 38.05 146.467 38.7833 144.767 39.35
  C 143.1 39.9167 141.5 40.2 139.967 40.2Z
  M 139.217 16.75
  C 136.75 16.75 134.767 17.4333 133.267 18.8
  C 131.767 20.1667 130.817 21.9333 130.417 24.1
  H 147.067
  C 146.767 21.9667 145.95 20.2167 144.617 18.85
  C 143.284 17.45 141.484 16.75 139.217 16.75Z
  M 169.595 40.2
  C 166.928 40.2 164.545 39.6 162.445 38.4
  C 160.378 37.1667 158.745 35.5167 157.545 33.45
  C 156.378 31.35 155.795 28.9833 155.795 26.35
  C 155.795 23.65 156.378 21.25 157.545 19.15
  C 158.712 17.05 160.312 15.4167 162.345 14.25
  C 164.378 13.05 166.712 12.45 169.345 12.45
  C 173.278 12.45 176.545 13.95 179.145 16.95
  C 179.612 17.4833 179.778 18.0333 179.645 18.6
  C 179.512 19.1667 179.145 19.6667 178.545 20.1
  C 178.078 20.4333 177.562 20.55 176.995 20.45
  C 176.428 20.3167 175.912 20.0167 175.445 19.55
  C 173.812 17.8167 171.778 16.95 169.345 16.95
  C 166.778 16.95 164.695 17.8167 163.095 19.55
  C 161.495 21.25 160.695 23.5167 160.695 26.35
  C 160.695 28.15 161.062 29.75 161.795 31.15
  C 162.562 32.55 163.612 33.6667 164.945 34.5
  C 166.278 35.3 167.828 35.7 169.595 35.7
  C 171.862 35.7 173.695 35.1167 175.095 33.95
  C 175.628 33.5167 176.178 33.2833 176.745 33.25
  C 177.312 33.1833 177.812 33.3333 178.245 33.7
  C 178.812 34.1667 179.128 34.7 179.195 35.3
  C 179.262 35.8667 179.062 36.3833 178.595 36.85
  C 176.195 39.0833 173.195 40.2 169.595 40.2Z
  M 189.674 40
  C 188.941 40 188.341 39.7833 187.874 39.35
  C 187.441 38.8833 187.224 38.2833 187.224 37.55
  V 3.4
  C 187.224 2.66667 187.441 2.08333 187.874 1.65
  C 188.341 1.18333 188.941 0.949999 189.674 0.949999
  C 190.408 0.949999 190.991 1.18333 191.424 1.65
  C 191.891 2.08333 192.124 2.66667 192.124 3.4
  V 23.75L204.274 12.9
  C 204.774 12.4333 205.324 12.2167 205.924 12.25
  C 206.558 12.2833 207.091 12.55 207.524 13.05
  C 207.991 13.55 208.208 14.1 208.174 14.7
  C 208.141 15.3 207.874 15.8333 207.374 16.3
  L 198.174 24.5
  L 207.874 36.4
  C 208.308 36.9333 208.491 37.5167 208.424 38.15
  C 208.391 38.75 208.091 39.2833 207.524 39.75
  C 206.991 40.1833 206.391 40.3667 205.724 40.3
  C 205.091 40.2667 204.558 39.9833 204.124 39.45
  L 194.624 27.7L192.124 29.9V37.55
  C 192.124 38.2833 191.891 38.8833 191.424 39.35
  C 190.991 39.7833 190.408 40 189.674 40Z"
  fill="#33c7ba"/>
</svg>
