<?xml version="1.0" encoding="utf-8"?>
<!-- Generator: Adobe Illustrator 22.1.0, SVG Export Plug-In . SVG Version: 6.00 Build 0)  -->
<svg version="1.1" id="rocket" xmlns="http://www.w3.org/2000/svg" xmlns:xlink="http://www.w3.org/1999/xlink" x="0px" y="0px"
	 viewBox="0 0 157.3 156.7" style="enable-background:new 0 0 157.3 156.7;" xml:space="preserve">
<style type="text/css">
	.st0{fill:#F9F9F9;}
	.st1{fill:url(#SVGID_1_);}
	.st2{fill:#FFFFFF;}
	.st3{fill:url(#SVGID_2_);}
	.st4{fill:url(#SVGID_3_);}
	.st5{fill:url(#SVGID_4_);}
	.st6{fill:url(#SVGID_5_);}
	.st7{fill:url(#SVGID_6_);}
	.st8{fill:url(#SVGID_7_);}
</style>
<path class="st0" d="M23.8,116.3c0,0,23.8,19,122-28.9l-24.2-58.7c0,0-87.9,31.6-105.7,68.6L23.8,116.3z"/>
<polygon class="st0" points="140.6,75 146.9,72.4 147.8,74.5 152.8,72.5 155,77.6 157.3,76.7 137.4,28.3 134.6,29.4 136.9,35.1 
	132.9,36.8 133.9,39.3 127,42.1 "/>
<linearGradient id="SVGID_1_" gradientUnits="userSpaceOnUse" x1="1233.7903" y1="-1156.9835" x2="1358.6102" y2="-1156.9835" gradientTransform="matrix(-0.1277 -0.31 -0.31 0.1277 -120.8357 633.884)">
	<stop  offset="0" style="stop-color:#4B45BD"/>
	<stop  offset="1" style="stop-color:#58CAEA"/>
</linearGradient>
<circle class="st1" cx="72.3" cy="84.3" r="20.9"/>
<circle class="st2" cx="72.8" cy="84.1" r="17.3"/>
<linearGradient id="SVGID_2_" gradientUnits="userSpaceOnUse" x1="1259.5002" y1="-1158.3336" x2="1333.9403" y2="-1158.3336" gradientTransform="matrix(-0.1277 -0.31 -0.31 0.1277 -120.8357 633.884)">
	<stop  offset="0" style="stop-color:#4B45BD"/>
	<stop  offset="1" style="stop-color:#58CAEA"/>
</linearGradient>
<circle class="st3" cx="72.7" cy="84" r="12.5"/>
<linearGradient id="SVGID_3_" gradientUnits="userSpaceOnUse" x1="1248.7141" y1="-1453.3436" x2="1365.8203" y2="-1453.3436" gradientTransform="matrix(-0.1277 -0.31 -0.31 0.1277 -157.4663 703.4631)">
	<stop  offset="0" style="stop-color:#4B45BD"/>
	<stop  offset="1" style="stop-color:#58CAEA"/>
</linearGradient>
<path class="st4" d="M135.4,87.6l12.3,30c0.6,1.6,0.6,3.3-0.2,4.8c-1.7,3.2-5.6,7.6-14,3.5c-12.3-6.1-31-23.1-31-23.1L135.4,87.6z"
	/>
<linearGradient id="SVGID_4_" gradientUnits="userSpaceOnUse" x1="-2483.5225" y1="-1446.1287" x2="-2364.1223" y2="-1446.1287" gradientTransform="matrix(0.1213 0.2945 -0.31 0.1277 -65.723 926.2177)">
	<stop  offset="0" style="stop-color:#4B45BD"/>
	<stop  offset="1" style="stop-color:#58CAEA"/>
</linearGradient>
<path class="st5" d="M112.6,38.5L100.7,9.6c-0.6-1.5-1.9-2.7-3.5-3.1c-3.4-1-9.3-1.3-12.4,7.3c-4.6,12.7-6.2,37.1-6.2,37.1
	L112.6,38.5z"/>
<linearGradient id="SVGID_5_" gradientUnits="userSpaceOnUse" x1="1310.5303" y1="-1327.1786" x2="1286.4403" y2="-1327.1786" gradientTransform="matrix(-0.1277 -0.31 -0.31 0.1277 -120.8357 633.884)">
	<stop  offset="0" style="stop-color:#4B45BD"/>
	<stop  offset="1" style="stop-color:#58CAEA"/>
</linearGradient>
<path class="st6" d="M109.6,69.3l-0.8-1.9c-0.6-1.5,0.1-3.3,1.6-3.9l25.6-10.6c1.5-0.6,3.3,0.1,3.9,1.6l0.8,1.9
	c0.6,1.5-0.1,3.3-1.6,3.9l-25.6,10.6C112,71.5,110.2,70.8,109.6,69.3z"/>
<linearGradient id="SVGID_6_" gradientUnits="userSpaceOnUse" x1="1395.2715" y1="-1149.1158" x2="1488.3994" y2="-1149.1158" gradientTransform="matrix(-0.1277 -0.31 -0.31 0.1277 -157.4663 703.4631)">
	<stop  offset="0" style="stop-color:#4B45BD"/>
	<stop  offset="1" style="stop-color:#58CAEA"/>
</linearGradient>
<path class="st7" d="M31.7,119L20.2,91.2c-0.1-0.3-0.5-0.5-0.8-0.3c-0.1,0-0.2,0.1-0.2,0.2l-16,21.8c-0.2,0.3-0.2,0.6,0.1,0.8
	c0.1,0.1,0.2,0.1,0.3,0.1l27.5,5.9c0.3,0.1,0.7-0.1,0.8-0.5C31.7,119.2,31.7,119.1,31.7,119z"/>
<linearGradient id="SVGID_7_" gradientUnits="userSpaceOnUse" x1="1992.9275" y1="753.662" x2="1970.2676" y2="707.612" gradientTransform="matrix(0.1506 -0.2995 -0.2995 -0.1506 -6.3952 779.0716)">
	<stop  offset="0" style="stop-color:#FFFFFF;stop-opacity:0"/>
	<stop  offset="1" style="stop-color:#FFFFFF"/>
</linearGradient>
<path class="st8" d="M67.7,75.5c0,0,4.3-3.9,13,2.5L67.7,75.5z"/>
</svg>
