<svg width="201" height="51" viewBox="0 0 201 51" fill="none" xmlns="http://www.w3.org/2000/svg">
<rect x="2.22437" y="1.80225" width="197" height="47" rx="23.5" stroke="#CAF9F8" stroke-width="3"/>
<path d="M59.0921 18.7022V31.3022H57.3281V20.2682H50.0201V31.3022H48.2381V18.7022H59.0921ZM66.8193 31.4102C65.8713 31.4102 65.0193 31.2002 64.2633 30.7802C63.5073 30.3602 62.9133 29.7842 62.4813 29.0522C62.0613 28.3082 61.8513 27.4682 61.8513 26.5322C61.8513 25.5962 62.0613 24.7622 62.4813 24.0302C62.9133 23.2862 63.5073 22.7102 64.2633 22.3022C65.0193 21.8822 65.8713 21.6722 66.8193 21.6722C67.7673 21.6722 68.6133 21.8822 69.3573 22.3022C70.1133 22.7102 70.7013 23.2862 71.1213 24.0302C71.5533 24.7622 71.7693 25.5962 71.7693 26.5322C71.7693 27.4682 71.5533 28.3082 71.1213 29.0522C70.7013 29.7842 70.1133 30.3602 69.3573 30.7802C68.6133 31.2002 67.7673 31.4102 66.8193 31.4102ZM66.8193 29.8982C67.4313 29.8982 67.9773 29.7602 68.4573 29.4842C68.9493 29.1962 69.3333 28.8002 69.6093 28.2962C69.8853 27.7802 70.0233 27.1922 70.0233 26.5322C70.0233 25.8722 69.8853 25.2902 69.6093 24.7862C69.3333 24.2702 68.9493 23.8742 68.4573 23.5982C67.9773 23.3222 67.4313 23.1842 66.8193 23.1842C66.2073 23.1842 65.6553 23.3222 65.1633 23.5982C64.6833 23.8742 64.2993 24.2702 64.0113 24.7862C63.7353 25.2902 63.5973 25.8722 63.5973 26.5322C63.5973 27.1922 63.7353 27.7802 64.0113 28.2962C64.2993 28.8002 64.6833 29.1962 65.1633 29.4842C65.6553 29.7602 66.2073 29.8982 66.8193 29.8982ZM83.8963 29.7902V33.5162H82.2763V31.3022H74.3023V33.5162H72.6643V29.7902H73.1683C73.7803 29.7542 74.2003 29.3222 74.4283 28.4942C74.6563 27.6662 74.8123 26.4962 74.8963 24.9842L75.0403 21.7622H82.4383V29.7902H83.8963ZM76.4803 25.1102C76.4323 26.3102 76.3303 27.3062 76.1743 28.0982C76.0303 28.8782 75.7603 29.4422 75.3643 29.7902H80.7103V23.2742H76.5703L76.4803 25.1102ZM91.2054 21.6722C92.1294 21.6722 92.9574 21.8762 93.6894 22.2842C94.4214 22.6922 94.9914 23.2622 95.3994 23.9942C95.8194 24.7262 96.0294 25.5722 96.0294 26.5322C96.0294 27.4922 95.8194 28.3442 95.3994 29.0882C94.9914 29.8202 94.4214 30.3902 93.6894 30.7982C92.9574 31.2062 92.1294 31.4102 91.2054 31.4102C90.5214 31.4102 89.8914 31.2782 89.3154 31.0142C88.7514 30.7502 88.2714 30.3662 87.8754 29.8622V34.7942H86.1474V21.7622H87.8034V23.2742C88.1874 22.7462 88.6734 22.3502 89.2614 22.0862C89.8494 21.8102 90.4974 21.6722 91.2054 21.6722ZM91.0614 29.8982C91.6734 29.8982 92.2194 29.7602 92.6994 29.4842C93.1914 29.1962 93.5754 28.8002 93.8514 28.2962C94.1394 27.7802 94.2834 27.1922 94.2834 26.5322C94.2834 25.8722 94.1394 25.2902 93.8514 24.7862C93.5754 24.2702 93.1914 23.8742 92.6994 23.5982C92.2194 23.3222 91.6734 23.1842 91.0614 23.1842C90.4614 23.1842 89.9154 23.3282 89.4234 23.6162C88.9434 23.8922 88.5594 24.2822 88.2714 24.7862C87.9954 25.2902 87.8574 25.8722 87.8574 26.5322C87.8574 27.1922 87.9954 27.7802 88.2714 28.2962C88.5474 28.8002 88.9314 29.1962 89.4234 29.4842C89.9154 29.7602 90.4614 29.8982 91.0614 29.8982ZM102.626 31.4102C101.678 31.4102 100.826 31.2002 100.07 30.7802C99.314 30.3602 98.72 29.7842 98.288 29.0522C97.868 28.3082 97.658 27.4682 97.658 26.5322C97.658 25.5962 97.868 24.7622 98.288 24.0302C98.72 23.2862 99.314 22.7102 100.07 22.3022C100.826 21.8822 101.678 21.6722 102.626 21.6722C103.574 21.6722 104.42 21.8822 105.164 22.3022C105.92 22.7102 106.508 23.2862 106.928 24.0302C107.36 24.7622 107.576 25.5962 107.576 26.5322C107.576 27.4682 107.36 28.3082 106.928 29.0522C106.508 29.7842 105.92 30.3602 105.164 30.7802C104.42 31.2002 103.574 31.4102 102.626 31.4102ZM102.626 29.8982C103.238 29.8982 103.784 29.7602 104.264 29.4842C104.756 29.1962 105.14 28.8002 105.416 28.2962C105.692 27.7802 105.83 27.1922 105.83 26.5322C105.83 25.8722 105.692 25.2902 105.416 24.7862C105.14 24.2702 104.756 23.8742 104.264 23.5982C103.784 23.3222 103.238 23.1842 102.626 23.1842C102.014 23.1842 101.462 23.3222 100.97 23.5982C100.49 23.8742 100.106 24.2702 99.818 24.7862C99.542 25.2902 99.404 25.8722 99.404 26.5322C99.404 27.1922 99.542 27.7802 99.818 28.2962C100.106 28.8002 100.49 29.1962 100.97 29.4842C101.462 29.7602 102.014 29.8982 102.626 29.8982ZM114.931 22.0862C115.819 22.0862 116.611 22.2842 117.307 22.6802C118.003 23.0762 118.543 23.6282 118.927 24.3362C119.323 25.0322 119.521 25.8302 119.521 26.7302C119.521 27.6542 119.311 28.4762 118.891 29.1962C118.483 29.9042 117.901 30.4562 117.145 30.8522C116.401 31.2482 115.549 31.4462 114.589 31.4462C112.969 31.4462 111.715 30.8942 110.827 29.7902C109.951 28.6742 109.513 27.1082 109.513 25.0922C109.513 23.1362 109.915 21.6062 110.719 20.5022C111.523 19.3862 112.753 18.6482 114.409 18.2882L118.765 17.3162L119.017 18.9002L115.003 19.7642C113.755 20.0402 112.825 20.5082 112.213 21.1682C111.601 21.8282 111.253 22.7762 111.169 24.0122C111.577 23.4002 112.105 22.9262 112.753 22.5902C113.401 22.2542 114.127 22.0862 114.931 22.0862ZM114.625 30.0062C115.237 30.0062 115.777 29.8682 116.245 29.5922C116.725 29.3162 117.097 28.9382 117.361 28.4582C117.625 27.9662 117.757 27.4082 117.757 26.7842C117.757 25.8362 117.469 25.0742 116.893 24.4982C116.317 23.9222 115.561 23.6342 114.625 23.6342C113.689 23.6342 112.927 23.9222 112.339 24.4982C111.763 25.0742 111.475 25.8362 111.475 26.7842C111.475 27.4082 111.607 27.9662 111.871 28.4582C112.147 28.9382 112.525 29.3162 113.005 29.5922C113.485 29.8682 114.025 30.0062 114.625 30.0062ZM121.989 21.7622H123.717V25.8122H129.153V21.7622H130.881V31.3022H129.153V27.3062H123.717V31.3022H121.989V21.7622ZM142.863 26.5862C142.863 26.7182 142.851 26.8922 142.827 27.1082H135.087C135.195 27.9482 135.561 28.6262 136.185 29.1422C136.821 29.6462 137.607 29.8982 138.543 29.8982C139.683 29.8982 140.601 29.5142 141.297 28.7462L142.251 29.8622C141.819 30.3662 141.279 30.7502 140.631 31.0142C139.995 31.2782 139.281 31.4102 138.489 31.4102C137.481 31.4102 136.587 31.2062 135.807 30.7982C135.027 30.3782 134.421 29.7962 133.989 29.0522C133.569 28.3082 133.359 27.4682 133.359 26.5322C133.359 25.6082 133.563 24.7742 133.971 24.0302C134.391 23.2862 134.961 22.7102 135.681 22.3022C136.413 21.8822 137.235 21.6722 138.147 21.6722C139.059 21.6722 139.869 21.8822 140.577 22.3022C141.297 22.7102 141.855 23.2862 142.251 24.0302C142.659 24.7742 142.863 25.6262 142.863 26.5862ZM138.147 23.1302C137.319 23.1302 136.623 23.3822 136.059 23.8862C135.507 24.3902 135.183 25.0502 135.087 25.8662H141.207C141.111 25.0622 140.781 24.4082 140.217 23.9042C139.665 23.3882 138.975 23.1302 138.147 23.1302ZM154.166 26.5862C154.166 26.7182 154.154 26.8922 154.13 27.1082H146.39C146.498 27.9482 146.864 28.6262 147.488 29.1422C148.124 29.6462 148.91 29.8982 149.846 29.8982C150.986 29.8982 151.904 29.5142 152.6 28.7462L153.554 29.8622C153.122 30.3662 152.582 30.7502 151.934 31.0142C151.298 31.2782 150.584 31.4102 149.792 31.4102C148.784 31.4102 147.89 31.2062 147.11 30.7982C146.33 30.3782 145.724 29.7962 145.292 29.0522C144.872 28.3082 144.662 27.4682 144.662 26.5322C144.662 25.6082 144.866 24.7742 145.274 24.0302C145.694 23.2862 146.264 22.7102 146.984 22.3022C147.716 21.8822 148.538 21.6722 149.45 21.6722C150.362 21.6722 151.172 21.8822 151.88 22.3022C152.6 22.7102 153.158 23.2862 153.554 24.0302C153.962 24.7742 154.166 25.6262 154.166 26.5862ZM149.45 23.1302C148.622 23.1302 147.926 23.3822 147.362 23.8862C146.81 24.3902 146.486 25.0502 146.39 25.8662H152.51C152.414 25.0622 152.084 24.4082 151.52 23.9042C150.968 23.3882 150.278 23.1302 149.45 23.1302Z" fill="#25C6BE"/>
</svg>
