<svg width="201" height="51" viewBox="0 0 201 51" fill="none" xmlns="http://www.w3.org/2000/svg">
<rect x="0.724365" y="0.302246" width="200" height="50" rx="25" fill="#33C7BA"/>
<path d="M44.3865 25.8599C44.3865 27.9165 43.865 29.5337 42.822 30.7114C41.7849 31.8892 40.3406 32.478 38.489 32.478C36.5964 32.478 35.1345 31.9009 34.1033 30.7466C33.0779 29.5864 32.5652 27.9517 32.5652 25.8423C32.5652 23.7505 33.0808 22.1304 34.1121 20.9819C35.1433 19.8276 36.6082 19.2505 38.5066 19.2505C40.3523 19.2505 41.7937 19.8364 42.8308 21.0083C43.8679 22.1802 44.3865 23.7974 44.3865 25.8599ZM34.1472 25.8599C34.1472 27.6001 34.5164 28.9214 35.2546 29.8237C35.9988 30.7202 37.0769 31.1685 38.489 31.1685C39.9128 31.1685 40.988 30.7202 41.7146 29.8237C42.4412 28.9272 42.8044 27.606 42.8044 25.8599C42.8044 24.1313 42.4412 22.8218 41.7146 21.9312C40.9939 21.0347 39.9246 20.5864 38.5066 20.5864C37.0828 20.5864 35.9988 21.0376 35.2546 21.9399C34.5164 22.8364 34.1472 24.1431 34.1472 25.8599ZM50.8904 32.478C49.4958 32.478 48.4148 32.0503 47.6472 31.1948C46.8855 30.3335 46.5046 29.1177 46.5046 27.5474C46.5046 25.936 46.8914 24.6909 47.6648 23.812C48.4441 22.9331 49.5515 22.4937 50.9871 22.4937C51.45 22.4937 51.9128 22.5435 52.3757 22.6431C52.8386 22.7427 53.2019 22.8599 53.4656 22.9946L53.0173 24.2339C52.6951 24.105 52.3435 23.9995 51.9626 23.9175C51.5818 23.8296 51.2449 23.7856 50.9519 23.7856C48.9949 23.7856 48.0164 25.0337 48.0164 27.5298C48.0164 28.7134 48.2537 29.6216 48.7283 30.2544C49.2087 30.8872 49.9177 31.2036 50.8552 31.2036C51.658 31.2036 52.4812 31.0308 53.325 30.6851V31.9771C52.6804 32.311 51.8689 32.478 50.8904 32.478ZM62.114 23.9175H58.9851V32.3022H57.5261V23.9175H54.4324V22.6694H62.114V23.9175ZM69.9451 32.3022L69.655 30.9312H69.5847C69.1042 31.5347 68.6238 31.9448 68.1433 32.1616C67.6687 32.3726 67.074 32.478 66.3591 32.478C65.4041 32.478 64.6541 32.2319 64.1091 31.7397C63.5701 31.2476 63.3005 30.5474 63.3005 29.6392C63.3005 27.6938 64.8562 26.6743 67.9675 26.5806L69.6023 26.5278V25.9302C69.6023 25.1743 69.4382 24.6177 69.1101 24.2603C68.7878 23.897 68.2693 23.7153 67.5544 23.7153C66.7517 23.7153 65.8435 23.9614 64.8298 24.4536L64.3816 23.3374C64.8562 23.0796 65.3748 22.8774 65.9373 22.731C66.5056 22.5845 67.074 22.5112 67.6423 22.5112C68.7908 22.5112 69.6404 22.7661 70.1912 23.2759C70.7478 23.7856 71.0261 24.603 71.0261 25.728V32.3022H69.9451ZM66.6492 31.2739C67.5574 31.2739 68.2693 31.0249 68.7849 30.5269C69.3064 30.0288 69.5671 29.3315 69.5671 28.4351V27.5649L68.1082 27.6265C66.948 27.6675 66.1101 27.8491 65.5945 28.1714C65.0847 28.4878 64.8298 28.9829 64.8298 29.6567C64.8298 30.1841 64.988 30.5854 65.3044 30.8608C65.6267 31.1362 66.075 31.2739 66.6492 31.2739ZM81.8542 25.0864C81.8542 25.7134 81.6726 26.1909 81.3093 26.519C80.9519 26.8413 80.448 27.0581 79.7976 27.1694V27.2485C80.6179 27.3599 81.2156 27.6001 81.5906 27.9692C81.9714 28.3384 82.1619 28.8481 82.1619 29.4985C82.1619 30.395 81.8308 31.0864 81.1687 31.5728C80.5125 32.0591 79.5515 32.3022 78.2859 32.3022H74.0408V22.6694H78.2683C80.6589 22.6694 81.8542 23.4751 81.8542 25.0864ZM80.7029 29.4019C80.7029 28.8804 80.5037 28.5024 80.1052 28.2681C79.7126 28.0278 79.0593 27.9077 78.1453 27.9077H75.4998V31.0806H78.1804C79.8621 31.0806 80.7029 30.521 80.7029 29.4019ZM80.4304 25.2271C80.4304 24.7583 80.2488 24.4272 79.8855 24.2339C79.5281 24.0347 78.9832 23.9351 78.2507 23.9351H75.4998V26.6509H77.9695C78.8718 26.6509 79.5076 26.5396 79.8767 26.3169C80.2458 26.0942 80.4304 25.731 80.4304 25.2271ZM85.6599 22.6694V28.7778L85.5984 30.3774L85.572 30.8784L90.7839 22.6694H92.6033V32.3022H91.241V26.4136L91.2673 25.2534L91.3113 24.1108L86.1082 32.3022H84.2888V22.6694H85.6599ZM102.192 23.9175H99.0632V32.3022H97.6042V23.9175H94.5105V22.6694H102.192V23.9175ZM105.558 26.6509H108.529C110.99 26.6509 112.22 27.5562 112.22 29.3667C112.22 30.3159 111.898 31.0425 111.254 31.5464C110.615 32.0503 109.677 32.3022 108.441 32.3022H104.099V22.6694H105.558V26.6509ZM105.558 27.9077V31.0806H108.371C109.144 31.0806 109.736 30.9458 110.146 30.6763C110.556 30.4067 110.761 29.9995 110.761 29.4546C110.761 28.9214 110.571 28.5317 110.19 28.2856C109.815 28.0337 109.194 27.9077 108.327 27.9077H105.558ZM127.742 27.4771C127.742 29.0474 127.346 30.2749 126.555 31.1597C125.764 32.0386 124.672 32.478 123.277 32.478C122.416 32.478 121.651 32.2759 120.983 31.8716C120.315 31.4673 119.8 30.8872 119.436 30.1313C119.073 29.3755 118.891 28.4907 118.891 27.4771C118.891 25.9067 119.284 24.6851 120.069 23.812C120.854 22.9331 121.944 22.4937 123.339 22.4937C124.686 22.4937 125.756 22.9419 126.547 23.8384C127.344 24.7349 127.742 25.9478 127.742 27.4771ZM120.403 27.4771C120.403 28.7075 120.649 29.645 121.141 30.2896C121.634 30.9341 122.357 31.2563 123.312 31.2563C124.267 31.2563 124.991 30.937 125.483 30.2983C125.981 29.6538 126.23 28.7134 126.23 27.4771C126.23 26.2524 125.981 25.3237 125.483 24.6909C124.991 24.0522 124.261 23.7329 123.295 23.7329C122.34 23.7329 121.619 24.0464 121.133 24.6733C120.646 25.3003 120.403 26.2349 120.403 27.4771ZM136.803 23.9175H133.675V32.3022H132.216V23.9175H129.122V22.6694H136.803V23.9175ZM140.548 26.6685C142.37 26.6685 143.281 26.1646 143.281 25.1567C143.281 24.2075 142.543 23.7329 141.066 23.7329C140.615 23.7329 140.205 23.7739 139.836 23.856C139.467 23.938 138.983 24.1021 138.385 24.3481L137.867 23.1616C138.863 22.7163 139.95 22.4937 141.128 22.4937C142.235 22.4937 143.108 22.7222 143.747 23.1792C144.385 23.6304 144.705 24.2485 144.705 25.0337C144.705 26.1118 144.104 26.8179 142.903 27.1519V27.2222C143.641 27.439 144.18 27.7495 144.52 28.1538C144.86 28.5522 145.03 29.0532 145.03 29.6567C145.03 30.5474 144.67 31.2417 143.949 31.7397C143.234 32.2319 142.244 32.478 140.978 32.478C139.59 32.478 138.517 32.27 137.761 31.854V30.5181C138.834 31.022 139.918 31.2739 141.013 31.2739C141.857 31.2739 142.493 31.1304 142.921 30.8433C143.354 30.5503 143.571 30.1313 143.571 29.5864C143.571 28.4673 142.66 27.9077 140.838 27.9077H139.502V26.6685H140.548ZM148.871 26.6509H151.499C152.723 26.6509 153.629 26.8794 154.215 27.3364C154.806 27.7876 155.102 28.4644 155.102 29.3667C155.102 30.3335 154.789 31.0659 154.162 31.564C153.541 32.0562 152.624 32.3022 151.411 32.3022H147.412V22.6694H148.871V26.6509ZM158.178 32.3022H156.719V22.6694H158.178V32.3022ZM148.871 27.9077V31.0806H151.341C152.887 31.0806 153.661 30.5386 153.661 29.4546C153.661 28.9155 153.482 28.5229 153.125 28.2769C152.767 28.0308 152.158 27.9077 151.297 27.9077H148.871ZM169.094 25.0864C169.094 25.7134 168.913 26.1909 168.55 26.519C168.192 26.8413 167.688 27.0581 167.038 27.1694V27.2485C167.858 27.3599 168.456 27.6001 168.831 27.9692C169.212 28.3384 169.402 28.8481 169.402 29.4985C169.402 30.395 169.071 31.0864 168.409 31.5728C167.753 32.0591 166.792 32.3022 165.526 32.3022H161.281V22.6694H165.509C167.899 22.6694 169.094 23.4751 169.094 25.0864ZM167.943 29.4019C167.943 28.8804 167.744 28.5024 167.345 28.2681C166.953 28.0278 166.3 27.9077 165.385 27.9077H162.74V31.0806H165.421C167.102 31.0806 167.943 30.521 167.943 29.4019ZM167.671 25.2271C167.671 24.7583 167.489 24.4272 167.126 24.2339C166.768 24.0347 166.223 23.9351 165.491 23.9351H162.74V26.6509H165.21C166.112 26.6509 166.748 26.5396 167.117 26.3169C167.486 26.0942 167.671 25.731 167.671 25.2271Z" fill="white"/>
</svg>
