<?xml version="1.0" encoding="utf-8"?>
<svg version="1.1" id="Capa_1" xmlns="http://www.w3.org/2000/svg" xmlns:xlink="http://www.w3.org/1999/xlink" x="0px" y="0px"
	 viewBox="0 0 438.5 438.5" style="enable-background:new 0 0 438.5 438.5;" xml:space="preserve">
<g>
	<path fill="#A0A0A0" d="M109.2,29.4C75.6,49,49,75.6,29.4,109.2C9.8,142.8,0,179.5,0,219.3c0,39.8,9.8,76.5,29.4,110.1
		c19.6,33.6,46.2,60.2,79.8,79.8c33.6,19.6,70.3,29.4,110.1,29.4c39.8,0,76.5-9.8,110.1-29.4c33.6-19.6,60.2-46.2,79.8-79.8
		c19.6-33.6,29.4-70.3,29.4-110.1s-9.8-76.5-29.4-110.1c-19.6-33.6-46.2-60.2-79.8-79.8C295.7,9.8,259,0,219.3,0
		C179.5,0,142.8,9.8,109.2,29.4z M232.1,104.2l129.6,129.6c3.6,3.6,5.4,7.9,5.4,12.8c0,5-1.8,9.2-5.4,12.9l-29.1,29.1
		c-3.6,3.6-7.9,5.4-12.8,5.4c-4.9,0-9.2-1.8-12.8-5.4L219.3,201l-87.6,87.7c-3.6,3.6-7.9,5.4-12.8,5.4c-4.9,0-9.2-1.8-12.8-5.4
		l-29.1-29.1c-3.6-3.6-5.4-7.9-5.4-12.9c0-4.9,1.8-9.2,5.4-12.9l129.6-129.6c3.6-3.6,7.9-5.4,12.8-5.4
		C224.2,98.8,228.5,100.6,232.1,104.2z"/>
</g>
</svg>
