<?xml version="1.0" encoding="utf-8"?>
<!-- Generator: Adobe Illustrator 22.1.0, SVG Export Plug-In . SVG Version: 6.00 Build 0)  -->
<svg version="1.1" id="Layer_1" xmlns="http://www.w3.org/2000/svg" xmlns:xlink="http://www.w3.org/1999/xlink" x="0px" y="0px"
	 viewBox="0 0 360 291.3" style="enable-background:new 0 0 360 291.3;" xml:space="preserve">
<style type="text/css">
	.st0{fill:#F0F3FF;}
	.st1{fill:#C1EEED;}
	.st2{fill:none;stroke:#000000;stroke-width:3;stroke-linecap:round;stroke-linejoin:round;}
</style>
<g>
	<path class="st0" d="M50,41.3h260c27.6,0,50,22.4,50,50v150c0,27.6-22.4,50-50,50H50c-27.6,0-50-22.4-50-50v-150
		C0,63.7,22.4,41.3,50,41.3z"/>
</g>
<path class="st1" d="M215.9,79.3c-40.5-4.5-30,8.5-49.9,8.5s-45.1-16-23.9-62.4c21.3-46.4,38-10.9,66.1-24.8
	C228.1,0.6,239.3,72.9,215.9,79.3z"/>
<path class="st2" d="M155.5,22.6l19.9,23.2c0.3,0.3,0.5,0.8,0.5,1.2v14.1c0,0.2,0.1,0.4,0.2,0.6c0.1,0.2,0.3,0.3,0.5,0.3l9.5,3.1
	c0.1,0,0.3,0.1,0.4,0c0.1,0,0.3-0.1,0.4-0.2c0.1-0.1,0.2-0.2,0.3-0.3c0.1-0.1,0.1-0.3,0.1-0.4V47c0-0.5,0.2-0.9,0.5-1.2l19.9-23.2
	c0.2-0.2,0.3-0.5,0.4-0.8c0-0.3,0-0.6-0.1-0.9c-0.1-0.3-0.3-0.5-0.6-0.7c-0.3-0.2-0.6-0.3-0.9-0.3h-49.6c-0.3,0-0.6,0.1-0.9,0.3
	c-0.3,0.2-0.5,0.4-0.6,0.7c-0.1,0.3-0.2,0.6-0.1,0.9C155.1,22,155.2,22.3,155.5,22.6z"/>
</svg>
