<svg viewBox="20 20 200 50" fill="none" xmlns="http://www.w3.org/2000/svg">
  <g filter="url(#filter0_dd_927_1501)">
    <rect x="20" y="20" width="200" height="50" rx="5" fill="white"></rect>
    <path d="M121.952 44.5303H126.681V50.9814C125.907 51.2334 125.163 51.4121 124.448 51.5176C123.739 51.623 122.972 51.6758 122.146 51.6758C120.2 51.6758 118.7 51.1016 117.646 49.9531C116.591 48.7988 116.063 47.1729 116.063 45.0752C116.063 43.0068 116.658 41.3896 117.848 40.2236C119.037 39.0518 120.675 38.4658 122.761 38.4658C124.103 38.4658 125.374 38.7236 126.575 39.2393L125.837 40.9883C124.794 40.5078 123.751 40.2676 122.708 40.2676C121.337 40.2676 120.253 40.6982 119.456 41.5596C118.659 42.4209 118.261 43.5986 118.261 45.0928C118.261 46.6631 118.618 47.8584 119.333 48.6787C120.054 49.4932 121.088 49.9004 122.436 49.9004C123.115 49.9004 123.842 49.8154 124.615 49.6455V46.332H121.952V44.5303ZM137.746 51.5H135.672V45.5059C135.672 44.7617 135.531 44.208 135.25 43.8447C134.969 43.4756 134.529 43.291 133.932 43.291C133.135 43.291 132.549 43.5518 132.174 44.0732C131.805 44.5889 131.62 45.4502 131.62 46.6572V51.5H129.555V41.7793H131.172L131.462 43.0537H131.567C131.837 42.5908 132.227 42.2334 132.736 41.9814C133.252 41.7295 133.817 41.6035 134.433 41.6035C135.927 41.6035 136.917 42.1133 137.403 43.1328H137.544C137.831 42.6523 138.235 42.2773 138.757 42.0078C139.278 41.7383 139.876 41.6035 140.55 41.6035C141.71 41.6035 142.554 41.8965 143.081 42.4824C143.614 43.0684 143.881 43.9619 143.881 45.1631V51.5H141.815V45.5059C141.815 44.7617 141.672 44.208 141.385 43.8447C141.104 43.4756 140.664 43.291 140.066 43.291C139.264 43.291 138.675 43.543 138.3 44.0469C137.931 44.5449 137.746 45.3125 137.746 46.3496V51.5ZM152.846 51.5L152.433 50.1465H152.362C151.894 50.7383 151.422 51.1426 150.947 51.3594C150.473 51.5703 149.863 51.6758 149.119 51.6758C148.164 51.6758 147.417 51.418 146.878 50.9023C146.345 50.3867 146.078 49.6572 146.078 48.7139C146.078 47.7119 146.45 46.9561 147.194 46.4463C147.938 45.9365 149.072 45.6582 150.596 45.6113L152.274 45.5586V45.04C152.274 44.4189 152.128 43.9561 151.835 43.6514C151.548 43.3408 151.1 43.1855 150.49 43.1855C149.992 43.1855 149.515 43.2588 149.058 43.4053C148.601 43.5518 148.161 43.7246 147.739 43.9238L147.071 42.4473C147.599 42.1719 148.176 41.9639 148.803 41.8232C149.43 41.6768 150.021 41.6035 150.578 41.6035C151.814 41.6035 152.746 41.873 153.373 42.4121C154.006 42.9512 154.322 43.7979 154.322 44.9521V51.5H152.846ZM149.77 50.0938C150.52 50.0938 151.12 49.8857 151.571 49.4697C152.028 49.0479 152.257 48.459 152.257 47.7031V46.8594L151.009 46.9121C150.036 46.9473 149.327 47.1113 148.882 47.4043C148.442 47.6914 148.223 48.1338 148.223 48.7314C148.223 49.165 148.352 49.502 148.609 49.7422C148.867 49.9766 149.254 50.0938 149.77 50.0938ZM159.271 51.5H157.205V41.7793H159.271V51.5ZM157.082 39.2041C157.082 38.835 157.182 38.5508 157.381 38.3516C157.586 38.1523 157.876 38.0527 158.251 38.0527C158.614 38.0527 158.896 38.1523 159.095 38.3516C159.3 38.5508 159.402 38.835 159.402 39.2041C159.402 39.5557 159.3 39.834 159.095 40.0391C158.896 40.2383 158.614 40.3379 158.251 40.3379C157.876 40.3379 157.586 40.2383 157.381 40.0391C157.182 39.834 157.082 39.5557 157.082 39.2041ZM164.298 51.5H162.232V37.8242H164.298V51.5Z" fill="#555555"></path>
    <path d="M102.257 42.5519H101.25V42.5H90V47.5H97.0644C96.0338 50.4106 93.2644 52.5 90 52.5C85.8581 52.5 82.5 49.1419 82.5 45C82.5 40.8581 85.8581 37.5 90 37.5C91.9119 37.5 93.6513 38.2212 94.9756 39.3994L98.5113 35.8637C96.2788 33.7831 93.2925 32.5 90 32.5C83.0969 32.5 77.5 38.0969 77.5 45C77.5 51.9031 83.0969 57.5 90 57.5C96.9031 57.5 102.5 51.9031 102.5 45C102.5 44.1619 102.414 43.3438 102.257 42.5519Z" fill="#FFC107"></path>
    <path d="M78.9412 39.1819L83.0481 42.1938C84.1594 39.4425 86.8506 37.5 90 37.5C91.9119 37.5 93.6513 38.2212 94.9756 39.3994L98.5113 35.8637C96.2788 33.7831 93.2925 32.5 90 32.5C85.1987 32.5 81.035 35.2106 78.9412 39.1819Z" fill="#FF3D00"></path>
    <path d="M90 57.5C93.2287 57.5 96.1625 56.2644 98.3806 54.255L94.5119 50.9813C93.2147 51.9678 91.6297 52.5013 90 52.5C86.7487 52.5 83.9881 50.4269 82.9481 47.5338L78.8719 50.6744C80.9406 54.7225 85.1419 57.5 90 57.5Z" fill="#4CAF50"></path>
    <path d="M102.257 42.5519H101.25V42.5H90V47.5H97.0644C96.5714 48.8853 95.6833 50.0957 94.51 50.9819L94.5119 50.9806L98.3806 54.2544C98.1069 54.5031 102.5 51.25 102.5 45C102.5 44.1619 102.414 43.3438 102.257 42.5519Z" fill="#1976D2"></path>
  </g>
  <defs>
    <filter id="filter0_dd_927_1501" x="0" y="0" width="240" height="90" filterUnits="userSpaceOnUse" color-interpolation-filters="sRGB">
      <feFlood flood-opacity="0" result="BackgroundImageFix"></feFlood>
      <feColorMatrix in="SourceAlpha" type="matrix" values="0 0 0 0 0 0 0 0 0 0 0 0 0 0 0 0 0 0 127 0" result="hardAlpha"></feColorMatrix>
      <feOffset dx="5" dy="5"></feOffset>
      <feGaussianBlur stdDeviation="7.5"></feGaussianBlur>
      <feComposite in2="hardAlpha" operator="out"></feComposite>
      <feColorMatrix type="matrix" values="0 0 0 0 0 0 0 0 0 0 0 0 0 0 0 0 0 0 0.25 0"></feColorMatrix>
      <feBlend mode="normal" in2="BackgroundImageFix" result="effect1_dropShadow_927_1501"></feBlend>
      <feColorMatrix in="SourceAlpha" type="matrix" values="0 0 0 0 0 0 0 0 0 0 0 0 0 0 0 0 0 0 127 0" result="hardAlpha"></feColorMatrix>
      <feOffset dx="-5" dy="-5"></feOffset>
      <feGaussianBlur stdDeviation="7.5"></feGaussianBlur>
      <feComposite in2="hardAlpha" operator="out"></feComposite>
      <feColorMatrix type="matrix" values="0 0 0 0 1 0 0 0 0 1 0 0 0 0 1 0 0 0 0.25 0"></feColorMatrix>
      <feBlend mode="normal" in2="effect1_dropShadow_927_1501" result="effect2_dropShadow_927_1501"></feBlend>
      <feBlend mode="normal" in="SourceGraphic" in2="effect2_dropShadow_927_1501" result="shape"></feBlend>
    </filter>
  </defs>
</svg>
