<svg viewBox="20 20 200 50" fill="none" xmlns="http://www.w3.org/2000/svg">
  <g filter="url(#filter0_dd_927_1495)">
    <rect x="20" y="20" width="200" height="50" rx="5" fill="#2F77B0"></rect>
    <g clip-path="url(#clip0_927_1495)">
      <path d="M67.3562 57.999V39.1075H61.3541V57.999H67.3562ZM64.3559 36.5266C66.449 36.5266 67.7518 35.0759 67.7518 33.2631C67.7128 31.4094 66.449 29.999 64.3956 29.999C62.3426 29.999 61 31.4094 61 33.2631C61 35.076 62.3025 36.5266 64.3167 36.5266H64.3557H64.3559ZM70.6784 57.999H76.6805V47.449C76.6805 46.8844 76.7195 46.3204 76.878 45.9168C77.3119 44.7887 78.2995 43.6203 79.9575 43.6203C82.1294 43.6203 82.9983 45.3527 82.9983 47.8923V57.9989H89.0001V47.1666C89.0001 41.3639 86.0389 38.6639 82.0899 38.6639C78.852 38.6639 77.4303 40.5574 76.6405 41.8469H76.6806V39.1071H70.6785C70.7573 40.8797 70.6785 57.9986 70.6785 57.9986L70.6784 57.999Z" fill="white"></path>
    </g>
    <path d="M105.696 52V39.1504H107.797V50.1982H113.237V52H105.696ZM117.298 52H115.232V42.2793H117.298V52ZM115.109 39.7041C115.109 39.335 115.209 39.0508 115.408 38.8516C115.613 38.6523 115.903 38.5527 116.278 38.5527C116.642 38.5527 116.923 38.6523 117.122 38.8516C117.327 39.0508 117.43 39.335 117.43 39.7041C117.43 40.0557 117.327 40.334 117.122 40.5391C116.923 40.7383 116.642 40.8379 116.278 40.8379C115.903 40.8379 115.613 40.7383 115.408 40.5391C115.209 40.334 115.109 40.0557 115.109 39.7041ZM128.812 52H126.737V46.0234C126.737 45.2734 126.585 44.7139 126.28 44.3447C125.981 43.9756 125.504 43.791 124.848 43.791C123.975 43.791 123.336 44.0488 122.932 44.5645C122.527 45.0801 122.325 45.9443 122.325 47.1572V52H120.26V42.2793H121.877L122.167 43.5537H122.272C122.565 43.0908 122.981 42.7334 123.521 42.4814C124.06 42.2295 124.657 42.1035 125.313 42.1035C127.646 42.1035 128.812 43.29 128.812 45.6631V52ZM133.681 46.8672L134.85 45.4082L137.785 42.2793H140.167L136.256 46.4541L140.413 52H137.987L134.867 47.7373L133.733 48.6689V52H131.686V38.3242H133.733V44.9951L133.628 46.8672H133.681ZM146.231 52.1758C144.72 52.1758 143.536 51.7363 142.681 50.8574C141.831 49.9727 141.406 48.7568 141.406 47.21C141.406 45.6221 141.802 44.374 142.593 43.4658C143.384 42.5576 144.471 42.1035 145.854 42.1035C147.137 42.1035 148.15 42.4932 148.895 43.2725C149.639 44.0518 150.011 45.124 150.011 46.4893V47.6055H143.533C143.562 48.5488 143.817 49.2754 144.298 49.7852C144.778 50.2891 145.455 50.541 146.328 50.541C146.902 50.541 147.436 50.4883 147.928 50.3828C148.426 50.2715 148.959 50.0898 149.527 49.8379V51.5166C149.023 51.7568 148.514 51.9268 147.998 52.0264C147.482 52.126 146.894 52.1758 146.231 52.1758ZM145.854 43.668C145.197 43.668 144.67 43.876 144.271 44.292C143.879 44.708 143.645 45.3145 143.568 46.1113H147.98C147.969 45.3086 147.775 44.7021 147.4 44.292C147.025 43.876 146.51 43.668 145.854 43.668ZM155.636 52.1758C154.423 52.1758 153.477 51.7363 152.797 50.8574C152.117 49.9785 151.777 48.7451 151.777 47.1572C151.777 45.5635 152.12 44.3242 152.806 43.4395C153.497 42.5488 154.452 42.1035 155.671 42.1035C156.948 42.1035 157.921 42.5752 158.589 43.5186H158.694C158.595 42.8213 158.545 42.2705 158.545 41.8662V38.3242H160.619V52H159.002L158.642 50.7256H158.545C157.883 51.6924 156.913 52.1758 155.636 52.1758ZM156.189 50.5059C157.039 50.5059 157.657 50.2686 158.044 49.7939C158.431 49.3135 158.63 48.5371 158.642 47.4648V47.1748C158.642 45.9502 158.442 45.0801 158.044 44.5645C157.646 44.0488 157.021 43.791 156.172 43.791C155.445 43.791 154.886 44.0869 154.493 44.6787C154.101 45.2646 153.904 46.1025 153.904 47.1924C153.904 48.2705 154.095 49.0938 154.476 49.6621C154.856 50.2246 155.428 50.5059 156.189 50.5059ZM163.792 52V39.1504H165.893V52H163.792ZM177.626 52H175.552V46.0234C175.552 45.2734 175.399 44.7139 175.095 44.3447C174.796 43.9756 174.318 43.791 173.662 43.791C172.789 43.791 172.15 44.0488 171.746 44.5645C171.342 45.0801 171.14 45.9443 171.14 47.1572V52H169.074V42.2793H170.691L170.981 43.5537H171.087C171.38 43.0908 171.796 42.7334 172.335 42.4814C172.874 42.2295 173.472 42.1035 174.128 42.1035C176.46 42.1035 177.626 43.29 177.626 45.6631V52Z" fill="white"></path>
  </g>
  <defs>
    <filter id="filter0_dd_927_1495" x="0" y="0" width="240" height="90" filterUnits="userSpaceOnUse" color-interpolation-filters="sRGB">
      <feFlood flood-opacity="0" result="BackgroundImageFix"></feFlood>
      <feColorMatrix in="SourceAlpha" type="matrix" values="0 0 0 0 0 0 0 0 0 0 0 0 0 0 0 0 0 0 127 0" result="hardAlpha"></feColorMatrix>
      <feOffset dx="5" dy="5"></feOffset>
      <feGaussianBlur stdDeviation="7.5"></feGaussianBlur>
      <feComposite in2="hardAlpha" operator="out"></feComposite>
      <feColorMatrix type="matrix" values="0 0 0 0 0 0 0 0 0 0 0 0 0 0 0 0 0 0 0.25 0"></feColorMatrix>
      <feBlend mode="normal" in2="BackgroundImageFix" result="effect1_dropShadow_927_1495"></feBlend>
      <feColorMatrix in="SourceAlpha" type="matrix" values="0 0 0 0 0 0 0 0 0 0 0 0 0 0 0 0 0 0 127 0" result="hardAlpha"></feColorMatrix>
      <feOffset dx="-5" dy="-5"></feOffset>
      <feGaussianBlur stdDeviation="7.5"></feGaussianBlur>
      <feComposite in2="hardAlpha" operator="out"></feComposite>
      <feColorMatrix type="matrix" values="0 0 0 0 1 0 0 0 0 1 0 0 0 0 1 0 0 0 0.25 0"></feColorMatrix>
      <feBlend mode="normal" in2="effect1_dropShadow_927_1495" result="effect2_dropShadow_927_1495"></feBlend>
      <feBlend mode="normal" in="SourceGraphic" in2="effect2_dropShadow_927_1495" result="shape"></feBlend>
    </filter>
    <clipPath id="clip0_927_1495">
      <rect width="28" height="28" fill="white" transform="translate(61 30)"></rect>
    </clipPath>
  </defs>
</svg>
