<svg width="676" height="264" viewBox="0 0 779 337" fill="none" xmlns="http://www.w3.org/2000/svg">
<path opacity="0.7" d="M118.798 66.6761C210.864 -86.8939 544.442 80.6001 681.283 51.3219C818.125 22.0437 804.701 248.273 681.284 290.095C393.406 387.647 392.036 304.039 130.7 290.095C-130.636 276.151 75.1761 139.44 118.798 66.6761Z" fill="#E9EDFB"/>
<g filter="url(#filter0_d)">
<path d="M137.04 199.541H77.5085V186.65L104.93 157.822C111.688 150.127 115.067 144.014 115.067 139.482C115.067 135.811 114.266 133.018 112.665 131.104C111.063 129.189 108.739 128.232 105.692 128.232C102.684 128.232 100.243 129.521 98.3679 132.1C96.4929 134.639 95.5554 137.822 95.5554 141.65H75.7507C75.7507 136.416 77.0593 131.592 79.6765 127.178C82.2936 122.725 85.9265 119.248 90.5749 116.748C95.2233 114.248 100.419 112.998 106.161 112.998C115.38 112.998 122.469 115.127 127.43 119.385C132.43 123.643 134.93 129.756 134.93 137.725C134.93 141.084 134.305 144.365 133.055 147.568C131.805 150.732 129.852 154.072 127.196 157.588C124.579 161.064 120.341 165.732 114.481 171.592L103.466 184.307H137.04V199.541Z" fill="#C1EEED"/>
<path d="M137.04 199.541V201.541H139.04V199.541H137.04ZM77.5085 199.541H75.5085V201.541H77.5085V199.541ZM77.5085 186.65L76.0594 185.272L75.5085 185.851V186.65H77.5085ZM104.93 157.822L106.379 159.201L106.407 159.172L106.433 159.142L104.93 157.822ZM98.3679 132.1L99.9767 133.288L99.9811 133.282L99.9853 133.276L98.3679 132.1ZM95.5554 141.65V143.65H97.5554V141.65H95.5554ZM75.7507 141.65H73.7507V143.65H75.7507V141.65ZM79.6765 127.178L81.3968 128.198L81.4007 128.191L79.6765 127.178ZM127.43 119.385L126.128 120.902L126.134 120.907L127.43 119.385ZM133.055 147.568L134.915 148.303L134.919 148.295L133.055 147.568ZM127.196 157.588L125.6 156.382L125.598 156.385L127.196 157.588ZM114.481 171.592L113.067 170.178L113.016 170.228L112.97 170.282L114.481 171.592ZM103.466 184.307L101.954 182.997L99.0866 186.307H103.466V184.307ZM137.04 184.307H139.04V182.307H137.04V184.307ZM137.04 197.541H77.5085V201.541H137.04V197.541ZM79.5085 199.541V186.65H75.5085V199.541H79.5085ZM78.9576 188.029L106.379 159.201L103.481 156.444L76.0594 185.272L78.9576 188.029ZM106.433 159.142C109.867 155.231 112.5 151.659 114.283 148.433C116.056 145.227 117.067 142.222 117.067 139.482H113.067C113.067 141.275 112.389 143.592 110.782 146.498C109.187 149.386 106.751 152.718 103.428 156.503L106.433 159.142ZM117.067 139.482C117.067 135.556 116.215 132.23 114.199 129.82L111.131 132.387C112.317 133.805 113.067 136.065 113.067 139.482H117.067ZM114.199 129.82C112.134 127.352 109.188 126.232 105.692 126.232V130.232C108.29 130.232 109.993 131.027 111.131 132.387L114.199 129.82ZM105.692 126.232C102.001 126.232 98.9753 127.864 96.7504 130.923L99.9853 133.276C101.51 131.179 103.368 130.232 105.692 130.232V126.232ZM96.759 130.912C94.5797 133.863 93.5554 137.488 93.5554 141.65H97.5554C97.5554 138.157 98.406 135.415 99.9767 133.288L96.759 130.912ZM95.5554 139.65H75.7507V143.65H95.5554V139.65ZM77.7507 141.65C77.7507 136.767 78.9665 132.297 81.3968 128.198L77.9561 126.158C75.1521 130.887 73.7507 136.065 73.7507 141.65H77.7507ZM81.4007 128.191C83.8281 124.061 87.1889 120.84 91.5222 118.509L89.6276 114.987C84.664 117.656 80.7592 121.388 77.9522 126.164L81.4007 128.191ZM91.5222 118.509C95.8543 116.18 100.719 114.998 106.161 114.998V110.998C100.118 110.998 94.5924 112.316 89.6276 114.987L91.5222 118.509ZM106.161 114.998C115.096 114.998 121.654 117.062 126.128 120.902L128.733 117.867C123.285 113.191 115.663 110.998 106.161 110.998V114.998ZM126.134 120.907C130.593 124.705 132.93 130.205 132.93 137.725H136.93C136.93 129.307 134.268 122.581 128.727 117.862L126.134 120.907ZM132.93 137.725C132.93 140.829 132.354 143.864 131.192 146.841L134.919 148.295C136.257 144.866 136.93 141.339 136.93 137.725H132.93ZM131.195 146.834C130.028 149.788 128.178 152.971 125.6 156.382L128.792 158.794C131.527 155.174 133.583 151.676 134.915 148.303L131.195 146.834ZM125.598 156.385C123.067 159.748 118.908 164.337 113.067 170.178L115.895 173.006C121.773 167.128 126.091 162.381 128.794 158.791L125.598 156.385ZM112.97 170.282L101.954 182.997L104.977 185.616L115.993 172.901L112.97 170.282ZM103.466 186.307H137.04V182.307H103.466V186.307ZM135.04 184.307V199.541H139.04V184.307H135.04Z" fill="#C1EEED"/>
</g>
<defs>
<filter id="filter0_d" x="67.7507" y="104.998" width="85.2891" height="110.543" filterUnits="userSpaceOnUse" color-interpolation-filters="sRGB">
<feFlood flood-opacity="0" result="BackgroundImageFix"/>
<feColorMatrix in="SourceAlpha" type="matrix" values="0 0 0 0 0 0 0 0 0 0 0 0 0 0 0 0 0 0 127 0"/>
<feOffset dx="4" dy="4"/>
<feGaussianBlur stdDeviation="5"/>
<feColorMatrix type="matrix" values="0 0 0 0 0 0 0 0 0 0 0 0 0 0 0 0 0 0 0.25 0"/>
<feBlend mode="normal" in2="BackgroundImageFix" result="effect1_dropShadow"/>
<feBlend mode="normal" in="SourceGraphic" in2="effect1_dropShadow" result="shape"/>
</filter>
</defs>
</svg>
