<?xml version="1.0" standalone="no"?>
<!DOCTYPE svg PUBLIC "-//W3C//DTD SVG 20010904//EN"
 "http://www.w3.org/TR/2001/REC-SVG-20010904/DTD/svg10.dtd">
<svg version="1.0" xmlns="http://www.w3.org/2000/svg"
 width="256.000000pt" height="256.000000pt" viewBox="0 0 256.000000 256.000000"
 preserveAspectRatio="xMidYMid meet">
<g transform="translate(0.000000,256.000000) scale(0.100000,-0.100000)"
fill="#000000" stroke="none">
<path d="M2306 2309 c-16 -5 -33 -6 -38 -3 -4 3 -8 -1 -8 -8 0 -9 -3 -9 -10 2
-9 13 -10 13 -10 0 0 -12 -2 -13 -9 -1 -7 11 -9 11 -13 0 -4 -11 -9 -12 -26
-2 -17 10 -20 10 -16 0 6 -16 -35 -20 -53 -5 -10 8 -12 7 -7 -6 4 -11 1 -16
-12 -17 -11 0 -27 -2 -37 -4 -14 -3 -17 1 -13 13 3 10 -1 7 -10 -5 -17 -24
-41 -33 -28 -10 6 9 5 9 -7 0 -8 -6 -27 -13 -41 -15 -15 -2 -30 -7 -34 -11 -4
-3 -16 -2 -27 4 -14 8 -18 8 -13 0 4 -6 0 -11 -8 -11 -9 0 -16 -4 -16 -10 0
-5 -13 -10 -28 -10 -15 0 -33 -5 -40 -12 -7 -7 -12 -8 -12 -4 0 5 -7 3 -15 -4
-8 -7 -15 -9 -15 -5 0 4 -6 2 -14 -4 -8 -7 -25 -14 -37 -16 -13 -3 -25 -9 -27
-15 -2 -5 -8 -10 -13 -10 -6 0 -7 6 -4 13 4 6 -3 1 -14 -12 -19 -21 -26 -20
-22 2 1 5 -3 6 -9 2 -6 -3 -8 -10 -5 -14 4 -7 -45 -35 -54 -31 -2 1 -7 -3 -10
-8 -3 -6 -13 -12 -21 -14 -8 -2 -19 -8 -25 -15 -16 -18 -102 -63 -109 -56 -3
4 -6 -2 -6 -12 0 -10 -3 -16 -6 -12 -3 3 -19 -7 -36 -21 -17 -15 -34 -26 -38
-25 -5 1 -19 -9 -32 -22 -24 -25 -45 -34 -32 -13 4 7 3 8 -4 4 -6 -4 -8 -14
-5 -23 5 -13 2 -15 -11 -10 -14 6 -17 3 -12 -8 4 -10 2 -14 -5 -9 -6 3 -32
-14 -57 -38 -26 -24 -60 -50 -75 -58 -16 -8 -26 -19 -22 -27 3 -8 0 -11 -6 -8
-5 4 -25 -9 -44 -29 -36 -38 -48 -45 -39 -22 3 8 1 17 -4 20 -5 3 -8 -5 -7
-19 3 -25 -27 -61 -43 -51 -5 3 -9 -2 -8 -11 0 -10 -6 -18 -14 -18 -8 -1 -14
-7 -12 -14 1 -7 -2 -10 -7 -7 -5 3 -11 -1 -15 -9 -5 -15 -47 -21 -60 -8 -6 7
-29 13 -53 15 -7 1 -13 5 -13 9 0 4 -7 10 -16 13 -8 3 -12 2 -9 -4 3 -6 2 -10
-4 -10 -5 0 -15 8 -20 18 -8 13 -11 14 -11 2 0 -12 -4 -10 -15 4 -8 11 -15 14
-15 7 0 -7 -5 -9 -12 -5 -6 4 -21 8 -32 10 -12 2 -39 8 -61 14 -22 6 -47 12
-54 14 -8 1 -17 8 -19 14 -2 8 -8 7 -19 -3 -8 -8 -20 -12 -26 -8 -14 9 -33 14
-64 17 -13 1 -26 5 -29 9 -3 3 -12 3 -20 0 -7 -3 -27 0 -44 5 -21 8 -30 8 -30
0 0 -5 -7 -8 -15 -4 -8 3 -15 0 -15 -7 0 -8 -4 -6 -10 3 -6 9 -10 11 -10 3 0
-7 -7 -10 -17 -6 -12 5 -14 3 -8 -8 7 -11 5 -11 -10 1 -10 8 -16 10 -13 4 4
-5 -6 -23 -22 -38 -16 -15 -29 -30 -29 -34 3 -21 -2 -32 -13 -26 -7 5 -8 3 -2
-7 4 -8 8 -24 9 -36 0 -12 8 -32 17 -43 10 -11 15 -20 13 -20 -3 0 0 -6 7 -14
7 -8 17 -13 23 -13 5 1 10 -4 11 -10 1 -7 2 -18 3 -23 0 -6 5 -9 9 -8 5 2 21
-12 36 -30 15 -17 31 -30 36 -27 10 6 32 -20 23 -29 -4 -4 2 -9 14 -12 11 -3
25 -16 32 -30 6 -13 25 -31 43 -39 18 -8 24 -13 14 -10 -16 5 -17 3 -6 -10 7
-8 18 -15 25 -15 7 0 19 -8 26 -18 13 -15 12 -16 -4 -3 -15 12 -17 12 -11 -3
3 -9 15 -16 25 -16 24 0 24 -11 2 -31 -10 -9 -34 -33 -53 -55 -33 -36 -35 -41
-23 -64 7 -14 13 -18 13 -10 0 8 10 1 22 -17 13 -18 31 -34 42 -37 13 -3 17
-11 14 -24 -4 -16 -1 -18 16 -14 11 3 18 1 14 -3 -4 -4 0 -14 9 -20 16 -12 16
-14 1 -29 -22 -21 -28 -20 -23 5 3 12 1 18 -3 15 -4 -4 -8 -16 -8 -27 -2 -34
-4 -37 -20 -43 -8 -3 -22 1 -31 9 -14 14 -17 13 -34 -6 -10 -12 -16 -26 -12
-32 3 -6 1 -7 -5 -3 -6 3 -15 -1 -20 -10 -8 -15 -10 -15 -15 0 -5 12 -3 15 6
10 7 -4 9 -3 4 2 -5 5 -14 9 -20 9 -7 1 -11 6 -9 13 1 7 -1 11 -5 11 -21 -3
-24 3 -12 19 10 13 8 12 -9 -3 l-24 -20 184 -179 c101 -98 238 -233 305 -299
91 -89 127 -118 139 -113 15 6 11 13 -22 47 l-38 39 27 26 28 25 -23 19 -22
18 27 -3 c15 -2 29 1 32 5 3 5 -4 7 -15 5 -14 -3 -20 0 -17 8 3 7 10 11 16 9
6 -1 11 4 11 11 0 8 10 22 22 33 12 10 18 14 15 7 -4 -6 -3 -14 3 -18 5 -3 10
0 10 7 0 10 3 9 9 -2 6 -8 7 -18 5 -22 -3 -5 -2 -8 3 -7 20 3 34 -2 28 -11 -3
-5 1 -10 10 -10 8 0 20 -11 25 -25 5 -14 12 -25 15 -25 4 0 3 6 -1 13 -5 6 6
-1 23 -17 18 -17 30 -33 27 -37 -10 -18 38 2 59 23 12 13 41 41 64 62 l42 39
75 -73 c41 -40 72 -78 69 -83 -3 -6 -1 -7 5 -3 6 3 47 -29 94 -74 l83 -80 56
2 c32 2 55 6 52 11 -2 4 1 7 7 7 24 0 71 69 76 113 1 9 3 20 4 25 1 4 1 12 0
17 -1 6 -4 21 -5 35 -2 14 -4 25 -5 25 -1 0 -3 16 -4 35 -1 19 -5 41 -10 49
-7 11 -6 12 5 6 12 -8 12 -6 0 8 -7 9 -10 17 -6 17 4 0 1 8 -6 17 -12 15 -12
16 5 9 19 -7 19 -6 1 14 -10 11 -15 20 -10 20 4 0 2 7 -5 15 -7 8 -10 22 -6
30 3 8 1 15 -5 15 -6 0 -7 5 -4 10 3 6 0 10 -7 10 -10 0 -10 2 1 9 9 6 9 10 2
12 -6 2 -12 18 -14 35 -2 17 -8 37 -12 44 -4 7 -9 20 -10 29 -1 9 -7 29 -14
45 -15 36 -21 87 -10 80 5 -3 17 9 27 25 10 17 22 28 25 24 4 -3 7 0 7 8 0 8
18 33 40 55 21 23 36 45 32 49 -4 5 1 5 10 2 11 -4 15 -2 12 7 -3 7 9 25 27
40 17 15 29 30 25 33 -3 3 10 21 29 39 19 18 35 35 35 39 0 13 68 103 74 98 3
-4 6 3 6 15 0 11 3 22 8 24 4 2 15 17 24 33 10 17 24 29 33 29 11 -2 13 1 5
11 -7 9 -3 20 15 39 27 29 32 41 13 30 -7 -4 -6 1 2 12 9 10 22 31 30 47 7 15
17 27 21 27 4 0 10 16 13 35 4 19 10 35 14 35 4 0 13 9 20 21 8 12 9 18 4 15
-6 -3 -5 5 1 18 7 13 15 22 19 20 4 -3 5 2 2 10 -3 9 -1 16 5 16 6 0 10 3 10
8 -4 21 2 42 10 38 5 -4 7 3 4 13 -3 11 2 34 10 50 11 22 12 31 4 31 -7 1 -5
6 4 13 9 7 16 14 17 17 7 56 36 155 46 162 7 5 6 8 -3 8 -10 0 -11 3 -2 13 6
8 8 17 4 20 -3 4 2 10 11 13 10 4 13 10 8 13 -7 4 -6 23 2 54 7 26 15 45 18
42 3 -3 3 6 1 20 -3 14 -1 25 3 25 5 0 10 15 10 33 1 36 -4 38 -50 26z m-738
-610 c23 -7 47 -18 53 -26 6 -7 17 -13 23 -13 7 0 23 -11 36 -25 13 -14 20
-25 17 -25 -4 0 3 -12 16 -26 12 -14 22 -29 22 -32 0 -4 3 -11 6 -17 19 -31
27 -111 15 -160 -9 -41 -47 -115 -58 -115 -5 0 -7 -3 -5 -7 2 -5 -8 -19 -21
-33 -14 -14 -21 -18 -17 -10 5 9 -1 7 -16 -5 -45 -39 -93 -55 -165 -56 -61 0
-90 6 -121 27 -18 11 -23 12 -18 3 8 -14 -29 16 -76 61 -27 26 -60 81 -68 115
-6 25 -6 124 0 150 9 35 40 89 73 123 73 79 189 106 304 71z m-1357 -336 c13
-16 12 -17 -3 -4 -10 7 -18 15 -18 17 0 8 8 3 21 -13z m795 -404 c19 -19 30
-37 27 -47 -3 -10 -31 -39 -63 -67 -31 -27 -65 -62 -75 -77 -11 -15 -24 -26
-30 -25 -5 1 -9 -4 -8 -10 2 -7 -3 -12 -10 -10 -6 1 -11 -4 -10 -10 2 -7 -3
-13 -10 -13 -6 0 -41 -31 -77 -68 -61 -62 -62 -64 -10 -17 l55 50 -55 -57
c-32 -35 -63 -58 -75 -58 -23 0 -82 57 -81 77 1 18 358 362 376 363 8 0 28
-14 46 -31z"/>
<path d="M1395 1615 c-37 -14 -105 -70 -103 -84 1 -3 -4 -19 -11 -36 -17 -40
-15 -102 3 -147 16 -37 93 -111 107 -103 4 3 10 1 14 -5 4 -6 10 -8 15 -5 5 3
11 2 14 -3 9 -15 90 -2 136 22 133 69 144 255 20 340 -51 35 -134 44 -195 21z"/>
<path d="M1550 2162 c0 -5 7 -9 15 -9 8 0 12 4 9 9 -3 4 -9 8 -15 8 -5 0 -9
-4 -9 -8z"/>
<path d="M1476 2113 c-6 -14 -5 -15 5 -6 7 7 10 15 7 18 -3 3 -9 -2 -12 -12z"/>
<path d="M1210 1976 c0 -2 8 -10 18 -17 15 -13 16 -12 3 4 -13 16 -21 21 -21
13z"/>
<path d="M1050 1779 c0 -5 5 -7 10 -4 6 3 10 8 10 11 0 2 -4 4 -10 4 -5 0 -10
-5 -10 -11z"/>
<path d="M260 1726 c0 -2 8 -10 18 -17 15 -13 16 -12 3 4 -13 16 -21 21 -21
13z"/>
<path d="M390 1686 c0 -2 7 -7 16 -10 8 -3 12 -2 9 4 -6 10 -25 14 -25 6z"/>
<path d="M794 1622 c4 -3 14 -7 22 -8 9 -1 13 0 10 4 -4 3 -14 7 -22 8 -9 1
-13 0 -10 -4z"/>
<path d="M336 1187 c3 -10 9 -15 12 -12 3 3 0 11 -7 18 -10 9 -11 8 -5 -6z"/>
<path d="M375 860 c3 -5 8 -10 11 -10 2 0 4 5 4 10 0 6 -5 10 -11 10 -5 0 -7
-4 -4 -10z"/>
<path d="M875 429 c-4 -6 -5 -12 -2 -15 2 -3 7 2 10 11 7 17 1 20 -8 4z"/>
</g>
</svg>
