<?xml version="1.0" encoding="utf-8"?>
<!-- Generator: Adobe Illustrator 22.1.0, SVG Export Plug-In . SVG Version: 6.00 Build 0)  -->
<svg version="1.1" id="Layer_1" xmlns="http://www.w3.org/2000/svg" xmlns:xlink="http://www.w3.org/1999/xlink" x="0px" y="0px"
	 viewBox="0 0 935.2 695.8" style="enable-background:new 0 0 935.2 695.8;" xml:space="preserve">
<style type="text/css">
	.st0{fill:#F8F8FF;}
	.st1{fill:#F5F5FC;}
	.st2{fill:#E9EDFB;}
	.st3{fill:#FFFFFF;}
	.st4{fill:#E9EDFA;}
	.st5{fill:#BAC5F4;}
	.st6{fill:#A2B7ED;}
	.st7{fill:#E9EDFC;}
	.st8{fill:#BAC4F6;}
	.st9{fill:none;stroke:#FFFFFF;stroke-width:0.75;stroke-linecap:round;stroke-miterlimit:10;}
	.st10{fill:#4B49BB;}
	.st11{fill:url(#SVGID_1_);}
	.st12{fill:url(#SVGID_2_);}
	.st13{fill:url(#SVGID_3_);}
	.st14{fill:url(#SVGID_4_);}
	.st15{opacity:7.000000e-02;enable-background:new    ;}
	.st16{fill:url(#SVGID_5_);}
	.st17{fill:url(#SVGID_6_);}
	.st18{fill:url(#SVGID_7_);}
	.st19{fill:url(#SVGID_8_);}
	.st20{fill:url(#SVGID_9_);}
	.st21{fill:url(#SVGID_10_);}
	.st22{fill:url(#SVGID_11_);}
	.st23{fill:url(#SVGID_12_);}
	.st24{fill:url(#SVGID_13_);}
	.st25{fill:url(#SVGID_14_);}
	.st26{fill:url(#SVGID_15_);}
	.st27{fill:url(#SVGID_16_);}
	.st28{fill:url(#SVGID_17_);}
	.st29{opacity:0.1;enable-background:new    ;}
	.st30{fill:url(#SVGID_18_);}
	.st31{fill:url(#SVGID_19_);}
	.st32{fill:url(#SVGID_20_);}
	.st33{fill:url(#SVGID_21_);}
	.st34{fill:url(#SVGID_22_);}
	.st35{fill:#F3F3F3;}
	.st36{fill:url(#SVGID_23_);}
	.st37{fill:#FCFCFC;}
	.st38{fill:#58CAEA;}
	.st39{fill:url(#SVGID_24_);}
	.st40{fill:url(#SVGID_25_);}
	.st41{fill:url(#SVGID_26_);}
	.st42{fill:url(#SVGID_27_);}
	.st43{fill:url(#SVGID_28_);}
</style>
<title>bg6</title>
<g id="bg">
	<path class="st0" d="M14.3,307.9c0,0-80.3-258.3,139.1-271.3s178.9,55.3,373.7,13.1s198.1-71.3,299.5-29.2s108,150.7,86.8,205.9
		s-63.8,98.9-60.6,129.7s72.1,110,81.2,163.5c5,29.2-9.5,79-23.1,81.1c-100.9,16.1-506.3-10.4-506.3-10.4l-235.3-10.4L43.5,562.7
		c0,0,4.3-72.2,3.9-129.3C47,374.8,14.3,307.9,14.3,307.9z"/>
	<path class="st1" d="M44,554.8c0,0-27.4,113.4,123.1,105.7s148.8-24.4,243.8,5.1s154.2,41.2,227.6,18s75.3-19.3,168.5-19.3
		s125.1-99.4,127.5-113c2.9-16-3.8-68.5-17.2-68.6c-98.5-1.2-708.6-6.3-756.7,7c-41.3,11.4-91,49.4-114.9,59.5"/>
</g>
<g id="window">
	<path class="st2" d="M62,455.2l93-38l1.6-380.4c0,0-68.6,4.4-95.6,30.4L62,455.2z"/>
	<path class="st2" d="M61,67.2l2.3,387.5L47,461.5c0,0,2.3-17.6-1.7-55.9C41.6,369.9,3.8,283.3,1,250.2
		c-2-23.5-0.9-119.2,22.5-147.6C45.1,76.5,61,67.2,61,67.2z"/>
	
		<ellipse transform="matrix(0.9852 -0.1716 0.1716 0.9852 -27.0138 21.0838)" class="st3" cx="108.5" cy="166.8" rx="19.5" ry="13.5"/>
	
		<ellipse transform="matrix(0.9852 -0.1716 0.1716 0.9852 -25.9871 24.8161)" class="st3" cx="130.6" cy="162.7" rx="15.9" ry="11"/>
	
		<ellipse transform="matrix(0.9852 -0.1716 0.1716 0.9852 -36.3823 6.6795)" class="st3" cx="20.4" cy="213.8" rx="19.5" ry="13.5"/>
	<ellipse transform="matrix(0.9852 -0.1716 0.1716 0.9852 -34.3711 9.8089)" class="st3" cx="39.6" cy="203.7" rx="15.9" ry="11"/>
	<path class="st3" d="M68.9,61l4.7-2.6l0.2-0.1l2.9-1.5l2.8-1.3L84.2,446l-9.8,4.1L68.9,61z"/>
	<path class="st3" d="M33.1,357.2l-1.1-3.7c-0.2,0.1-0.8-2.7-0.9-2.7l-1.3-3l-1.1-3.3l126.9-47.9l0.4,10.7L33.1,357.2z"/>
	<path class="st3" d="M2.2,258.5l-0.4-2.1c-0.2-0.6-0.5-3.1-0.7-3.7l-0.5-4.1l-0.5-3l156.5-59.8l-0.5,10.5L2.2,258.5z"/>
</g>
<g id="seat">
	<path class="st4" d="M425.4,400.1c3.4-4.4,5.6-9.5,6.4-15c0.9-6.7,3.3-15.1,9.4-20.9c9.3-8.8,10.6-46,10.8-59.8
		c0.1-5.2,0.9-10.4,2.4-15.3c2.8-8.7,8.4-20.8,19.4-26.6c11.2-5.9,47-8.4,57.4,0.3c21.3,17.7,18.3,41,18.6,44.7
		c1.6,17.4,0.6,30.1,9.5,41.1s18.9,24.3,16.3,37.8s20.7,33.5-4.8,41.8s-51.6,14.1-80,11.8c-25.2-2-59.6-6.1-66.4-22.8
		C421.2,409,422.9,403.5,425.4,400.1z"/>
	<path class="st5" d="M431.8,398c1.2-1.7,2.7-4.2,5.4-5.6s8.2-5.2,35.1,5.8c38.4,15.8,70-3.5,73-3.9s30.1-8.9,29.4,8.9
		s-32.8,27.4-42.5,27.8s-50.1,4.3-70-1.5s-27.5-13.4-28.9-15.3C431.8,412.1,426.8,405.1,431.8,398z"/>
	<path class="st6" d="M434.4,527.2h1.9c3.4,0.1,6.3-2.7,6.3-6.1c0-0.1,0-0.1,0-0.2l-0.2-9c0-1-0.7-1.9-1.6-2.3l-0.6-0.3
		c-1.3-0.5-2-2-1.4-3.3c0.2-0.5,0.5-0.9,0.9-1.1c0.4-0.3,0.9-0.5,1.3-0.7c4.2-1.6,13.1-6.7,36.5-9.1c12.8-1.3,19.3-1.7,22.7-1.8
		c1.4-0.1,2.5-1.2,2.5-2.7c0-0.2,0-0.4-0.1-0.6l0,0c-0.3-1.2-1.5-2-2.8-1.8c-8.2,1-37.4,4.5-47,6.8c-5.6,1.4-11,3.7-16,6.7
		c-1.9,1.2-3.2,3.2-3.4,5.5c-0.1,0.8-0.5,1.5-1.1,1.9c-1,0.7-2,1.2-3.1,1.6c-1.6,0.5-1.6,6-1.2,10.6
		C428.1,524.5,430.9,527.1,434.4,527.2z"/>
	<path class="st6" d="M576.1,527.2h-1.4c-3.7,0.1-6.8-2.9-6.8-6.6c0-0.1,0-0.2,0-0.3l0.2-8.5c0-1,0.6-1.9,1.6-2.3l0.6-0.3
		c1.3-0.5,2-2,1.4-3.3c-0.2-0.4-0.5-0.8-0.9-1.1c-0.4-0.3-0.9-0.5-1.3-0.7c-4.2-1.6-13-6.7-36.2-9.1c-12.6-1.3-19.1-1.7-22.4-1.8
		c-1.4-0.1-2.5-1.2-2.5-2.7c0-0.2,0-0.4,0.1-0.6l0,0c0.3-1.2,1.5-2,2.8-1.8c8.2,1,37.1,4.5,46.5,6.8c5.6,1.4,10.9,3.7,15.8,6.7
		c1.9,1.2,3.2,3.2,3.4,5.5c0.1,0.8,0.5,1.5,1.1,1.9c0.9,0.6,1.9,1.2,3,1.6c1.6,0.5,1.5,6.1,1.2,10.7
		C582.2,524.5,579.5,527.1,576.1,527.2z"/>
	<path class="st6" d="M501.5,444.1l-0.2,75.7c0,1-0.8,1.8-1.8,1.8l0,0h-0.4c-1,0-1.8,0.8-1.8,1.8c0,0,0,0,0,0.1l0.3,12.8
		c0.1,3.1,2.6,5.7,5.8,5.7l4,0.1c3.3,0.1,6.1-2.6,6.1-5.9c0-0.1,0-0.2,0-0.4l-0.5-12.4c0-1-0.8-1.7-1.8-1.7l0,0
		c-1,0-1.8-0.8-1.8-1.8c0,0,0,0,0,0l0.2-77.6c0-1-0.8-1.8-1.8-1.8c0,0,0,0,0,0h-4.6c-1,0-1.8,0.8-1.8,1.8c0,0,0,0,0,0.1L501.5,444.1
		z"/>
	<path class="st5" d="M501.6,499c0,0-61.2,24.6-70.8,32.8s-11.2,13.3-10.8,15.5c0,0.2,0.4,0.4,0.8,0.5c2.4,0.7,4,2.9,3.9,5.3
		l-0.2,12.9c0,2-1.7,3.6-3.6,3.6H414c-2,0-3.6-1.6-3.7-3.6l-0.2-12.8c-0.1-2.7,1.9-5.1,4.6-5.5h0.1c0,0,2.4-9.7,6.1-13
		s10.2-10.7,35.8-21.9s44.8-18.2,44.8-18.2L501.6,499z"/>
	<path class="st5" d="M509.3,498.1c0,0.8,0.5,1.6,1.2,1.9c8.4,3.6,57.2,24.7,65.6,32.2c9.1,8.2,10.6,13.3,10.2,15.5
		c-0.1,0.5-1.4,0.7-2.7,0.8c-1.1,0.1-1.9,1-1.9,2.1l0.2,13.7c0,3.2,2.7,5.8,5.9,5.8h1.7c3.2,0,5.8-2.6,5.9-5.8l0.2-13.6
		c0-1-0.7-1.9-1.7-2l-1.5-0.3c-0.8-0.1-1.4-0.7-1.6-1.5c-0.7-2.7-2.7-9.2-5.5-11.8c-3.5-3.3-9.7-10.7-33.9-21.9
		c-18.6-8.5-33.5-14.6-39.4-17c-1-0.4-2.2,0-2.6,1C509.4,497.6,509.4,497.8,509.3,498.1L509.3,498.1z"/>
</g>
<g id="table">
	<polygon class="st3" points="174,556.2 175,382.2 198,382.2 198,557.2 	"/>
	<polygon class="st3" points="705,379.1 706,558.2 726,558.2 726.4,379.9 	"/>
	<polygon class="st3" points="104,361.2 104,382.2 792,380.2 792,362.2 	"/>
	<polygon class="st5" points="104,361.2 153,346.2 736,347.2 792,362.2 	"/>
	<polygon class="st0" points="416.5,355.4 428,348.4 481.1,348.1 473.1,354.9 	"/>
</g>
<g id="Flower">
	<path class="st7" d="M152,309.1c0,0-8.7-0.4-9.8,2.4s2,41,3.4,43.3s15.2,2.9,19.1,2.9c0,0,14.5-1.3,15.2-2.3s10.5-40.5,7.3-45.8
		c-3.2-5.3-34.7-0.4-34.7-0.4"/>
	<path class="st8" d="M141.5,318.1c0,0,27,2.1,30.2,1.2c3.2-0.9,2.1-9,2.1-9l13.4-0.6c0,0,0,7.8-0.9,8.7c-1,1.2-1.8,2.6-2.3,4.1
		c0,0.5-5.7,33.5-5.7,33.5s-8.7,1.3-9.8,1.2c-1.4-0.2,3.6-27.4,3.6-29.3s0-5.5-1.4-5.5s-27.8,0.8-28-2.2
		C142.6,319.5,142.1,318.7,141.5,318.1"/>
	<path class="st8" d="M152.2,310c0,0-7.5-5.3-11.5-5.8s-8.7-1-12.7-1.6s-9.1-2.4-9-4.8c0.1-2.3,0.6-3.5,2.9-4.8
		c2-1.3,4.2-2.1,6.6-2.4c1.8-0.2,19.8,4.5,27.3,15.7l3,3.7H152.2z"/>
	<path class="st8" d="M126.1,296.9c0,0,6.9-0.1,10.7,1.1c3,1.1,5.8,2.4,8.6,4l11.3,7.9"/>
	<path class="st9" d="M126.1,296.9c0,0,6.9-0.1,10.7,1.1c3,1.1,5.8,2.4,8.6,4l11.3,7.9"/>
	<path class="st8" d="M160.1,309.7c0,0-8.8-11.9-12.2-15.3c-3.4-3.4-7.4-7.2-10.7-10.7s-7.4-8.5-5.7-10.6s3-3.5,6.2-3
		c2.5,0.3,4.9,1.2,7,2.6c1.8,1.1,17.7,16.3,20,33.7l2.3,3.5L160.1,309.7z"/>
	<path class="st9" d="M139.5,277.2c0,0,6.8,4.1,9.5,8c2.5,3.7,6.5,10.2,6.5,10.2l4.5,12.5"/>
	<path class="st7" d="M164.5,310.2c0,0-10.2-22.2-12.1-26.6s-9.7-11-11.5-15.5c-1.7-4.5-2.8-7.7-1-10.2c1.8-2.5,6.5-4.5,9.5-3
		c2.8,1.4,6.5,5.6,8.1,7.7c1.3,1.7,9.6,31.8,8.9,38.8l1.6,8.9L164.5,310.2z"/>
	<path class="st9" d="M146.4,263.2c0,0,5.9,7.6,7.7,12c2,5,4,14.5,3.7,13l6.1,20.6"/>
	<path class="st7" d="M158.9,310.1c0,0-9-10.3-13.4-12.3c-4.4-2-9.4-4.2-13.7-6.4s-9.4-5.8-8.6-8c0.9-2.2,1.8-3.1,4.9-3.5
		c2.7-0.5,5.5-0.4,8.2,0.2c2,0.5,20.8,11.9,25.6,25.4l2.2,4.7L158.9,310.1z"/>
	<path class="st9" d="M131.5,285.4c0,0,7.8,2.6,11.7,5.2c2.9,2.2,5.7,4.5,8.4,7.1l8.6,12.6"/>
	<path class="st8" d="M182.4,310.3c0,0,8.2-5,12.5-5.5s9.3-0.9,13.7-1.5s9.8-2.3,9.7-4.5c-0.1-2.2-0.6-3.3-3.2-4.6
		c-2.2-1.2-4.6-2-7.1-2.3c-1.9-0.2-21.5,4.3-29.6,15l-3.3,3.5L182.4,310.3z"/>
	<path class="st8" d="M210.6,297.9c0,0-7.5-0.1-11.6,1.1c-3.2,1-6.3,2.3-9.3,3.8l-10.9,7.3"/>
	<path class="st9" d="M210.6,297.9c0,0-7.5-0.1-11.6,1.1c-3.2,1-6.3,2.3-9.3,3.8l-10.9,7.3"/>
	<path class="st8" d="M173.8,310.1c0,0,9.5-11.4,13.2-14.6s8-6.9,11.6-10.2s8-8.1,6.2-10.1s-3.2-3.3-6.7-2.9
		c-2.7,0.2-5.2,1.1-7.5,2.5c-1.9,1.1-19.1,15.6-21.6,32.2l-2.5,3.4L173.8,310.1z"/>
	<path class="st9" d="M196.1,279c0,0-7.4,3.9-10.3,7.6c-2.7,3.5-7.1,9.8-7.1,9.8l-4.9,11.9"/>
	<path class="st7" d="M169.1,310.6c0,0,11.1-21.2,13.1-25.4s10.5-10.5,12.4-14.8s3.1-7.4,1.1-9.7c-2-2.3-7.1-4.3-10.3-2.9
		c-3.1,1.3-7,5.3-8.8,7.4c-1.4,1.6-10.4,30.4-9.7,37.1l-1.7,8.5L169.1,310.6z"/>
	<path class="st8" d="M168,310.3c0,0,0.9-20.7,3-27.4c1.4-4.5,2.8-12,4.7-16.3s-1-9.8-2.9-12.2c-1.9-2.4-7-1.9-10.3-0.5
		c-3.1,1.3-4.8,5.6-5.2,7.9c-0.3,2.1,7,27,6.2,36.2l0.6,12.4L168,310.3z"/>
	<path class="st9" d="M188.6,265.7c0,0-6.3,7.2-8.3,11.5c-2.2,4.8-4.3,13.9-4,12.4l-7.2,20.2"/>
	<path class="st7" d="M175.2,310.5c0,0,9.8-9.8,14.5-11.7c4.7-1.9,10.2-4,14.8-6.1c4.6-2.1,10.2-5.5,9.3-7.6
		c-0.9-2.1-1.9-2.9-5.3-3.3c-2.9-0.4-5.9-0.4-8.8,0.2c-2.2,0.5-22.5,11.3-27.7,24.2l-2.4,4.4L175.2,310.5z"/>
	<path class="st9" d="M204.7,286.8c0,0-8.4,2.5-12.6,4.9c-3.1,2-6.2,4.3-9,6.7l-9.5,10.6"/>
	<path class="st9" d="M166,258.4c0,0,1.7,17.7,0.7,22.5c-0.4,2-0.2,14.5-0.2,14.5l-0.3,13.9"/>
</g>
<g id="computer">
	<rect x="330.1" y="250.5" class="st3" width="109.9" height="86.3"/>
	<circle class="st1" cx="382.7" cy="294.3" r="6.6"/>
	<path class="st3" d="M375.8,334.7c0,0,2.8,7.3-0.4,9.3s-22.6,9.7-22.6,9.7s-1.4,2.3,2,3c3.1,0.7,42.5,0.1,51,0
		c1.2,0.1,2.3-0.6,2.8-1.7c0.2-0.7-0.1-1.5-1.6-2c-2.6-0.9-12.2-6.2-16.4-8.4c-1.5-0.8-1.9-2.3-2.2-3.8c-0.5-2.3-0.8-4.8,0.8-5.3
		c2.5-0.8-13.3,0.2-13.3,0.2"/>
</g>
<g id="books">
	<polygon class="st4" points="292.5,241.6 578.3,241.2 577.8,193.4 276.3,195.7 276.1,241.6 	"/>
	<polygon class="st5" points="435.5,202 435.5,234.9 570,234.4 570,202.4 	"/>
	<polygon class="st5" points="291.7,202 291.7,234.9 426.2,234.4 426.2,202.4 	"/>
	<polygon class="st3" points="291.7,209.9 298.8,209.9 298.8,235 291.7,234.9 	"/>
	<polygon class="st1" points="298.9,214.3 303.6,214.3 303.8,234.9 298.8,235 	"/>
	<polygon class="st3" points="417.5,209.7 421.6,209.7 421.6,234.8 417.5,234.7 	"/>
	<polygon class="st1" points="421.7,214.1 426.4,214.1 426.6,234.7 421.6,234.8 	"/>
	<polygon class="st1" points="304,211.1 308.7,211.1 308.9,234.9 303.9,235 	"/>
	<polygon class="st3" points="308.6,216.8 311,214.9 323.3,232.7 320.6,234.9 	"/>
	<polygon class="st3" points="365.8,234.8 395.3,234.8 395.1,231.4 365.8,231.6 	"/>
	<polygon class="st4" points="370.7,231.5 400.2,231.5 400.1,228.2 370.7,228.4 	"/>
	<polygon class="st3" points="440.2,208.7 444.3,208.7 444.4,235.1 440.2,235 	"/>
	<polygon class="st1" points="444.4,214.3 449.1,214.3 449.3,234.9 444.4,235 	"/>
	<polygon class="st3" points="561,209.6 565.1,209.6 565.2,234.6 561,234.6 	"/>
	<polygon class="st1" points="565.1,213.6 570,213.6 570.2,234.4 565.2,234.5 	"/>
	<polygon class="st1" points="556.3,215.7 561,215.7 561.2,234.6 556.2,234.7 	"/>
	<polygon class="st1" points="435.4,211.1 440.2,211.1 440.3,235 435.4,235.1 	"/>
	<polygon class="st3" points="484.4,216.9 486.8,214.9 499,232.8 496.4,234.9 	"/>
	<polygon class="st3" points="464.4,234.8 493.9,234.8 493.7,231.5 464.4,231.7 	"/>
	<polygon class="st4" points="462.8,231.7 492.2,231.7 492.1,228.4 462.8,228.6 	"/>
	<polyline class="st4" points="578.1,190.9 577.8,152.6 845.8,152.6 846.4,244.2 578.3,246.4 578.1,194.4 	"/>
	<path class="st4" d="M387.2,168.7c0,0-2.6-0.9-2.8-1.5s-1.1-4.3,0.6-4.3h14.6c0,0,2.4,3.9-0.6,4.7s-0.4,2.4,0.4,2.4s2.8,0,3.2,1.1
		s0.4,23.6,0.4,23.6h-21.7v-21.9c0-1.3,1-2.3,2.3-2.4c0,0,0.1,0,0.1,0C386.1,170.4,387.8,169.8,387.2,168.7z"/>
	<rect x="384.6" y="177.4" class="st3" width="15.2" height="9.4"/>
	<path class="st5" d="M412,168.7c0,0-2.6-0.9-2.8-1.5s-1.1-4.3,0.6-4.3h14.6c0,0,2.4,3.9-0.6,4.7s-0.4,2.4,0.4,2.4s2.8,0,3.2,1.1
		s0.4,23.6,0.4,23.6h-21.7v-21.9c0-1.3,1-2.3,2.3-2.4c0,0,0.1,0,0.1,0C411,170.4,412.7,169.8,412,168.7z"/>
	<rect x="409.4" y="177.4" class="st3" width="15.2" height="9.4"/>
	<path class="st4" d="M437.6,168.4c0,0-2.6-0.9-2.8-1.5s-1.1-4.3,0.6-4.3h14.6c0,0,2.4,3.9-0.6,4.7s-0.4,2.4,0.4,2.4s2.8,0,3.2,1.1
		s0.4,23.6,0.4,23.6h-21.7v-21.9c0-1.3,1-2.3,2.3-2.4c0,0,0.1,0,0.1,0C436.5,170.1,438.3,169.5,437.6,168.4z"/>
	<rect x="435" y="177.1" class="st3" width="15.2" height="9.4"/>
	<rect x="587.3" y="161.9" class="st5" width="123.8" height="75.6"/>
	<circle class="st5" cx="724.4" cy="201.7" r="5.4"/>
	<path class="st3" d="M670,211.6c0,0-2.6-0.9-2.8-1.5s-1.1-4.3,0.6-4.3h14.6c0,0,2.4,3.9-0.6,4.7s-0.4,2.4,0.4,2.4s2.8,0,3.2,1.1
		s0.4,23.6,0.4,23.6h-21.7v-21.9c0-1.3,1-2.3,2.3-2.4c0,0,0.1,0,0.1,0C668.9,213.3,670.6,212.7,670,211.6z"/>
	<rect x="667.3" y="220.3" class="st1" width="15.2" height="9.4"/>
</g>
<g>
	<path class="st10" d="M268,567.3l-12.9,2.9c0,0-3.1,10.2-4.6,15.7c-0.1,0.3-0.4,1.3-0.6,1.9c-0.2,1-0.3,1.9-0.3,2.8
		c0.3,4.9,2.2,9.1,6.5,11.3c4.8,2.5,8.5,4.7,13.6,0c5.1-4.7,6-7.6,3.8-15.8C271.3,578,268,567.3,268,567.3z"/>
	<path class="st10" d="M343.2,584.3c-8.7-2.7-12.4-13.5-12.4-13.5l-17.5-0.9c0,0-0.4,11-0.9,17c-0.6,7.9,0.9,11.5,6.2,11
		c7.1-0.6,35.9,2,40.4-0.9C364.8,593.3,351.3,586.8,343.2,584.3z"/>
</g>
<linearGradient id="SVGID_1_" gradientUnits="userSpaceOnUse" x1="1540.1805" y1="-1238.4539" x2="1850.3466" y2="-1240.4927" gradientTransform="matrix(0.5384 0 0 -0.5384 -637.7448 -221.9141)">
	<stop  offset="0" style="stop-color:#4B45BD"/>
	<stop  offset="1" style="stop-color:#58CAEA"/>
</linearGradient>
<path class="st11" d="M240.9,319.7c0,0-6.6,9-8.6,33.3c-2.1,24.3,2.5,70.5,4.7,79.4c2.2,8.9,10.8,92.2,12.9,98.4
	c2.2,6.2,5.1,39.3,5.1,39.3l13.9,0.4c0,0,4.1-43.3,4.1-54.8s5.7-120,5.3-127.9c-0.4-7.9,1.5-5.4,1.5-5.4s12.3,38.9,15.9,45.4
	c3.6,6.5,10.1,19.1,10.1,19.1s1.5,40.7,3.2,64.2c1.8,23.5,3.6,60.6,3.6,60.6l18.7-0.4c0,0,4.3-61.9,4.3-75s3.9-44.3,3.9-47.9
	c0-3.6-12.3-67-12.3-67l-8.5-61.7L240.9,319.7z"/>
<linearGradient id="SVGID_2_" gradientUnits="userSpaceOnUse" x1="1639.5161" y1="-801.3413" x2="1868.5792" y2="-801.3413" gradientTransform="matrix(0.5384 0 0 -0.5384 -637.7448 -221.9141)">
	<stop  offset="0" style="stop-color:#F87B58"/>
	<stop  offset="0.5" style="stop-color:#F8C548"/>
	<stop  offset="1" style="stop-color:#F89C51"/>
</linearGradient>
<path class="st12" d="M248.6,149.5c0,0,8.1-31.7,14.5-34c25.1-9.3,27.6-25,38.3,19.9s40.3,96.9,52.9,112.3
	c17.3,21.1,15.9,34.7,9.7,36c-6.2,1.3-37.7,9.6-40.2,10.4c-2.5,0.8,5.1,22.6-5.5,19.6c-5.9-1.7-6.4-27.6,1-28.8
	c3-0.5,38-7.4,37.8-9.5s-27.2-39.6-27.2-39.6l-17.4-8.2l-43.2-23.2L248.6,194l-2.2-34.4l-1.5-6.7L248.6,149.5"/>
<linearGradient id="SVGID_3_" gradientUnits="userSpaceOnUse" x1="1585.0444" y1="-872.7238" x2="1880.894" y2="-872.7238" gradientTransform="matrix(0.5384 0 0 -0.5384 -637.7448 -221.9141)">
	<stop  offset="0" style="stop-color:#93DF93"/>
	<stop  offset="1" style="stop-color:#21C2C1"/>
</linearGradient>
<path class="st13" d="M243,191.9c0,0,0.2,2.5-5.7,10.9c-3.5,5.1,5.4,1.5-2.2,14.3c-12,20.3-18.6,42-19.5,55.6
	c-0.5,8.3,6.8,6.7,9.8,9.3c1.7,1.5,7.2-1,8.4-2.8l2.5-4.3c0.7-1,7.4-10.8,7.5-12c0.6-3.8,4.3-20,5.6-25.8
	c1.1-4.9,9.7-16.1,16.7-39.1c2.1-7.1,0-10,0.5-13.2c1.5-10.5-13.2-10.3-14.5-6.7c-0.3,0.9-11.5,45-12.1,50.9
	c-0.2,2,3.7,19.4,6.8,24.2c3,4.8,6.5,8.2,6.5,12.4s-2,21.5-5.1,29.1c-3.1,7.6-7.6,25.3-7.6,25.3l78.3-0.4c0,0-2.8-33.6-1.7-45.3
	c0,0,3.3-37.9,5.3-41.7c2-3.7,22.9,30.4,28.2,39.1c2.2,3.6-27.6,10-30.1,12.8s2.5,10.8,2.5,10.8s52-6.4,51.7-14.3
	c-0.3-7.9-29.7-69.1-40.2-80.7s-13.2-11.2-22.1-8c-8.8,3.1-13,6-24.9,7.9c-8.6,1.5-17.5-0.1-25.2-4.5
	C258.4,193.2,243,191.9,243,191.9z"/>
<linearGradient id="SVGID_4_" gradientUnits="userSpaceOnUse" x1="1614.7596" y1="-737.0617" x2="1806.1051" y2="-737.0617" gradientTransform="matrix(0.5384 0 0 -0.5384 -637.7448 -221.9141)">
	<stop  offset="0" style="stop-color:#4B45BD"/>
	<stop  offset="1" style="stop-color:#58CAEA"/>
</linearGradient>
<path class="st14" d="M232.3,222.1c0.9-1.3,1.8-2.5,2.5-3.9c0.7-1.3,1.2-2.1,1.5-2.6c3.8-6.5,12.5-21.3,13.9-27.7
	c0.8-2.5,1.4-5.2,1.8-7.8c0.3-1.8,0.4-3.6,0.2-5.4c-0.5-3.3-7.3-17.2-6.3-18.5c0.1-0.2,1-4.1,2.3-2.8c1.5,1.5,11.1,6.8,11.8,7.7
	c1.9,3.3,3.3,6.9,4.4,10.5c0.7,2.2,1.3,8.4,1.5,8.9c2.1,5.2-0.3,9.1-0.1,11.9c0.1,1,0.1,4.9,0.6,5.3c1.4,1,3.2,1.9,4,0.9
	c0.8-1,0.5-3.7,0.6-6.5c0.5-14.2-2.2-27.2-5.5-34.1c-3.3-6.9-11.1-20.3-5.8-28s16.4-13.8,16.9-15.8c0.5-2,0.8,7.4,6.7,10.8
	c5.9,3.3,14.1,12.3,14.1,14.1s2,8.3-3.6,19.4c-5.6,11.1-10,25.3-2.3,35.8c7.7,10.5,27.2,25.3,28.6,28.6c1.4,3.3,0,18.1-0.5,26.5
	c-0.5,8.3,15.8-14.2,15.2-25.1c-0.6-10.9,1.4-15.6-9.7-32.1s-18.3-45.2-18.6-52.1c-0.3-7-3.5-26.1-10.2-31.7
	c-6.7-5.6-7.3-10.8-25.8-8.9c0,0-15.6,0.6-20,15.8c-4.4,15.2-5.1,36.6-5.3,39.9c-0.2,3.5,1.4,25.1-0.6,31.9
	c-2,6.8-11.1,21.2-12.8,27"/>
<path class="st15" d="M262,570.2c0.1,0.3,0.1,0.6,0.1,0.9c0.1,2.2,0,7.5-2.4,11c-2.9,4.5,4,14.4,4,16.9c0,2.5-3.2,4.7-5.5,4
	s-11.7-6-7.9-17.3c1.5-4.6,2.4-8.6,3.2-11.2c0.5-1.3,0.9-2.5,1.3-3.8c0.1-0.6,0.1-1.2,0.1-1.8c-0.1-0.8-0.1-1.7-0.2-2.5
	c-0.5-4.4-19.1-141.9-19.8-147.2c-0.6-4.7-3.3-33.8-3-50.9c-0.2-1.5-0.2-2.9-0.1-4.3c0-0.4,0.2-2.1,0.1-2.7c0.1-1.6,0.2-3.1,0.4-4.7
	c-0.3-1.3-0.1-1.3,0-3.3c0.1-2.1,0-3.2,0.2-4.5c1.9-11.6,6.1-24.7,8.1-28.4l0.6-2.1c0,0,3.4-15.5,5-18.7c1.4-2.9,7.4-32,6.9-35.3
	c-0.5-3.2-6.8-11.5-6.8-11.5l0.9-4.4c0,0,2-6.5,3.9-12c1.6-4.2,6.6-15.4,8.6-20.2c3.3-7.8,4.9-10.9,5.6-16.1
	c0.5-3.9,0.9-2.3,2.6-1.5c2.5,1,2.6-0.3,2.7-2.7c0.1-7.6-0.2-15.2-0.9-22.8c-0.8-6-7-15.6-9.6-21.5c-1.6-3-2.7-6.3-3.7-9.6
	c-1.2-5.1-1.1-10.8,3.7-15.6c4.2-4.2,16.8-12.9,16.8-12.9s-5.8,11.8-3.4,15.8c3.8,6.2,2,14,2,16.8s-3,9.6-1.2,16.6
	c3.2,12.3-2.4,19.2-0.3,27.5c1.3,5.1,2.1,6.8,0.8,11.3c-1.3,4.5-13.9,38.7-7,58.6c7,19.9,10.2,34-1,46c-11.2,12-0.9,22.6-0.7,31.1
	c0.5,20.8-9.6,18.5-10.2,31.5c-0.6,12.9,2.3,22.2,2.5,29c0.5,22.2,0.2,26.7-1,35.4c-1.2,8.7-7.2,25.3-0.5,57.8
	c6.7,32.5,5.7,35.5,5,53.9S262,570.2,262,570.2z"/>
<path class="st3" d="M243.3,142.9c2.6-1.9,5.5-3.5,8.4-5c3.6-1.5,5.3,3.9,6.3,6.4s5.9,17.5,6.1,18.7c0.1,0.5-0.7,0.4-3.2,2.4
	c-0.4,0.3-1.1,0.1-1.9-1.7c-0.4-1-1.7-3.3-3.1-4.1c-0.6-0.3-9.8-3.5-9.9-2.6s2.2,6.5,3.3,9.7c0.1,0.3,1.7,3.5,1.4,4.1
	c-0.1,0.1,0.1,0,0.1,0s-1.7,0.6-2.2,0c-0.5-0.6-5.2-15.8-7-21.6c-0.4-1.3-1.3-3-0.4-3.8L243.3,142.9z"/>
<polygon class="st3" points="501.6,295.1 510.4,294.4 512.2,317.5 504.1,317.5 "/>
<linearGradient id="SVGID_5_" gradientUnits="userSpaceOnUse" x1="1083.6608" y1="-146.6654" x2="1089.0485" y2="-146.6654" gradientTransform="matrix(0.6834 0 0 -0.6834 -237.6631 199.194)">
	<stop  offset="0" style="stop-color:#4B45BD"/>
	<stop  offset="1" style="stop-color:#58CAEA"/>
</linearGradient>
<polygon class="st16" points="502.9,299.3 506.5,299 506.6,299.5 502.9,299.8 "/>
<linearGradient id="SVGID_6_" gradientUnits="userSpaceOnUse" x1="1606.8199" y1="-101.9624" x2="1612.2092" y2="-101.9624" gradientTransform="matrix(0.4403 2.010937e-02 -1.967257e-02 -0.6839 -206.5897 198.961)">
	<stop  offset="0" style="stop-color:#4B45BD"/>
	<stop  offset="1" style="stop-color:#58CAEA"/>
</linearGradient>
<polygon class="st17" points="503.1,300.9 505.5,300.7 505.5,301.3 503.2,301.4 "/>
<linearGradient id="SVGID_7_" gradientUnits="userSpaceOnUse" x1="1606.9998" y1="-104.1696" x2="1612.3857" y2="-104.1696" gradientTransform="matrix(0.4403 2.010937e-02 -1.967257e-02 -0.6839 -206.5919 198.9594)">
	<stop  offset="0" style="stop-color:#4B45BD"/>
	<stop  offset="1" style="stop-color:#58CAEA"/>
</linearGradient>
<polygon class="st18" points="503.3,302.4 505.6,302.2 505.7,302.8 503.3,303 "/>
<linearGradient id="SVGID_8_" gradientUnits="userSpaceOnUse" x1="1084.8345" y1="-156.2197" x2="1090.2222" y2="-156.2197" gradientTransform="matrix(0.6834 0 0 -0.6834 -237.6651 199.1911)">
	<stop  offset="0" style="stop-color:#4B45BD"/>
	<stop  offset="1" style="stop-color:#58CAEA"/>
</linearGradient>
<polygon class="st19" points="503.7,305.8 507.3,305.5 507.4,306.1 503.7,306.4 "/>
<linearGradient id="SVGID_9_" gradientUnits="userSpaceOnUse" x1="1607.1281" y1="-106.5924" x2="1612.5173" y2="-106.5924" gradientTransform="matrix(0.4403 2.010937e-02 -1.967257e-02 -0.6839 -206.5937 198.9682)">
	<stop  offset="0" style="stop-color:#4B45BD"/>
	<stop  offset="1" style="stop-color:#58CAEA"/>
</linearGradient>
<polygon class="st20" points="503.4,304.1 505.7,303.9 505.8,304.4 503.4,304.6 "/>
<linearGradient id="SVGID_10_" gradientUnits="userSpaceOnUse" x1="1608.1498" y1="-111.5837" x2="1613.5389" y2="-111.5837" gradientTransform="matrix(0.4403 2.010937e-02 -1.967257e-02 -0.6839 -206.5907 198.9633)">
	<stop  offset="0" style="stop-color:#4B45BD"/>
	<stop  offset="1" style="stop-color:#58CAEA"/>
</linearGradient>
<polygon class="st21" points="503.9,307.5 506.3,307.3 506.3,307.9 504,308 "/>
<linearGradient id="SVGID_11_" gradientUnits="userSpaceOnUse" x1="1608.3907" y1="-114.2962" x2="1613.7769" y2="-114.2962" gradientTransform="matrix(0.4403 2.010937e-02 -1.967257e-02 -0.6839 -206.5869 198.9616)">
	<stop  offset="0" style="stop-color:#4B45BD"/>
	<stop  offset="1" style="stop-color:#58CAEA"/>
</linearGradient>
<polygon class="st22" points="504.1,309.4 506.4,309.2 506.5,309.7 504.1,309.9 "/>
<linearGradient id="SVGID_12_" gradientUnits="userSpaceOnUse" x1="1085.7781" y1="-166.3201" x2="1091.1658" y2="-166.3201" gradientTransform="matrix(0.6834 0 0 -0.6834 -237.6637 199.1943)">
	<stop  offset="0" style="stop-color:#4B45BD"/>
	<stop  offset="1" style="stop-color:#58CAEA"/>
</linearGradient>
<polygon class="st23" points="504.3,312.7 508,312.4 508,313 504.4,313.3 "/>
<linearGradient id="SVGID_13_" gradientUnits="userSpaceOnUse" x1="1608.7106" y1="-116.7101" x2="1614.0966" y2="-116.7101" gradientTransform="matrix(0.4403 2.010937e-02 -1.967257e-02 -0.6839 -206.5903 198.9636)">
	<stop  offset="0" style="stop-color:#4B45BD"/>
	<stop  offset="1" style="stop-color:#58CAEA"/>
</linearGradient>
<polygon class="st24" points="504.3,311 506.6,310.8 506.7,311.4 504.3,311.6 "/>
<linearGradient id="SVGID_14_" gradientUnits="userSpaceOnUse" x1="1609.1919" y1="-123.6351" x2="1614.5812" y2="-123.6351" gradientTransform="matrix(0.4403 2.010937e-02 -1.967257e-02 -0.6839 -206.5903 198.968)">
	<stop  offset="0" style="stop-color:#4B45BD"/>
	<stop  offset="1" style="stop-color:#58CAEA"/>
</linearGradient>
<polygon class="st25" points="504.6,315.8 507,315.6 507,316.1 504.6,316.3 "/>
<linearGradient id="SVGID_15_" gradientUnits="userSpaceOnUse" x1="1609.0989" y1="-125.8453" x2="1614.485" y2="-125.8453" gradientTransform="matrix(0.4403 2.010937e-02 -1.967257e-02 -0.6839 -206.5904 198.9663)">
	<stop  offset="0" style="stop-color:#4B45BD"/>
	<stop  offset="1" style="stop-color:#58CAEA"/>
</linearGradient>
<polygon class="st26" points="504.6,317.3 507,317.1 507,317.6 504.6,317.8 "/>
<linearGradient id="SVGID_16_" gradientUnits="userSpaceOnUse" x1="1609.0776" y1="-121.2832" x2="1614.4669" y2="-121.2832" gradientTransform="matrix(0.4403 2.010937e-02 -1.967257e-02 -0.6839 -206.5954 198.965)">
	<stop  offset="0" style="stop-color:#4B45BD"/>
	<stop  offset="1" style="stop-color:#58CAEA"/>
</linearGradient>
<polygon class="st27" points="504.5,314.2 506.9,314 506.9,314.5 504.5,314.7 "/>
<linearGradient id="SVGID_17_" gradientUnits="userSpaceOnUse" x1="1071.0117" y1="-200.9205" x2="1110.2324" y2="-200.9205" gradientTransform="matrix(0.6834 0 0 -0.6834 -237.6611 199.1895)">
	<stop  offset="0" style="stop-color:#4B45BD"/>
	<stop  offset="1" style="stop-color:#58CAEA"/>
</linearGradient>
<path class="st28" d="M496.3,317.5H519c1.1,0,2,0.9,2,2c0,0.1,0,0.3,0,0.4l-6.8,34c-0.2,0.9-1,1.6-2,1.6h-9.7c-1,0-1.8-0.7-2-1.7
	l-6.2-34c-0.2-1.1,0.5-2.2,1.6-2.4C496,317.5,496.1,317.5,496.3,317.5z"/>
<path class="st29" d="M512.1,355.5h-8.7c0,0,6.9-1.7,8.2-10.9s8.3-23.4,9.5-25.2c0,0.2,0,0.3-0.1,0.5c-1.4,6.8-2.6,12.2-2.8,13.6
	c-0.5,3.7-2.3,8.8-3.9,19.1c0,0.1,0,0.1,0,0.3C514.2,355,513.1,355.5,512.1,355.5z"/>
<linearGradient id="SVGID_18_" gradientUnits="userSpaceOnUse" x1="793.8068" y1="119.6581" x2="809.4805" y2="119.6581" gradientTransform="matrix(0.6834 0 0 -0.6834 -50.3447 388.6447)">
	<stop  offset="0" style="stop-color:#4B45BD"/>
	<stop  offset="1" style="stop-color:#58CAEA"/>
</linearGradient>
<polygon class="st30" points="492.1,297.9 498.1,317.5 502.8,317.5 496.4,296.3 "/>
<polygon class="st3" points="492.1,291.4 492.1,297.9 496.4,296.3 493.1,290.9 "/>
<linearGradient id="SVGID_19_" gradientUnits="userSpaceOnUse" x1="793.8068" y1="143.4622" x2="795.2856" y2="143.4622" gradientTransform="matrix(0.6834 0 0 -0.6834 -50.3447 388.6447)">
	<stop  offset="0" style="stop-color:#4B45BD"/>
	<stop  offset="1" style="stop-color:#58CAEA"/>
</linearGradient>
<polygon class="st31" points="492.1,291.4 493.1,290.9 492.1,289.8 "/>
<linearGradient id="SVGID_20_" gradientUnits="userSpaceOnUse" x1="824.8881" y1="118.1614" x2="835.5734" y2="117.7057" gradientTransform="matrix(0.6834 0 0 -0.6834 -50.3447 388.6447)">
	<stop  offset="0" style="stop-color:#4B45BD"/>
	<stop  offset="1" style="stop-color:#58CAEA"/>
</linearGradient>
<polygon class="st32" points="515.6,317.5 521,299.4 515.6,298.4 512.9,317.5 "/>
<polyline class="st3" points="515.6,298.4 516.4,295.1 521.5,296.1 521,299.4 "/>
<linearGradient id="SVGID_21_" gradientUnits="userSpaceOnUse" x1="1101.3479" y1="-131.3382" x2="1117.2069" y2="-131.3382" gradientTransform="matrix(0.6834 0 0 -0.6834 -237.6611 199.1895)">
	<stop  offset="0" style="stop-color:#4B45BD"/>
	<stop  offset="1" style="stop-color:#58CAEA"/>
</linearGradient>
<path class="st33" d="M517.8,281.8c0,0,1.7,2.3-0.8,5.2c-2.5,2.9-2.6,3.6-0.6,8l5.1,1c0,0,4-0.9,4.3-4.9
	C526.1,286.9,522.4,283.4,517.8,281.8z"/>
<linearGradient id="SVGID_22_" gradientUnits="userSpaceOnUse" x1="1192.7504" y1="-4.7847" x2="1200.3274" y2="-4.7847" gradientTransform="matrix(0.6765 8.883706e-02 8.883706e-02 -0.6765 -287.0682 182.0986)">
	<stop  offset="0" style="stop-color:#FFFFFF"/>
	<stop  offset="1" style="stop-color:#FFFFFF;stop-opacity:0"/>
</linearGradient>
<path class="st34" d="M525,287.7c0,0,0,8.1-6.2,7.9"/>
<path class="st35" d="M517.8,281.8"/>
<linearGradient id="SVGID_23_" gradientUnits="userSpaceOnUse" x1="1408.9989" y1="-29.0264" x2="1419.4166" y2="-29.0264" gradientTransform="matrix(1 0 0 -1 -785.59 308.27)">
	<stop  offset="0" style="stop-color:#58CAEA"/>
	<stop  offset="1" style="stop-color:#4C4CBF"/>
</linearGradient>
<path class="st36" d="M628.9,321.9l-5.5,30.9c0,0,7.1-1.2,10.4,0L628.9,321.9"/>
<path class="st37" d="M628.9,321.9l4.9,30.9c0,0,20.9-2.6,37-0.2l-5.7-30.6L628.9,321.9"/>
<polygon class="st38" points="649.7,337.5 644.7,337.7 643.9,333.6 648.9,333.6 "/>
<polygon class="st38" points="657.8,337.3 652.7,337.4 652,333.3 656.9,333.3 "/>
<polygon class="st38" points="665.3,337.3 660.3,337.4 659.5,333.4 664.5,333.3 "/>
<polygon class="st38" points="666.4,342.8 661.3,342.9 660.6,338.9 665.5,338.8 "/>
<polygon class="st38" points="650.8,342.8 645.8,342.9 645,338.8 650,338.8 "/>
<polygon class="st38" points="643,343 637.9,343.1 637.2,339.1 642.2,339 "/>
<polygon class="st38" points="644.2,348.7 639.2,348.8 638.4,344.7 643.4,344.7 "/>
<polygon class="st38" points="652,348.6 647,348.7 646.2,344.6 651.2,344.6 "/>
<polygon class="st38" points="660,348.6 655,348.7 654.2,344.6 659.2,344.6 "/>
<linearGradient id="SVGID_24_" gradientUnits="userSpaceOnUse" x1="1425.2544" y1="-40.1187" x2="1430.9608" y2="-40.1187" gradientTransform="matrix(0.9997 -2.303631e-02 -2.303631e-02 -0.9997 -772.7857 333.578)">
	<stop  offset="0" style="stop-color:#58CAEA"/>
	<stop  offset="1" style="stop-color:#4C4CBF"/>
</linearGradient>
<polygon class="st39" points="658.8,342.8 653.7,342.9 653,338.8 657.9,338.8 "/>
<linearGradient id="SVGID_25_" gradientUnits="userSpaceOnUse" x1="628.9006" y1="371.7564" x2="666.7408" y2="371.7564" gradientTransform="matrix(1 0 0 -1 0 698)">
	<stop  offset="0" style="stop-color:#4C4FC0"/>
	<stop  offset="1" style="stop-color:#58CAEA"/>
</linearGradient>
<polygon class="st40" points="628.9,321.8 630.3,330.6 666.7,330.5 665.1,322 "/>
<linearGradient id="SVGID_26_" gradientUnits="userSpaceOnUse" x1="638.8419" y1="376.2464" x2="641.9164" y2="376.2464" gradientTransform="matrix(1 0 0 -1 0 698)">
	<stop  offset="0" style="stop-color:#4D54C2"/>
	<stop  offset="1" style="stop-color:#4C4CBF"/>
</linearGradient>
<polygon class="st41" points="638.8,319.9 641.6,319.8 641.9,323.7 639.2,323.7 "/>
<linearGradient id="SVGID_27_" gradientUnits="userSpaceOnUse" x1="656.1337" y1="376.1994" x2="658.7921" y2="376.1994" gradientTransform="matrix(1 0 0 -1 0 698)">
	<stop  offset="0" style="stop-color:#4D54C2"/>
	<stop  offset="1" style="stop-color:#4C4CBF"/>
</linearGradient>
<polygon class="st42" points="656.1,320 658.5,320 658.8,323.6 656.4,323.6 "/>
<linearGradient id="SVGID_28_" gradientUnits="userSpaceOnUse" x1="1408.9989" y1="-44.4721" x2="1408.9989" y2="-44.4721" gradientTransform="matrix(1 0 0 -1 -785.59 308.27)">
	<stop  offset="0" style="stop-color:#58CAEA"/>
	<stop  offset="1" style="stop-color:#4C4CBF"/>
</linearGradient>
<path class="st43" d="M623.4,352.7"/>
</svg>
