<svg width="1168" height="979" viewBox="0 0 1168 979" fill="none" xmlns="http://www.w3.org/2000/svg">
<path opacity="0.7" d="M58.4485 162.191C238.118 125.877 126.986 208.88 259.927 162.191C392.868 115.502 405.278 319.521 259.927 360.173C114.575 400.825 178.695 360.173 58.4485 360.173C-61.7983 360.173 -121.221 198.505 58.4485 162.191Z" fill="#D8E0F8"/>
<path opacity="0.7" d="M539.526 334.034C719.195 297.72 608.063 380.723 741.004 334.034C873.945 287.345 886.355 491.364 741.004 532.016C595.652 572.668 659.772 532.016 539.526 532.016C419.279 532.016 359.856 370.348 539.526 334.034Z" fill="#D8E0F8"/>
<path opacity="0.7" d="M87.8303 762.854C267.5 726.54 156.367 809.543 289.308 762.854C422.25 716.164 434.66 920.184 289.308 960.836C143.957 1001.49 208.077 960.836 87.8303 960.836C-32.4164 960.836 -91.839 799.167 87.8303 762.854Z" fill="#D8E0F8"/>
<path opacity="0.7" d="M958.967 650.086C1138.64 613.772 1027.5 696.775 1160.44 650.086C1293.39 603.397 1305.8 807.416 1160.44 848.068C1015.09 888.72 1079.21 848.068 958.967 848.068C838.72 848.068 779.297 686.4 958.967 650.086Z" fill="#D8E0F8"/>
<path opacity="0.7" d="M976.417 10.0274C1156.09 -26.2866 1044.95 56.7165 1177.9 10.0274C1310.84 -36.6618 1323.25 167.357 1177.9 208.009C1032.54 248.661 1096.66 208.009 976.417 208.009C856.17 208.009 796.748 46.3413 976.417 10.0274Z" fill="#D8E0F8"/>
</svg>
