<?xml version="1.0" encoding="utf-8"?>
<!-- Generator: Adobe Illustrator 22.1.0, SVG Export Plug-In . SVG Version: 6.00 Build 0)  -->
<svg version="1.1" id="Layer_1" xmlns="http://www.w3.org/2000/svg" xmlns:xlink="http://www.w3.org/1999/xlink" x="0px" y="0px"
	 viewBox="0 0 200 50" style="enable-background:new 0 0 200 50;" xml:space="preserve">
<style type="text/css">
	.st0{fill:#33C7BA;}
	.st1{fill:#FFFFFF;}
</style>
<g>
	<path class="st0" d="M25,0h150c13.8,0,25,11.2,25,25l0,0c0,13.8-11.2,25-25,25H25C11.2,50,0,38.8,0,25l0,0C0,11.2,11.2,0,25,0z"/>
</g>
<path class="st1" d="M32.3,32h-2.1v-5.8h-5.9V32h-2.1V19.2h2.1v5.3h5.9v-5.3h2.1V32z M41.6,32l-0.4-1.4h-0.1c-0.5,0.6-0.9,1-1.4,1.2
	c-0.5,0.2-1.1,0.3-1.8,0.3c-1,0-1.7-0.3-2.2-0.8c-0.5-0.5-0.8-1.2-0.8-2.2c0-1,0.4-1.8,1.1-2.3c0.7-0.5,1.9-0.8,3.4-0.8l1.7-0.1
	v-0.5c0-0.6-0.1-1.1-0.4-1.4c-0.3-0.3-0.7-0.5-1.3-0.5c-0.5,0-1,0.1-1.4,0.2c-0.5,0.1-0.9,0.3-1.3,0.5l-0.7-1.5
	c0.5-0.3,1.1-0.5,1.7-0.6c0.6-0.1,1.2-0.2,1.8-0.2c1.2,0,2.2,0.3,2.8,0.8c0.6,0.5,0.9,1.4,0.9,2.5V32H41.6z M38.5,30.6
	c0.8,0,1.4-0.2,1.8-0.6c0.5-0.4,0.7-1,0.7-1.8v-0.8l-1.2,0.1c-1,0-1.7,0.2-2.1,0.5c-0.4,0.3-0.7,0.7-0.7,1.3c0,0.4,0.1,0.8,0.4,1
	C37.6,30.5,38,30.6,38.5,30.6z M47.9,22.3v5c0,0.6,0,1.4-0.1,2.6l4.9-7.5h2.5V32h-2v-4.9c0-0.3,0-0.7,0-1.3c0-0.6,0.1-1,0.1-1.3
	L48.4,32h-2.5v-9.7H47.9z M50.5,21.1c-1.2,0-2.2-0.2-2.7-0.7c-0.6-0.5-0.9-1.2-1-2.3h1.9c0,0.4,0.1,0.8,0.2,1
	c0.1,0.2,0.3,0.4,0.5,0.5c0.2,0.1,0.6,0.1,1.1,0.1c0.6,0,1-0.1,1.3-0.4c0.3-0.3,0.5-0.7,0.5-1.3h1.9c-0.1,1-0.4,1.7-1.1,2.2
	C52.6,20.9,51.7,21.1,50.5,21.1z M65.4,22.3v1.6h-3.2V32h-2.1v-8.1H57v-1.6H65.4z M69.3,22.3v5c0,0.6,0,1.4-0.1,2.6l4.9-7.5h2.5V32
	h-2v-4.9c0-0.3,0-0.7,0-1.3c0-0.6,0.1-1,0.1-1.3L69.8,32h-2.5v-9.7H69.3z M90.2,22.3h2.3l-4,4.7l4.4,5h-2.4l-4.2-4.9V32h-2.1v-9.7
	h2.1V27L90.2,22.3z M100.5,32l-0.4-1.4H100c-0.5,0.6-0.9,1-1.4,1.2c-0.5,0.2-1.1,0.3-1.8,0.3c-1,0-1.7-0.3-2.2-0.8
	c-0.5-0.5-0.8-1.2-0.8-2.2c0-1,0.4-1.8,1.1-2.3c0.7-0.5,1.9-0.8,3.4-0.8l1.7-0.1v-0.5c0-0.6-0.1-1.1-0.4-1.4
	c-0.3-0.3-0.7-0.5-1.3-0.5c-0.5,0-1,0.1-1.4,0.2c-0.5,0.1-0.9,0.3-1.3,0.5l-0.7-1.5c0.5-0.3,1.1-0.5,1.7-0.6
	c0.6-0.1,1.2-0.2,1.8-0.2c1.2,0,2.2,0.3,2.8,0.8c0.6,0.5,0.9,1.4,0.9,2.5V32H100.5z M97.4,30.6c0.8,0,1.4-0.2,1.8-0.6
	c0.5-0.4,0.7-1,0.7-1.8v-0.8l-1.2,0.1c-1,0-1.7,0.2-2.1,0.5c-0.4,0.3-0.7,0.7-0.7,1.3c0,0.4,0.1,0.8,0.4,1
	C96.5,30.5,96.9,30.6,97.4,30.6z M106.9,22.3v3.9h4.6v-3.9h2.1V32h-2.1v-4.2h-4.6V32h-2.1v-9.7H106.9z M125.8,35.4h-1.9V32h-6.7v3.4
	h-1.9v-5h0.8c0.7-1,1.2-2.2,1.6-3.6c0.4-1.4,0.7-2.9,0.7-4.5h5.9v8.1h1.4V35.4z M122.4,30.4v-6.5h-2.1c-0.1,1.2-0.3,2.4-0.7,3.6
	c-0.4,1.2-0.8,2.2-1.3,3H122.4z M129.6,22.3v5c0,0.6,0,1.4-0.1,2.6l4.9-7.5h2.5V32h-2v-4.9c0-0.3,0-0.7,0-1.3c0-0.6,0.1-1,0.1-1.3
	l-4.9,7.5h-2.5v-9.7H129.6z M149.1,35.4h-1.9V32h-6.7v3.4h-1.9v-5h0.8c0.7-1,1.2-2.2,1.6-3.6c0.4-1.4,0.7-2.9,0.7-4.5h5.9v8.1h1.4
	V35.4z M145.7,30.4v-6.5h-2.1c-0.1,1.2-0.3,2.4-0.7,3.6c-0.4,1.2-0.8,2.2-1.3,3H145.7z M157,32l-0.4-1.4h-0.1
	c-0.5,0.6-0.9,1-1.4,1.2c-0.5,0.2-1.1,0.3-1.8,0.3c-1,0-1.7-0.3-2.2-0.8c-0.5-0.5-0.8-1.2-0.8-2.2c0-1,0.4-1.8,1.1-2.3
	s1.9-0.8,3.4-0.8l1.7-0.1v-0.5c0-0.6-0.1-1.1-0.4-1.4c-0.3-0.3-0.7-0.5-1.3-0.5c-0.5,0-1,0.1-1.4,0.2c-0.5,0.1-0.9,0.3-1.3,0.5
	l-0.7-1.5c0.5-0.3,1.1-0.5,1.7-0.6c0.6-0.1,1.2-0.2,1.8-0.2c1.2,0,2.2,0.3,2.8,0.8c0.6,0.5,1,1.4,1,2.5V32H157z M153.9,30.6
	c0.8,0,1.4-0.2,1.8-0.6c0.5-0.4,0.7-1,0.7-1.8v-0.8l-1.2,0.1c-1,0-1.7,0.2-2.1,0.5c-0.4,0.3-0.7,0.7-0.7,1.3c0,0.4,0.1,0.8,0.4,1
	C153,30.5,153.4,30.6,153.9,30.6z M168.7,22.3v1.6h-3.2V32h-2.1v-8.1h-3.2v-1.6H168.7z M176.6,32l-0.4-1.4h-0.1
	c-0.5,0.6-0.9,1-1.4,1.2c-0.5,0.2-1.1,0.3-1.8,0.3c-1,0-1.7-0.3-2.2-0.8c-0.5-0.5-0.8-1.2-0.8-2.2c0-1,0.4-1.8,1.1-2.3
	c0.7-0.5,1.9-0.8,3.4-0.8l1.7-0.1v-0.5c0-0.6-0.1-1.1-0.4-1.4c-0.3-0.3-0.7-0.5-1.3-0.5c-0.5,0-1,0.1-1.4,0.2
	c-0.5,0.1-0.9,0.3-1.3,0.5l-0.7-1.5c0.5-0.3,1.1-0.5,1.7-0.6c0.6-0.1,1.2-0.2,1.8-0.2c1.2,0,2.2,0.3,2.8,0.8
	c0.6,0.5,0.9,1.4,0.9,2.5V32H176.6z M173.6,30.6c0.8,0,1.4-0.2,1.8-0.6c0.5-0.4,0.7-1,0.7-1.8v-0.8l-1.2,0.1c-1,0-1.7,0.2-2.1,0.5
	c-0.4,0.3-0.7,0.7-0.7,1.3c0,0.4,0.1,0.8,0.4,1C172.7,30.5,173,30.6,173.6,30.6z"/>
</svg>
