<?xml version="1.0" encoding="utf-8"?>
<!-- Generator: Adobe Illustrator 22.1.0, SVG Export Plug-In . SVG Version: 6.00 Build 0)  -->
<svg version="1.1" id="Layer_1" xmlns="http://www.w3.org/2000/svg" xmlns:xlink="http://www.w3.org/1999/xlink" x="0px" y="0px"
	 viewBox="0 0 360 290.3" style="enable-background:new 0 0 360 290.3;" xml:space="preserve">
<style type="text/css">
	.st0{fill:#F0F3FF;}
	.st1{fill:#C1EEED;}
	.st2{fill:none;stroke:#000000;stroke-width:3;stroke-linecap:round;stroke-linejoin:round;}
</style>
<g>
	<path class="st0" d="M50,40.3h260c27.6,0,50,22.4,50,50v150c0,27.6-22.4,50-50,50H50c-27.6,0-50-22.4-50-50v-150
		C0,62.7,22.4,40.3,50,40.3z"/>
</g>
<path class="st1" d="M215.3,78.8c-40.5-4.5-30,8.5-49.9,8.5c-19.9,0-45.1-16-23.9-62.4c21.3-46.4,38-10.9,66.1-24.8
	C227.5,0.1,238.7,72.5,215.3,78.8z"/>
<path class="st2" d="M190.4,30.3l-13.1,15.1l-5.8-5.7"/>
<path class="st2" d="M205.4,22.8c-10.6-1.9-14.9-3.3-24.5-7.6c-9.5,4.3-13.9,5.7-24.5,7.6c-1.9,30.2,22.6,40.6,24.5,41.4
	C182.8,63.4,207.3,53,205.4,22.8z"/>
</svg>
