<?xml version="1.0" encoding="utf-8"?>
<!-- Generator: Adobe Illustrator 22.1.0, SVG Export Plug-In . SVG Version: 6.00 Build 0)  -->
<svg version="1.1" id="Layer_1" xmlns="http://www.w3.org/2000/svg" xmlns:xlink="http://www.w3.org/1999/xlink" x="0px" y="0px"
	 viewBox="0 0 360 290.8" style="enable-background:new 0 0 360 290.8;" xml:space="preserve">
<style type="text/css">
	.st0{fill:#F0F3FF;}
	.st1{fill:#C1EEED;}
	.st2{fill:none;stroke:#000000;stroke-width:3;stroke-miterlimit:10;}
	.st3{fill:none;stroke:#000000;stroke-width:3;stroke-linecap:round;stroke-miterlimit:10;}
</style>
<g>
	<path class="st0" d="M50,40.8h260c27.6,0,50,22.4,50,50v150c0,27.6-22.4,50-50,50H50c-27.6,0-50-22.4-50-50v-150
		C0,63.2,22.4,40.8,50,40.8z"/>
</g>
<path class="st1" d="M215.9,78.8c-40.5-4.5-30,8.5-49.9,8.5c-19.9,0-45.1-16-23.9-62.4c21.3-46.4,38-10.9,66.1-24.8
	C228.1,0.1,239.3,72.5,215.9,78.8z"/>
<path class="st2" d="M175,18.8c-2.9,0-5.8,0.9-8.2,2.5c-2.4,1.6-4.3,3.9-5.4,6.6c-1.1,2.7-1.4,5.6-0.8,8.5c0.6,2.8,2,5.5,4,7.5
	c2.1,2,4.7,3.4,7.5,4c2.9,0.6,5.8,0.3,8.5-0.8c2.7-1.1,5-3,6.6-5.4s2.5-5.2,2.5-8.1c0-3.9-1.6-7.6-4.3-10.4
	C182.6,20.3,178.9,18.8,175,18.8L175,18.8z"/>
<path class="st3" d="M186,44.4l10.3,10.2"/>
</svg>
