<svg width="696" height="284" viewBox="0 0 764 363" fill="none" xmlns="http://www.w3.org/2000/svg">
<path opacity="0.7" d="M630.39 281.89C542.92 438.123 215.961 264.897 80.0483 298.221C-55.8641 331.546 32.488 166.159 73.9325 92.1332C161.403 -64.1002 350.786 69.3351 624.274 75.8015C897.762 82.2679 671.834 207.864 630.39 281.89Z" fill="#E9EDFB"/>
<g filter="url(#filter0_d)">
<path d="M79.912 151.93H90.0048C98.0028 151.93 102.002 148.015 102.002 140.187C102.002 137.14 101.05 134.664 99.1454 132.76C97.2411 130.813 94.5539 129.84 91.0839 129.84C88.2486 129.84 85.773 130.665 83.6571 132.315C81.5836 133.966 80.5468 136.018 80.5468 138.473H59.1552C59.1552 133.606 60.5093 129.269 63.2177 125.46C65.926 121.651 69.6711 118.689 74.453 116.573C79.2773 114.415 84.567 113.336 90.3222 113.336C100.605 113.336 108.688 115.685 114.57 120.382C120.452 125.079 123.393 131.533 123.393 139.742C123.393 143.72 122.166 147.486 119.712 151.041C117.3 154.553 113.766 157.41 109.111 159.61C114.02 161.388 117.871 164.096 120.664 167.735C123.457 171.332 124.853 175.797 124.853 181.129C124.853 189.381 121.68 195.982 115.332 200.934C108.984 205.885 100.648 208.36 90.3222 208.36C84.2707 208.36 78.6425 207.218 73.4374 204.933C68.2746 202.605 64.3603 199.41 61.6942 195.348C59.0282 191.243 57.6952 186.588 57.6952 181.383H79.2138C79.2138 184.218 80.3564 186.673 82.6415 188.746C84.9267 190.82 87.7408 191.856 91.0839 191.856C94.8502 191.856 97.8547 190.82 100.098 188.746C102.34 186.63 103.462 183.943 103.462 180.685C103.462 176.03 102.298 172.729 99.9706 170.782C97.6431 168.836 94.427 167.862 90.3222 167.862H79.912V151.93Z" fill="#C1EEED"/>
<path d="M79.912 151.93V149.93H77.912V151.93H79.912ZM99.1454 132.76L97.7157 134.158L97.7234 134.166L97.7312 134.174L99.1454 132.76ZM83.6571 132.315L82.4271 130.738L82.4193 130.744L82.4116 130.751L83.6571 132.315ZM80.5468 138.473V140.473H82.5468V138.473H80.5468ZM59.1552 138.473H57.1552V140.473H59.1552V138.473ZM74.453 116.573L75.2623 118.402L75.2698 118.399L74.453 116.573ZM114.57 120.382L113.322 121.945L114.57 120.382ZM119.712 151.041L118.066 149.905L118.063 149.909L119.712 151.041ZM109.111 159.61L108.256 157.802L103.913 159.855L108.43 161.491L109.111 159.61ZM120.664 167.735L119.077 168.953L119.084 168.962L120.664 167.735ZM73.4374 204.933L72.6154 206.756L72.6244 206.76L72.6334 206.764L73.4374 204.933ZM61.6942 195.348L60.0169 196.437L60.0221 196.445L61.6942 195.348ZM57.6952 181.383V179.383H55.6952V181.383H57.6952ZM79.2138 181.383H81.2138V179.383H79.2138V181.383ZM100.098 188.746L101.455 190.215L101.463 190.208L101.47 190.201L100.098 188.746ZM79.912 167.862H77.912V169.862H79.912V167.862ZM79.912 153.93H90.0048V149.93H79.912V153.93ZM90.0048 153.93C94.3015 153.93 97.8934 152.878 100.402 150.423C102.918 147.96 104.002 144.42 104.002 140.187H100.002C100.002 143.782 99.0865 146.113 97.6036 147.565C96.1128 149.024 93.7061 149.93 90.0048 149.93V153.93ZM104.002 140.187C104.002 136.685 102.889 133.675 100.56 131.346L97.7312 134.174C99.2099 135.653 100.002 137.594 100.002 140.187H104.002ZM100.575 131.361C98.1982 128.931 94.9366 127.84 91.0839 127.84V131.84C94.1713 131.84 96.284 132.695 97.7157 134.158L100.575 131.361ZM91.0839 127.84C87.83 127.84 84.9151 128.798 82.4271 130.738L84.8872 133.892C86.6309 132.532 88.6673 131.84 91.0839 131.84V127.84ZM82.4116 130.751C79.905 132.746 78.5468 135.355 78.5468 138.473H82.5468C82.5468 136.681 83.2622 135.186 84.9026 133.88L82.4116 130.751ZM80.5468 136.473H59.1552V140.473H80.5468V136.473ZM61.1552 138.473C61.1552 134.003 62.3904 130.074 64.8476 126.619L61.5878 124.301C58.6283 128.463 57.1552 133.209 57.1552 138.473H61.1552ZM64.8476 126.619C67.3236 123.137 70.7691 120.39 75.2623 118.402L73.6438 114.744C68.5731 116.988 64.5285 120.166 61.5878 124.301L64.8476 126.619ZM75.2698 118.399C79.8149 116.366 84.8231 115.336 90.3222 115.336V111.336C84.3108 111.336 78.7396 112.465 73.6363 114.748L75.2698 118.399ZM90.3222 115.336C100.317 115.336 107.905 117.618 113.322 121.945L115.818 118.819C109.471 113.751 100.894 111.336 90.3222 111.336V115.336ZM113.322 121.945C118.682 126.225 121.393 132.078 121.393 139.742H125.393C125.393 130.987 122.223 123.933 115.818 118.819L113.322 121.945ZM121.393 139.742C121.393 143.279 120.311 146.654 118.066 149.905L121.358 152.177C124.022 148.319 125.393 144.161 125.393 139.742H121.393ZM118.063 149.909C115.889 153.074 112.658 155.721 108.256 157.802L109.966 161.418C114.874 159.098 118.71 156.032 121.36 152.173L118.063 149.909ZM108.43 161.491C113.031 163.157 116.548 165.657 119.077 168.953L122.251 166.518C119.194 162.535 115.009 159.619 109.792 157.73L108.43 161.491ZM119.084 168.962C121.56 172.15 122.853 176.162 122.853 181.129H126.853C126.853 175.432 125.354 170.514 122.244 166.509L119.084 168.962ZM122.853 181.129C122.853 188.783 119.95 194.795 114.102 199.357L116.562 202.511C123.41 197.169 126.853 189.979 126.853 181.129H122.853ZM114.102 199.357C108.194 203.964 100.329 206.36 90.3222 206.36V210.36C100.966 210.36 109.774 207.805 116.562 202.511L114.102 199.357ZM90.3222 206.36C84.5294 206.36 79.1769 205.268 74.2414 203.101L72.6334 206.764C78.108 209.167 84.0121 210.36 90.3222 210.36V206.36ZM74.2594 203.109C69.3848 200.912 65.7912 197.945 63.3663 194.25L60.0221 196.445C62.9294 200.875 67.1645 204.299 72.6154 206.756L74.2594 203.109ZM63.3715 194.258C60.9297 190.499 59.6952 186.227 59.6952 181.383H55.6952C55.6952 186.949 57.1267 191.987 60.017 196.437L63.3715 194.258ZM57.6952 183.383H79.2138V179.383H57.6952V183.383ZM77.2138 181.383C77.2138 184.836 78.6359 187.812 81.2975 190.227L83.9855 187.265C82.0768 185.533 81.2138 183.6 81.2138 181.383H77.2138ZM81.2975 190.227C83.9827 192.664 87.289 193.856 91.0839 193.856V189.856C88.1926 189.856 85.8706 188.976 83.9855 187.265L81.2975 190.227ZM91.0839 193.856C95.2305 193.856 98.7615 192.705 101.455 190.215L98.7399 187.278C96.9479 188.934 94.4698 189.856 91.0839 189.856V193.856ZM101.47 190.201C104.138 187.684 105.462 184.459 105.462 180.685H101.462C101.462 183.427 100.543 185.577 98.7251 187.291L101.47 190.201ZM105.462 180.685C105.462 175.756 104.234 171.74 101.254 169.248L98.6875 172.316C100.363 173.717 101.462 176.303 101.462 180.685H105.462ZM101.254 169.248C98.457 166.909 94.7303 165.862 90.3222 165.862V169.862C94.1237 169.862 96.8293 170.762 98.6875 172.316L101.254 169.248ZM90.3222 165.862H79.912V169.862H90.3222V165.862ZM81.912 167.862V151.93H77.912V167.862H81.912Z" fill="#C1EEED"/>
</g>
<defs>
<filter id="filter0_d" x="49.6952" y="105.336" width="91.1582" height="119.024" filterUnits="userSpaceOnUse" color-interpolation-filters="sRGB">
<feFlood flood-opacity="0" result="BackgroundImageFix"/>
<feColorMatrix in="SourceAlpha" type="matrix" values="0 0 0 0 0 0 0 0 0 0 0 0 0 0 0 0 0 0 127 0"/>
<feOffset dx="4" dy="4"/>
<feGaussianBlur stdDeviation="5"/>
<feColorMatrix type="matrix" values="0 0 0 0 0 0 0 0 0 0 0 0 0 0 0 0 0 0 0.25 0"/>
<feBlend mode="normal" in2="BackgroundImageFix" result="effect1_dropShadow"/>
<feBlend mode="normal" in="SourceGraphic" in2="effect1_dropShadow" result="shape"/>
</filter>
</defs>
</svg>
