<svg viewBox="0 0 754 341" fill="none" xmlns="http://www.w3.org/2000/svg">
<path opacity="0.7" d="M131.7 62.2922C223.766 -91.2779 545.442 91.5704 682.283 62.2922C819.124 33.014 725.905 195.708 682.283 268.471C590.217 422.041 404.876 283.047 131.7 268.471C-141.477 253.895 88.0775 135.056 131.7 62.2922Z" fill="#E9EDFB"/>
<g filter="url(#filter0_d)">
<path d="M146.588 203.824H126.784V140.777L107.33 146.461V131.461L144.772 118.512H146.588V203.824Z" fill="#C1EEED"/>
<path d="M146.588 203.824V205.824H148.588V203.824H146.588ZM126.784 203.824H124.784V205.824H126.784V203.824ZM126.784 140.777H128.784V138.109L126.223 138.858L126.784 140.777ZM107.33 146.461H105.33V149.129L107.891 148.381L107.33 146.461ZM107.33 131.461L106.677 129.571L105.33 130.036V131.461H107.33ZM144.772 118.512V116.512H144.436L144.118 116.622L144.772 118.512ZM146.588 118.512H148.588V116.512H146.588V118.512ZM146.588 201.824H126.784V205.824H146.588V201.824ZM128.784 203.824V140.777H124.784V203.824H128.784ZM126.223 138.858L106.77 144.541L107.891 148.381L127.344 142.697L126.223 138.858ZM109.33 146.461V131.461H105.33V146.461H109.33ZM107.984 133.351L145.426 120.402L144.118 116.622L106.677 129.571L107.984 133.351ZM144.772 120.512H146.588V116.512H144.772V120.512ZM144.588 118.512V203.824H148.588V118.512H144.588Z" fill="#C1EEED"/>
</g>
<defs>
<filter id="filter0_d" x="99.3304" y="110.512" width="63.2578" height="109.312" filterUnits="userSpaceOnUse" color-interpolation-filters="sRGB">
<feFlood flood-opacity="0" result="BackgroundImageFix"/>
<feColorMatrix in="SourceAlpha" type="matrix" values="0 0 0 0 0 0 0 0 0 0 0 0 0 0 0 0 0 0 127 0"/>
<feOffset dx="4" dy="4"/>
<feGaussianBlur stdDeviation="5"/>
<feColorMatrix type="matrix" values="0 0 0 0 0 0 0 0 0 0 0 0 0 0 0 0 0 0 0.25 0"/>
<feBlend mode="normal" in2="BackgroundImageFix" result="effect1_dropShadow"/>
<feBlend mode="normal" in="SourceGraphic" in2="effect1_dropShadow" result="shape"/>
</filter>
</defs>
</svg>
