<svg width="201" height="51" viewBox="0 0 201 51" fill="none" xmlns="http://www.w3.org/2000/svg">
<rect x="2.26953" y="1.96899" width="196.896" height="46.8595" rx="23.4298" stroke="#33C7BA" stroke-width="3"/>
<path d="M79.6075 24.935C80.4595 25.139 81.1015 25.505 81.5335 26.033C81.9775 26.549 82.1995 27.215 82.1995 28.031C82.1995 29.123 81.7975 29.969 80.9935 30.569C80.2015 31.169 79.0435 31.469 77.5195 31.469H71.7595V18.869H77.1775C78.5575 18.869 79.6315 19.151 80.3995 19.715C81.1795 20.267 81.5695 21.065 81.5695 22.109C81.5695 22.793 81.3955 23.375 81.0475 23.855C80.7115 24.335 80.2315 24.695 79.6075 24.935ZM73.5415 24.413H77.0515C77.9275 24.413 78.5935 24.239 79.0495 23.891C79.5175 23.543 79.7515 23.033 79.7515 22.361C79.7515 21.689 79.5175 21.179 79.0495 20.831C78.5815 20.471 77.9155 20.291 77.0515 20.291H73.5415V24.413ZM77.4835 30.047C79.4155 30.047 80.3815 29.327 80.3815 27.887C80.3815 27.167 80.1355 26.639 79.6435 26.303C79.1635 25.955 78.4435 25.781 77.4835 25.781H73.5415V30.047H77.4835ZM89.2208 25.169C90.4208 25.181 91.3388 25.457 91.9748 25.997C92.6108 26.537 92.9288 27.299 92.9288 28.283C92.9288 29.315 92.5808 30.113 91.8848 30.677C91.2008 31.229 90.2168 31.499 88.9328 31.487L84.9188 31.469V21.929H86.6468V25.151L89.2208 25.169ZM94.3508 21.929H96.0788V31.469H94.3508V21.929ZM88.8068 30.173C89.5868 30.185 90.1748 30.029 90.5708 29.705C90.9788 29.381 91.1828 28.901 91.1828 28.265C91.1828 27.641 90.9848 27.185 90.5888 26.897C90.1928 26.609 89.5988 26.459 88.8068 26.447L86.6468 26.411V30.155L88.8068 30.173ZM99.4383 21.929H101.166V28.877L107.016 21.929H108.582V31.469H106.854V24.521L101.022 31.469H99.4383V21.929ZM103.902 20.687C103.014 20.687 102.324 20.477 101.832 20.057C101.34 19.625 101.088 19.007 101.076 18.203H102.246C102.258 18.647 102.408 19.007 102.696 19.283C102.996 19.547 103.392 19.679 103.884 19.679C104.376 19.679 104.772 19.547 105.072 19.283C105.372 19.007 105.528 18.647 105.54 18.203H106.746C106.734 19.007 106.476 19.625 105.972 20.057C105.468 20.477 104.778 20.687 103.902 20.687ZM119.046 23.441H115.554V31.469H113.826V23.441H110.334V21.929H119.046V23.441ZM120.813 21.929H122.541V28.877L128.391 21.929H129.957V31.469H128.229V24.521L122.397 31.469H120.813V21.929Z" fill="#33C7BA"/>
</svg>
