<svg width="215" height="51" viewBox="0 0 215 51" fill="none" xmlns="http://www.w3.org/2000/svg">
<rect y="0.468994" width="215" height="49.8595" rx="24.9298" fill="#33C7BA"/>
<path d="M30.5605 32.469H29.0664V20.9465H22.4658V32.469H20.9717V19.6194H30.5605V32.469ZM38.3652 32.6448C37.7383 32.6448 37.1641 32.5305 36.6426 32.302C36.127 32.0676 35.6934 31.7102 35.3418 31.2297H35.2363C35.3066 31.7922 35.3418 32.3254 35.3418 32.8293V36.7932H33.8828V22.8362H35.0693L35.2715 24.1545H35.3418C35.7168 23.6272 36.1533 23.2463 36.6514 23.012C37.1494 22.7776 37.7207 22.6604 38.3652 22.6604C39.6426 22.6604 40.627 23.0969 41.3184 23.97C42.0156 24.843 42.3643 26.0676 42.3643 27.6438C42.3643 29.2258 42.0098 30.4563 41.3008 31.3352C40.5977 32.2083 39.6191 32.6448 38.3652 32.6448ZM38.1543 23.8997C37.1699 23.8997 36.458 24.1721 36.0186 24.717C35.5791 25.262 35.3535 26.1292 35.3418 27.3186V27.6438C35.3418 28.9973 35.5674 29.967 36.0186 30.553C36.4697 31.1331 37.1934 31.4231 38.1895 31.4231C39.0215 31.4231 39.6719 31.0862 40.1406 30.4124C40.6152 29.7385 40.8525 28.8098 40.8525 27.6262C40.8525 26.425 40.6152 25.5051 40.1406 24.8665C39.6719 24.2219 39.0098 23.8997 38.1543 23.8997ZM46.293 22.8362V28.9446L46.2314 30.5442L46.2051 31.0452L51.417 22.8362H53.2363V32.469H51.874V26.5803L51.9004 25.4202L51.9443 24.2776L46.7412 32.469H44.9219V22.8362H46.293ZM64.1436 25.2532C64.1436 25.8801 63.9619 26.3577 63.5986 26.6858C63.2412 27.0081 62.7373 27.2249 62.0869 27.3362V27.4153C62.9072 27.5266 63.5049 27.7668 63.8799 28.136C64.2607 28.5051 64.4512 29.0149 64.4512 29.6653C64.4512 30.5618 64.1201 31.2532 63.458 31.7395C62.8018 32.2258 61.8408 32.469 60.5752 32.469H56.3301V22.8362H60.5576C62.9482 22.8362 64.1436 23.6418 64.1436 25.2532ZM62.9922 29.5686C62.9922 29.0471 62.793 28.6692 62.3945 28.4348C62.002 28.1946 61.3486 28.0745 60.4346 28.0745H57.7891V31.2473H60.4697C62.1514 31.2473 62.9922 30.6877 62.9922 29.5686ZM62.7197 25.3938C62.7197 24.925 62.5381 24.594 62.1748 24.4006C61.8174 24.2014 61.2725 24.1018 60.54 24.1018H57.7891V26.8176H60.2588C61.1611 26.8176 61.7969 26.7063 62.166 26.4836C62.5352 26.261 62.7197 25.8977 62.7197 25.3938ZM67.0615 32.469H65.3564L68.125 28.3997C67.3809 28.2356 66.8096 27.9192 66.4111 27.4504C66.0186 26.9758 65.8223 26.3811 65.8223 25.6663C65.8223 24.7874 66.1182 24.0959 66.71 23.592C67.3018 23.0881 68.1279 22.8362 69.1885 22.8362H73.4775V32.469H72.0186V28.6194H69.584L67.0615 32.469ZM67.2461 25.6838C67.2461 26.7971 68.0547 27.3538 69.6719 27.3538H72.0186V24.1018H69.373C67.9551 24.1018 67.2461 24.6292 67.2461 25.6838ZM78.417 26.8352C80.2393 26.8352 81.1504 26.3313 81.1504 25.3235C81.1504 24.3743 80.4121 23.8997 78.9355 23.8997C78.4844 23.8997 78.0742 23.9407 77.7051 24.0227C77.3359 24.1047 76.8525 24.2688 76.2549 24.5149L75.7363 23.3284C76.7324 22.8831 77.8193 22.6604 78.9971 22.6604C80.1045 22.6604 80.9775 22.8889 81.6162 23.3459C82.2549 23.7971 82.5742 24.4153 82.5742 25.2004C82.5742 26.2786 81.9736 26.9846 80.7725 27.3186V27.3889C81.5107 27.6057 82.0498 27.9163 82.3896 28.3206C82.7295 28.719 82.8994 29.22 82.8994 29.8235C82.8994 30.7141 82.5391 31.4084 81.8184 31.9065C81.1035 32.3987 80.1133 32.6448 78.8477 32.6448C77.459 32.6448 76.3867 32.4368 75.6309 32.0208V30.6848C76.7031 31.1887 77.7871 31.4407 78.8828 31.4407C79.7266 31.4407 80.3623 31.2971 80.79 31.01C81.2236 30.717 81.4404 30.2981 81.4404 29.7532C81.4404 28.634 80.5293 28.0745 78.707 28.0745H77.3711V26.8352H78.417ZM91.2051 32.469L90.915 31.0979H90.8447C90.3643 31.7014 89.8838 32.1116 89.4033 32.3284C88.9287 32.5393 88.334 32.6448 87.6191 32.6448C86.6641 32.6448 85.9141 32.3987 85.3691 31.9065C84.8301 31.4143 84.5605 30.7141 84.5605 29.8059C84.5605 27.8606 86.1162 26.8411 89.2275 26.7473L90.8623 26.6946V26.0969C90.8623 25.3411 90.6982 24.7844 90.3701 24.427C90.0479 24.0637 89.5293 23.8821 88.8145 23.8821C88.0117 23.8821 87.1035 24.1282 86.0898 24.6204L85.6416 23.5042C86.1162 23.2463 86.6348 23.0442 87.1973 22.8977C87.7656 22.7512 88.334 22.678 88.9023 22.678C90.0508 22.678 90.9004 22.9329 91.4512 23.4426C92.0078 23.9524 92.2861 24.7698 92.2861 25.8948V32.469H91.2051ZM87.9092 31.4407C88.8174 31.4407 89.5293 31.1917 90.0449 30.6936C90.5664 30.1956 90.8271 29.4983 90.8271 28.6018V27.7317L89.3682 27.7932C88.208 27.8342 87.3701 28.0159 86.8545 28.3381C86.3447 28.6545 86.0898 29.1497 86.0898 29.8235C86.0898 30.3508 86.248 30.7522 86.5645 31.0276C86.8867 31.303 87.335 31.4407 87.9092 31.4407ZM101.796 24.0842H98.667V32.469H97.208V24.0842H94.1143V22.8362H101.796V24.0842ZM105.162 26.8176H108.133C110.594 26.8176 111.824 27.7229 111.824 29.5334C111.824 30.4827 111.502 31.2092 110.857 31.7131C110.219 32.217 109.281 32.469 108.045 32.469H103.703V22.8362H105.162V26.8176ZM105.162 28.0745V31.2473H107.975C108.748 31.2473 109.34 31.1125 109.75 30.843C110.16 30.5735 110.365 30.1663 110.365 29.6213C110.365 29.0881 110.175 28.6985 109.794 28.4524C109.419 28.2004 108.798 28.0745 107.931 28.0745H105.162ZM120.49 32.469H119.031V22.8362H127.117V32.469H125.641V24.1018H120.49V32.469ZM134.693 32.6448C134.066 32.6448 133.492 32.5305 132.971 32.302C132.455 32.0676 132.021 31.7102 131.67 31.2297H131.564C131.635 31.7922 131.67 32.3254 131.67 32.8293V36.7932H130.211V22.8362H131.397L131.6 24.1545H131.67C132.045 23.6272 132.481 23.2463 132.979 23.012C133.478 22.7776 134.049 22.6604 134.693 22.6604C135.971 22.6604 136.955 23.0969 137.646 23.97C138.344 24.843 138.692 26.0676 138.692 27.6438C138.692 29.2258 138.338 30.4563 137.629 31.3352C136.926 32.2083 135.947 32.6448 134.693 32.6448ZM134.482 23.8997C133.498 23.8997 132.786 24.1721 132.347 24.717C131.907 25.262 131.682 26.1292 131.67 27.3186V27.6438C131.67 28.9973 131.896 29.967 132.347 30.553C132.798 31.1331 133.521 31.4231 134.518 31.4231C135.35 31.4231 136 31.0862 136.469 30.4124C136.943 29.7385 137.181 28.8098 137.181 27.6262C137.181 26.425 136.943 25.5051 136.469 24.8665C136 24.2219 135.338 23.8997 134.482 23.8997ZM149.564 27.6438C149.564 29.2141 149.169 30.4417 148.378 31.3264C147.587 32.2053 146.494 32.6448 145.1 32.6448C144.238 32.6448 143.474 32.4426 142.806 32.0383C142.138 31.634 141.622 31.054 141.259 30.2981C140.896 29.5422 140.714 28.6575 140.714 27.6438C140.714 26.0735 141.106 24.8518 141.892 23.9788C142.677 23.0999 143.767 22.6604 145.161 22.6604C146.509 22.6604 147.578 23.1086 148.369 24.0051C149.166 24.9016 149.564 26.1145 149.564 27.6438ZM142.226 27.6438C142.226 28.8743 142.472 29.8118 142.964 30.4563C143.456 31.1008 144.18 31.4231 145.135 31.4231C146.09 31.4231 146.813 31.1038 147.306 30.4651C147.804 29.8206 148.053 28.8801 148.053 27.6438C148.053 26.4192 147.804 25.4905 147.306 24.8577C146.813 24.219 146.084 23.8997 145.117 23.8997C144.162 23.8997 143.441 24.2131 142.955 24.8401C142.469 25.467 142.226 26.4016 142.226 27.6438ZM162.449 27.6438C162.449 29.1028 162.033 30.2659 161.201 31.1331C160.375 31.9944 159.218 32.4866 157.729 32.6096V36.7932H156.288V32.6096C154.835 32.4983 153.687 32.0002 152.843 31.1155C151.999 30.2307 151.577 29.0735 151.577 27.6438C151.577 26.1848 151.996 25.0247 152.834 24.1633C153.678 23.302 154.847 22.8127 156.341 22.6956V18.7932H157.729V22.6956C159.2 22.8303 160.354 23.3372 161.192 24.2161C162.03 25.095 162.449 26.2375 162.449 27.6438ZM153.106 27.6438C153.106 28.7688 153.364 29.6506 153.88 30.2893C154.396 30.928 155.216 31.3 156.341 31.4055V23.9172C155.257 24.0168 154.445 24.3713 153.906 24.9807C153.373 25.5842 153.106 26.4719 153.106 27.6438ZM160.938 27.6438C160.938 25.3997 159.868 24.1633 157.729 23.9348V31.4055C158.843 31.2942 159.654 30.9192 160.164 30.2805C160.68 29.6418 160.938 28.7629 160.938 27.6438ZM166.369 22.8362V28.9446L166.308 30.5442L166.281 31.0452L171.493 22.8362H173.312V32.469H171.95V26.5803L171.977 25.4202L172.021 24.2776L166.817 32.469H164.998V22.8362H166.369ZM183.587 32.469H182.11V24.0842H179.219C179.061 26.1702 178.841 27.8254 178.56 29.05C178.278 30.2747 177.912 31.1711 177.461 31.7395C177.016 32.3079 176.447 32.592 175.756 32.592C175.439 32.592 175.188 32.5569 175 32.4866V31.4055C175.129 31.4407 175.275 31.4583 175.439 31.4583C176.113 31.4583 176.649 30.7463 177.048 29.3225C177.446 27.8987 177.748 25.7366 177.953 22.8362H183.587V32.469ZM188.148 26.8176H191.119C193.58 26.8176 194.811 27.7229 194.811 29.5334C194.811 30.4827 194.488 31.2092 193.844 31.7131C193.205 32.217 192.268 32.469 191.031 32.469H186.689V22.8362H188.148V26.8176ZM188.148 28.0745V31.2473H190.961C191.734 31.2473 192.326 31.1125 192.736 30.843C193.146 30.5735 193.352 30.1663 193.352 29.6213C193.352 29.0881 193.161 28.6985 192.78 28.4524C192.405 28.2004 191.784 28.0745 190.917 28.0745H188.148Z" fill="white"/>
</svg>
