<svg width="38" height="40" viewBox="0 0 38 40" fill="none" xmlns="http://www.w3.org/2000/svg">
<path d="M16.6115 5.47754C14.3322 5.47754 12.1041 6.1744 10.209 7.48001C8.31381 8.78562 6.83671 10.6413 5.96446 12.8125C5.09221 14.9836 4.86399 17.3727 5.30866 19.6775C5.75333 21.9824 6.85091 24.0996 8.46261 25.7613C10.0743 27.423 12.1278 28.5547 14.3632 29.0131C16.5987 29.4716 18.9159 29.2363 21.0217 28.337C23.1275 27.4377 24.9273 25.9147 26.1936 23.9608C27.4599 22.0068 28.1358 19.7095 28.1358 17.3595C28.1356 14.2083 26.9214 11.1862 24.7602 8.9579C22.599 6.72965 19.6679 5.47774 16.6115 5.47754V5.47754Z" stroke="#555555" stroke-width="2" stroke-miterlimit="10"/>
<path d="M25.209 26.224L33.2575 34.5222" stroke="#555555" stroke-width="2" stroke-miterlimit="10" stroke-linecap="round"/>
</svg>
