<svg width="250" height="51" viewBox="0 0 250 51" fill="none" xmlns="http://www.w3.org/2000/svg">
<rect y="0.5" width="250" height="50" rx="5" fill="#4869AD"/>
<path d="M37.5499 10.65H14.4499C12.6349 10.65 11.1499 12.135 11.1499 13.95V37.05C11.1499 38.8667 12.6349 40.35 14.4499 40.35H25.9999V28.8H22.6999V24.7163H25.9999V21.3338C25.9999 17.7632 27.9997 15.2552 32.2138 15.2552L35.1888 15.2585V19.5567H33.2137C31.5736 19.5567 30.9499 20.7876 30.9499 21.9294V24.7179H35.1871L34.2499 28.8H30.9499V40.35H37.5499C39.3649 40.35 40.8499 38.8667 40.8499 37.05V13.95C40.8499 12.135 39.3649 10.65 37.5499 10.65Z" fill="white"/>
<path d="M54.1963 19.1504H58.0107C59.7803 19.1504 61.0576 19.4082 61.8428 19.9238C62.6338 20.4395 63.0293 21.2539 63.0293 22.3672C63.0293 23.1172 62.8359 23.7412 62.4492 24.2393C62.0625 24.7373 61.5059 25.0508 60.7793 25.1797V25.2676C61.6816 25.4375 62.3438 25.7744 62.7656 26.2783C63.1934 26.7764 63.4072 27.4531 63.4072 28.3086C63.4072 29.4629 63.0029 30.3682 62.1943 31.0244C61.3916 31.6748 60.2725 32 58.8369 32H54.1963V19.1504ZM56.2969 24.459H58.3184C59.1973 24.459 59.8389 24.3213 60.2432 24.0459C60.6475 23.7646 60.8496 23.29 60.8496 22.6221C60.8496 22.0186 60.6299 21.582 60.1904 21.3125C59.7568 21.043 59.0654 20.9082 58.1162 20.9082H56.2969V24.459ZM56.2969 26.1641V30.2334H58.5293C59.4082 30.2334 60.0703 30.0664 60.5156 29.7324C60.9668 29.3926 61.1924 28.8594 61.1924 28.1328C61.1924 27.4648 60.9639 26.9697 60.5068 26.6475C60.0498 26.3252 59.3555 26.1641 58.4238 26.1641H56.2969ZM68.0215 27.0342L64.7607 22.2793H67.1162L69.3311 25.6807L71.5635 22.2793H73.9014L70.6318 27.0342L74.0684 32H71.7305L69.3311 28.3613L66.9404 32H64.6025L68.0215 27.0342ZM84.3955 27.1221C84.3955 28.71 83.9883 29.9492 83.1738 30.8398C82.3594 31.7305 81.2256 32.1758 79.7725 32.1758C78.8643 32.1758 78.0615 31.9707 77.3643 31.5605C76.667 31.1504 76.1309 30.5615 75.7559 29.7939C75.3809 29.0264 75.1934 28.1357 75.1934 27.1221C75.1934 25.5459 75.5977 24.3154 76.4062 23.4307C77.2148 22.5459 78.3545 22.1035 79.8252 22.1035C81.2314 22.1035 82.3447 22.5576 83.165 23.4658C83.9854 24.3682 84.3955 25.5869 84.3955 27.1221ZM77.3203 27.1221C77.3203 29.3662 78.1494 30.4883 79.8076 30.4883C81.4482 30.4883 82.2686 29.3662 82.2686 27.1221C82.2686 24.9014 81.4424 23.791 79.79 23.791C78.9229 23.791 78.293 24.0781 77.9004 24.6523C77.5137 25.2266 77.3203 26.0498 77.3203 27.1221ZM96.1025 35.4365H94.1777V32H87.5156V35.4365H85.6084V30.4004H86.3994C87.0908 29.4102 87.6387 28.2148 88.043 26.8145C88.4531 25.4082 88.6963 23.8965 88.7725 22.2793H94.6787V30.4004H96.1025V35.4365ZM92.6484 30.4004V23.8613H90.5566C90.4453 25.0684 90.2109 26.2578 89.8535 27.4297C89.502 28.6016 89.0713 29.5918 88.5615 30.4004H92.6484ZM104.399 22.2793V25.8301C104.399 26.8262 104.915 27.3242 105.946 27.3242C106.444 27.3242 106.931 27.2568 107.405 27.1221C107.88 26.9814 108.39 26.7588 108.935 26.4541V22.2793H111V32H108.935V27.8779C108.366 28.2295 107.815 28.4902 107.282 28.6602C106.755 28.8242 106.178 28.9062 105.551 28.9062C104.537 28.9062 103.746 28.6455 103.178 28.124C102.609 27.5967 102.325 26.8613 102.325 25.918V22.2793H104.399ZM118.198 32.1758C116.687 32.1758 115.503 31.7363 114.647 30.8574C113.798 29.9727 113.373 28.7568 113.373 27.21C113.373 25.6221 113.769 24.374 114.56 23.4658C115.351 22.5576 116.438 22.1035 117.82 22.1035C119.104 22.1035 120.117 22.4932 120.861 23.2725C121.605 24.0518 121.978 25.124 121.978 26.4893V27.6055H115.5C115.529 28.5488 115.784 29.2754 116.265 29.7852C116.745 30.2891 117.422 30.541 118.295 30.541C118.869 30.541 119.402 30.4883 119.895 30.3828C120.393 30.2715 120.926 30.0898 121.494 29.8379V31.5166C120.99 31.7568 120.48 31.9268 119.965 32.0264C119.449 32.126 118.86 32.1758 118.198 32.1758ZM117.82 23.668C117.164 23.668 116.637 23.876 116.238 24.292C115.846 24.708 115.611 25.3145 115.535 26.1113H119.947C119.936 25.3086 119.742 24.7021 119.367 24.292C118.992 23.876 118.477 23.668 117.82 23.668ZM129.255 32.1758C128.024 32.1758 127.069 31.7334 126.39 30.8486H126.267C126.349 31.6689 126.39 32.167 126.39 32.3428V36.3242H124.324V22.2793H125.994C126.041 22.4609 126.138 22.8945 126.284 23.5801H126.39C127.034 22.5957 128.001 22.1035 129.29 22.1035C130.503 22.1035 131.446 22.543 132.12 23.4219C132.8 24.3008 133.14 25.5342 133.14 27.1221C133.14 28.71 132.794 29.9492 132.103 30.8398C131.417 31.7305 130.468 32.1758 129.255 32.1758ZM128.754 23.791C127.934 23.791 127.333 24.0312 126.952 24.5117C126.577 24.9922 126.39 25.7598 126.39 26.8145V27.1221C126.39 28.3057 126.577 29.1641 126.952 29.6973C127.327 30.2246 127.939 30.4883 128.789 30.4883C129.504 30.4883 130.055 30.1953 130.441 29.6094C130.828 29.0234 131.021 28.1885 131.021 27.1045C131.021 26.0146 130.828 25.1914 130.441 24.6348C130.061 24.0723 129.498 23.791 128.754 23.791ZM139.784 32.1758C138.272 32.1758 137.089 31.7363 136.233 30.8574C135.384 29.9727 134.959 28.7568 134.959 27.21C134.959 25.6221 135.354 24.374 136.146 23.4658C136.937 22.5576 138.023 22.1035 139.406 22.1035C140.689 22.1035 141.703 22.4932 142.447 23.2725C143.191 24.0518 143.563 25.124 143.563 26.4893V27.6055H137.086C137.115 28.5488 137.37 29.2754 137.851 29.7852C138.331 30.2891 139.008 30.541 139.881 30.541C140.455 30.541 140.988 30.4883 141.48 30.3828C141.979 30.2715 142.512 30.0898 143.08 29.8379V31.5166C142.576 31.7568 142.066 31.9268 141.551 32.0264C141.035 32.126 140.446 32.1758 139.784 32.1758ZM139.406 23.668C138.75 23.668 138.223 23.876 137.824 24.292C137.432 24.708 137.197 25.3145 137.121 26.1113H141.533C141.521 25.3086 141.328 24.7021 140.953 24.292C140.578 23.876 140.062 23.668 139.406 23.668ZM148.055 26.1641C148.998 26.1641 149.692 26.0615 150.138 25.8564C150.583 25.6455 150.806 25.3232 150.806 24.8896C150.806 24.0986 150.103 23.7031 148.696 23.7031C147.759 23.7031 146.801 23.9141 145.822 24.3359L145.154 22.7979C146.285 22.335 147.533 22.1035 148.898 22.1035C150.105 22.1035 151.043 22.3262 151.711 22.7715C152.379 23.2109 152.713 23.8438 152.713 24.6699C152.713 25.7598 152.089 26.4746 150.841 26.8145V26.8848C151.62 27.0957 152.177 27.3975 152.511 27.79C152.851 28.1826 153.021 28.6689 153.021 29.249C153.021 30.1396 152.628 30.8516 151.843 31.3848C151.063 31.9121 149.974 32.1758 148.573 32.1758C147.044 32.1758 145.875 31.9736 145.066 31.5693V29.7852C146.139 30.2891 147.249 30.541 148.397 30.541C149.224 30.541 149.859 30.4268 150.305 30.1982C150.756 29.9639 150.981 29.6094 150.981 29.1348C150.981 28.6484 150.756 28.291 150.305 28.0625C149.854 27.834 149.156 27.7197 148.213 27.7197H147.026V26.1641H148.055ZM162.24 32H160.157V19.1504H167.408V20.9258H162.24V24.9424H167.083V26.7266H162.24V32ZM175.6 32L175.187 30.6465H175.116C174.647 31.2383 174.176 31.6426 173.701 31.8594C173.227 32.0703 172.617 32.1758 171.873 32.1758C170.918 32.1758 170.171 31.918 169.632 31.4023C169.099 30.8867 168.832 30.1572 168.832 29.2139C168.832 28.2119 169.204 27.4561 169.948 26.9463C170.692 26.4365 171.826 26.1582 173.35 26.1113L175.028 26.0586V25.54C175.028 24.9189 174.882 24.4561 174.589 24.1514C174.302 23.8408 173.854 23.6855 173.244 23.6855C172.746 23.6855 172.269 23.7588 171.812 23.9053C171.354 24.0518 170.915 24.2246 170.493 24.4238L169.825 22.9473C170.353 22.6719 170.93 22.4639 171.557 22.3232C172.184 22.1768 172.775 22.1035 173.332 22.1035C174.568 22.1035 175.5 22.373 176.127 22.9121C176.76 23.4512 177.076 24.2979 177.076 25.4521V32H175.6ZM172.523 30.5938C173.273 30.5938 173.874 30.3857 174.325 29.9697C174.782 29.5479 175.011 28.959 175.011 28.2031V27.3594L173.763 27.4121C172.79 27.4473 172.081 27.6113 171.636 27.9043C171.196 28.1914 170.977 28.6338 170.977 29.2314C170.977 29.665 171.105 30.002 171.363 30.2422C171.621 30.4766 172.008 30.5938 172.523 30.5938ZM183.879 32.1758C182.408 32.1758 181.289 31.748 180.521 30.8926C179.76 30.0312 179.379 28.7979 179.379 27.1924C179.379 25.5576 179.777 24.3008 180.574 23.4219C181.377 22.543 182.534 22.1035 184.046 22.1035C185.071 22.1035 185.994 22.2939 186.814 22.6748L186.19 24.3359C185.317 23.9961 184.597 23.8262 184.028 23.8262C182.347 23.8262 181.506 24.9424 181.506 27.1748C181.506 28.2646 181.714 29.085 182.13 29.6357C182.552 30.1807 183.167 30.4531 183.976 30.4531C184.896 30.4531 185.766 30.2246 186.586 29.7676V31.5693C186.217 31.7861 185.821 31.9414 185.399 32.0352C184.983 32.1289 184.477 32.1758 183.879 32.1758ZM193.116 32.1758C191.604 32.1758 190.421 31.7363 189.565 30.8574C188.716 29.9727 188.291 28.7568 188.291 27.21C188.291 25.6221 188.687 24.374 189.478 23.4658C190.269 22.5576 191.355 22.1035 192.738 22.1035C194.021 22.1035 195.035 22.4932 195.779 23.2725C196.523 24.0518 196.896 25.124 196.896 26.4893V27.6055H190.418C190.447 28.5488 190.702 29.2754 191.183 29.7852C191.663 30.2891 192.34 30.541 193.213 30.541C193.787 30.541 194.32 30.4883 194.812 30.3828C195.311 30.2715 195.844 30.0898 196.412 29.8379V31.5166C195.908 31.7568 195.398 31.9268 194.883 32.0264C194.367 32.126 193.778 32.1758 193.116 32.1758ZM192.738 23.668C192.082 23.668 191.555 23.876 191.156 24.292C190.764 24.708 190.529 25.3145 190.453 26.1113H194.865C194.854 25.3086 194.66 24.7021 194.285 24.292C193.91 23.876 193.395 23.668 192.738 23.668ZM204.208 22.1035C205.421 22.1035 206.364 22.543 207.038 23.4219C207.718 24.3008 208.058 25.5342 208.058 27.1221C208.058 28.7158 207.715 29.958 207.029 30.8486C206.344 31.7334 205.392 32.1758 204.173 32.1758C202.942 32.1758 201.987 31.7334 201.308 30.8486H201.167L200.789 32H199.242V18.3242H201.308V21.5762C201.308 21.8164 201.296 22.1738 201.272 22.6484C201.249 23.123 201.231 23.4248 201.22 23.5537H201.308C201.964 22.5869 202.931 22.1035 204.208 22.1035ZM203.672 23.791C202.84 23.791 202.239 24.0371 201.87 24.5293C201.507 25.0156 201.319 25.833 201.308 26.9814V27.1221C201.308 28.3057 201.495 29.1641 201.87 29.6973C202.245 30.2246 202.857 30.4883 203.707 30.4883C204.439 30.4883 204.993 30.1982 205.368 29.6182C205.749 29.0381 205.939 28.2002 205.939 27.1045C205.939 24.8955 205.184 23.791 203.672 23.791ZM219.079 27.1221C219.079 28.71 218.672 29.9492 217.857 30.8398C217.043 31.7305 215.909 32.1758 214.456 32.1758C213.548 32.1758 212.745 31.9707 212.048 31.5605C211.351 31.1504 210.814 30.5615 210.439 29.7939C210.064 29.0264 209.877 28.1357 209.877 27.1221C209.877 25.5459 210.281 24.3154 211.09 23.4307C211.898 22.5459 213.038 22.1035 214.509 22.1035C215.915 22.1035 217.028 22.5576 217.849 23.4658C218.669 24.3682 219.079 25.5869 219.079 27.1221ZM212.004 27.1221C212.004 29.3662 212.833 30.4883 214.491 30.4883C216.132 30.4883 216.952 29.3662 216.952 27.1221C216.952 24.9014 216.126 23.791 214.474 23.791C213.606 23.791 212.977 24.0781 212.584 24.6523C212.197 25.2266 212.004 26.0498 212.004 27.1221ZM230.083 27.1221C230.083 28.71 229.676 29.9492 228.861 30.8398C228.047 31.7305 226.913 32.1758 225.46 32.1758C224.552 32.1758 223.749 31.9707 223.052 31.5605C222.354 31.1504 221.818 30.5615 221.443 29.7939C221.068 29.0264 220.881 28.1357 220.881 27.1221C220.881 25.5459 221.285 24.3154 222.094 23.4307C222.902 22.5459 224.042 22.1035 225.513 22.1035C226.919 22.1035 228.032 22.5576 228.853 23.4658C229.673 24.3682 230.083 25.5869 230.083 27.1221ZM223.008 27.1221C223.008 29.3662 223.837 30.4883 225.495 30.4883C227.136 30.4883 227.956 29.3662 227.956 27.1221C227.956 24.9014 227.13 23.791 225.478 23.791C224.61 23.791 223.98 24.0781 223.588 24.6523C223.201 25.2266 223.008 26.0498 223.008 27.1221ZM234.46 26.8672L235.629 25.4082L238.564 22.2793H240.946L237.035 26.4541L241.192 32H238.767L235.646 27.7373L234.513 28.6689V32H232.465V18.3242H234.513V24.9951L234.407 26.8672H234.46Z" fill="white"/>
</svg>
