<svg width="250" height="51" viewBox="0 0 250 51" fill="none" xmlns="http://www.w3.org/2000/svg">
<rect y="0.5" width="250" height="50" rx="5" fill="#2F77B0"/>
<g clip-path="url(#clip0)">
<path d="M21.3103 40.4991V20.2581H14.8794V40.4991H21.3103ZM18.0957 17.4929C20.3382 17.4929 21.7341 15.9386 21.7341 13.9963C21.6923 12.0102 20.3383 10.499 18.1382 10.499C15.9385 10.499 14.5 12.0102 14.5 13.9963C14.5 15.9387 15.8955 17.4929 18.0537 17.4929H18.0955H18.0957ZM24.8697 40.4991H31.3006V29.1955C31.3006 28.5906 31.3423 27.9862 31.5122 27.5538C31.9771 26.3451 33.0352 25.0933 34.8117 25.0933C37.1387 25.0933 38.0697 26.9494 38.0697 29.6704V40.4989H44.5001V28.8929C44.5001 22.6757 41.3275 19.7829 37.0964 19.7829C33.6272 19.7829 32.104 21.8115 31.2578 23.1933H31.3007V20.2577H24.8699C24.9543 22.157 24.8699 40.4986 24.8699 40.4986L24.8697 40.4991Z" fill="white"/>
</g>
<path d="M56.1963 19.1504H60.0107C61.7803 19.1504 63.0576 19.4082 63.8428 19.9238C64.6338 20.4395 65.0293 21.2539 65.0293 22.3672C65.0293 23.1172 64.8359 23.7412 64.4492 24.2393C64.0625 24.7373 63.5059 25.0508 62.7793 25.1797V25.2676C63.6816 25.4375 64.3438 25.7744 64.7656 26.2783C65.1934 26.7764 65.4072 27.4531 65.4072 28.3086C65.4072 29.4629 65.0029 30.3682 64.1943 31.0244C63.3916 31.6748 62.2725 32 60.8369 32H56.1963V19.1504ZM58.2969 24.459H60.3184C61.1973 24.459 61.8389 24.3213 62.2432 24.0459C62.6475 23.7646 62.8496 23.29 62.8496 22.6221C62.8496 22.0186 62.6299 21.582 62.1904 21.3125C61.7568 21.043 61.0654 20.9082 60.1162 20.9082H58.2969V24.459ZM58.2969 26.1641V30.2334H60.5293C61.4082 30.2334 62.0703 30.0664 62.5156 29.7324C62.9668 29.3926 63.1924 28.8594 63.1924 28.1328C63.1924 27.4648 62.9639 26.9697 62.5068 26.6475C62.0498 26.3252 61.3555 26.1641 60.4238 26.1641H58.2969ZM70.0215 27.0342L66.7607 22.2793H69.1162L71.3311 25.6807L73.5635 22.2793H75.9014L72.6318 27.0342L76.0684 32H73.7305L71.3311 28.3613L68.9404 32H66.6025L70.0215 27.0342ZM86.3955 27.1221C86.3955 28.71 85.9883 29.9492 85.1738 30.8398C84.3594 31.7305 83.2256 32.1758 81.7725 32.1758C80.8643 32.1758 80.0615 31.9707 79.3643 31.5605C78.667 31.1504 78.1309 30.5615 77.7559 29.7939C77.3809 29.0264 77.1934 28.1357 77.1934 27.1221C77.1934 25.5459 77.5977 24.3154 78.4062 23.4307C79.2148 22.5459 80.3545 22.1035 81.8252 22.1035C83.2314 22.1035 84.3447 22.5576 85.165 23.4658C85.9854 24.3682 86.3955 25.5869 86.3955 27.1221ZM79.3203 27.1221C79.3203 29.3662 80.1494 30.4883 81.8076 30.4883C83.4482 30.4883 84.2686 29.3662 84.2686 27.1221C84.2686 24.9014 83.4424 23.791 81.79 23.791C80.9229 23.791 80.293 24.0781 79.9004 24.6523C79.5137 25.2266 79.3203 26.0498 79.3203 27.1221ZM98.1025 35.4365H96.1777V32H89.5156V35.4365H87.6084V30.4004H88.3994C89.0908 29.4102 89.6387 28.2148 90.043 26.8145C90.4531 25.4082 90.6963 23.8965 90.7725 22.2793H96.6787V30.4004H98.1025V35.4365ZM94.6484 30.4004V23.8613H92.5566C92.4453 25.0684 92.2109 26.2578 91.8535 27.4297C91.502 28.6016 91.0713 29.5918 90.5615 30.4004H94.6484ZM106.399 22.2793V25.8301C106.399 26.8262 106.915 27.3242 107.946 27.3242C108.444 27.3242 108.931 27.2568 109.405 27.1221C109.88 26.9814 110.39 26.7588 110.935 26.4541V22.2793H113V32H110.935V27.8779C110.366 28.2295 109.815 28.4902 109.282 28.6602C108.755 28.8242 108.178 28.9062 107.551 28.9062C106.537 28.9062 105.746 28.6455 105.178 28.124C104.609 27.5967 104.325 26.8613 104.325 25.918V22.2793H106.399ZM120.198 32.1758C118.687 32.1758 117.503 31.7363 116.647 30.8574C115.798 29.9727 115.373 28.7568 115.373 27.21C115.373 25.6221 115.769 24.374 116.56 23.4658C117.351 22.5576 118.438 22.1035 119.82 22.1035C121.104 22.1035 122.117 22.4932 122.861 23.2725C123.605 24.0518 123.978 25.124 123.978 26.4893V27.6055H117.5C117.529 28.5488 117.784 29.2754 118.265 29.7852C118.745 30.2891 119.422 30.541 120.295 30.541C120.869 30.541 121.402 30.4883 121.895 30.3828C122.393 30.2715 122.926 30.0898 123.494 29.8379V31.5166C122.99 31.7568 122.48 31.9268 121.965 32.0264C121.449 32.126 120.86 32.1758 120.198 32.1758ZM119.82 23.668C119.164 23.668 118.637 23.876 118.238 24.292C117.846 24.708 117.611 25.3145 117.535 26.1113H121.947C121.936 25.3086 121.742 24.7021 121.367 24.292C120.992 23.876 120.477 23.668 119.82 23.668ZM131.255 32.1758C130.024 32.1758 129.069 31.7334 128.39 30.8486H128.267C128.349 31.6689 128.39 32.167 128.39 32.3428V36.3242H126.324V22.2793H127.994C128.041 22.4609 128.138 22.8945 128.284 23.5801H128.39C129.034 22.5957 130.001 22.1035 131.29 22.1035C132.503 22.1035 133.446 22.543 134.12 23.4219C134.8 24.3008 135.14 25.5342 135.14 27.1221C135.14 28.71 134.794 29.9492 134.103 30.8398C133.417 31.7305 132.468 32.1758 131.255 32.1758ZM130.754 23.791C129.934 23.791 129.333 24.0312 128.952 24.5117C128.577 24.9922 128.39 25.7598 128.39 26.8145V27.1221C128.39 28.3057 128.577 29.1641 128.952 29.6973C129.327 30.2246 129.939 30.4883 130.789 30.4883C131.504 30.4883 132.055 30.1953 132.441 29.6094C132.828 29.0234 133.021 28.1885 133.021 27.1045C133.021 26.0146 132.828 25.1914 132.441 24.6348C132.061 24.0723 131.498 23.791 130.754 23.791ZM141.784 32.1758C140.272 32.1758 139.089 31.7363 138.233 30.8574C137.384 29.9727 136.959 28.7568 136.959 27.21C136.959 25.6221 137.354 24.374 138.146 23.4658C138.937 22.5576 140.023 22.1035 141.406 22.1035C142.689 22.1035 143.703 22.4932 144.447 23.2725C145.191 24.0518 145.563 25.124 145.563 26.4893V27.6055H139.086C139.115 28.5488 139.37 29.2754 139.851 29.7852C140.331 30.2891 141.008 30.541 141.881 30.541C142.455 30.541 142.988 30.4883 143.48 30.3828C143.979 30.2715 144.512 30.0898 145.08 29.8379V31.5166C144.576 31.7568 144.066 31.9268 143.551 32.0264C143.035 32.126 142.446 32.1758 141.784 32.1758ZM141.406 23.668C140.75 23.668 140.223 23.876 139.824 24.292C139.432 24.708 139.197 25.3145 139.121 26.1113H143.533C143.521 25.3086 143.328 24.7021 142.953 24.292C142.578 23.876 142.062 23.668 141.406 23.668ZM150.055 26.1641C150.998 26.1641 151.692 26.0615 152.138 25.8564C152.583 25.6455 152.806 25.3232 152.806 24.8896C152.806 24.0986 152.103 23.7031 150.696 23.7031C149.759 23.7031 148.801 23.9141 147.822 24.3359L147.154 22.7979C148.285 22.335 149.533 22.1035 150.898 22.1035C152.105 22.1035 153.043 22.3262 153.711 22.7715C154.379 23.2109 154.713 23.8438 154.713 24.6699C154.713 25.7598 154.089 26.4746 152.841 26.8145V26.8848C153.62 27.0957 154.177 27.3975 154.511 27.79C154.851 28.1826 155.021 28.6689 155.021 29.249C155.021 30.1396 154.628 30.8516 153.843 31.3848C153.063 31.9121 151.974 32.1758 150.573 32.1758C149.044 32.1758 147.875 31.9736 147.066 31.5693V29.7852C148.139 30.2891 149.249 30.541 150.397 30.541C151.224 30.541 151.859 30.4268 152.305 30.1982C152.756 29.9639 152.981 29.6094 152.981 29.1348C152.981 28.6484 152.756 28.291 152.305 28.0625C151.854 27.834 151.156 27.7197 150.213 27.7197H149.026V26.1641H150.055ZM162.157 32V19.1504H164.258V30.1982H169.698V32H162.157ZM173.759 32H171.693V22.2793H173.759V32ZM171.57 19.7041C171.57 19.335 171.67 19.0508 171.869 18.8516C172.074 18.6523 172.364 18.5527 172.739 18.5527C173.103 18.5527 173.384 18.6523 173.583 18.8516C173.788 19.0508 173.891 19.335 173.891 19.7041C173.891 20.0557 173.788 20.334 173.583 20.5391C173.384 20.7383 173.103 20.8379 172.739 20.8379C172.364 20.8379 172.074 20.7383 171.869 20.5391C171.67 20.334 171.57 20.0557 171.57 19.7041ZM185.272 32H183.198V26.0234C183.198 25.2734 183.046 24.7139 182.741 24.3447C182.442 23.9756 181.965 23.791 181.309 23.791C180.436 23.791 179.797 24.0488 179.393 24.5645C178.988 25.0801 178.786 25.9443 178.786 27.1572V32H176.721V22.2793H178.338L178.628 23.5537H178.733C179.026 23.0908 179.442 22.7334 179.981 22.4814C180.521 22.2295 181.118 22.1035 181.774 22.1035C184.106 22.1035 185.272 23.29 185.272 25.6631V32ZM190.142 26.8672L191.311 25.4082L194.246 22.2793H196.628L192.717 26.4541L196.874 32H194.448L191.328 27.7373L190.194 28.6689V32H188.146V18.3242H190.194V24.9951L190.089 26.8672H190.142ZM202.692 32.1758C201.181 32.1758 199.997 31.7363 199.142 30.8574C198.292 29.9727 197.867 28.7568 197.867 27.21C197.867 25.6221 198.263 24.374 199.054 23.4658C199.845 22.5576 200.932 22.1035 202.314 22.1035C203.598 22.1035 204.611 22.4932 205.355 23.2725C206.1 24.0518 206.472 25.124 206.472 26.4893V27.6055H199.994C200.023 28.5488 200.278 29.2754 200.759 29.7852C201.239 30.2891 201.916 30.541 202.789 30.541C203.363 30.541 203.896 30.4883 204.389 30.3828C204.887 30.2715 205.42 30.0898 205.988 29.8379V31.5166C205.484 31.7568 204.975 31.9268 204.459 32.0264C203.943 32.126 203.354 32.1758 202.692 32.1758ZM202.314 23.668C201.658 23.668 201.131 23.876 200.732 24.292C200.34 24.708 200.105 25.3145 200.029 26.1113H204.441C204.43 25.3086 204.236 24.7021 203.861 24.292C203.486 23.876 202.971 23.668 202.314 23.668ZM212.097 32.1758C210.884 32.1758 209.938 31.7363 209.258 30.8574C208.578 29.9785 208.238 28.7451 208.238 27.1572C208.238 25.5635 208.581 24.3242 209.267 23.4395C209.958 22.5488 210.913 22.1035 212.132 22.1035C213.409 22.1035 214.382 22.5752 215.05 23.5186H215.155C215.056 22.8213 215.006 22.2705 215.006 21.8662V18.3242H217.08V32H215.463L215.103 30.7256H215.006C214.344 31.6924 213.374 32.1758 212.097 32.1758ZM212.65 30.5059C213.5 30.5059 214.118 30.2686 214.505 29.7939C214.892 29.3135 215.091 28.5371 215.103 27.4648V27.1748C215.103 25.9502 214.903 25.0801 214.505 24.5645C214.106 24.0488 213.482 23.791 212.633 23.791C211.906 23.791 211.347 24.0869 210.954 24.6787C210.562 25.2646 210.365 26.1025 210.365 27.1924C210.365 28.2705 210.556 29.0938 210.937 29.6621C211.317 30.2246 211.889 30.5059 212.65 30.5059ZM220.253 32V19.1504H222.354V32H220.253ZM234.087 32H232.013V26.0234C232.013 25.2734 231.86 24.7139 231.556 24.3447C231.257 23.9756 230.779 23.791 230.123 23.791C229.25 23.791 228.611 24.0488 228.207 24.5645C227.803 25.0801 227.601 25.9443 227.601 27.1572V32H225.535V22.2793H227.152L227.442 23.5537H227.548C227.841 23.0908 228.257 22.7334 228.796 22.4814C229.335 22.2295 229.933 22.1035 230.589 22.1035C232.921 22.1035 234.087 23.29 234.087 25.6631V32Z" fill="white"/>
<defs>
<clipPath id="clip0">
<rect width="30" height="30" fill="white" transform="translate(14.5 10.5)"/>
</clipPath>
</defs>
</svg>
