<svg width="201" height="51" viewBox="0 0 201 51" fill="none" xmlns="http://www.w3.org/2000/svg">
<rect x="0.275635" y="0.879639" width="199.855" height="50" rx="25" fill="#33C7BA"/>
<path d="M36.5088 32.8796H35.0146V26.8328H28.2471V32.8796H26.7529V20.03H28.2471V25.4968H35.0146V20.03H36.5088V32.8796ZM45.7461 32.8796L45.456 31.5085H45.3857C44.9053 32.1121 44.4248 32.5222 43.9443 32.739C43.4697 32.95 42.875 33.0554 42.1601 33.0554C41.2051 33.0554 40.4551 32.8093 39.9101 32.3171C39.3711 31.825 39.1016 31.1248 39.1016 30.2166C39.1016 28.2712 40.6572 27.2517 43.7685 27.158L45.4033 27.1052V26.5076C45.4033 25.7517 45.2393 25.1951 44.9111 24.8376C44.5889 24.4744 44.0703 24.2927 43.3555 24.2927C42.5527 24.2927 41.6445 24.5388 40.6309 25.031L40.1826 23.9148C40.6572 23.657 41.1758 23.4548 41.7383 23.3083C42.3066 23.1619 42.875 23.0886 43.4434 23.0886C44.5918 23.0886 45.4414 23.3435 45.9922 23.8533C46.5488 24.363 46.8271 25.1804 46.8271 26.3054V32.8796H45.7461ZM42.4502 31.8513C43.3584 31.8513 44.0703 31.6023 44.5859 31.1042C45.1074 30.6062 45.3682 29.9089 45.3682 29.0125V28.1423L43.9092 28.2039C42.749 28.2449 41.9111 28.4265 41.3955 28.7488C40.8857 29.0652 40.6309 29.5603 40.6309 30.2341C40.6309 30.7615 40.7891 31.1628 41.1055 31.4382C41.4277 31.7136 41.876 31.8513 42.4502 31.8513ZM51.2129 23.2468V29.3552L51.1514 30.9548L51.125 31.4558L56.3369 23.2468H58.1562V32.8796H56.7939V26.991L56.8203 25.8308L56.8643 24.6882L51.6611 32.8796H49.8418V23.2468H51.2129ZM53.9639 21.9724C52.8799 21.9724 52.0889 21.7644 51.5908 21.3484C51.0928 20.9265 50.8144 20.2351 50.7559 19.2742H52.1269C52.1797 19.8835 52.3379 20.3083 52.6016 20.5486C52.8711 20.7888 53.3369 20.9089 53.999 20.9089C54.6025 20.9089 55.0478 20.78 55.335 20.5222C55.6279 20.2644 55.8066 19.8484 55.8711 19.2742H57.251C57.1807 20.2 56.8848 20.8826 56.3633 21.322C55.8418 21.7556 55.042 21.9724 53.9639 21.9724ZM67.7451 24.4949H64.6162V32.8796H63.1572V24.4949H60.0635V23.2468H67.7451V24.4949ZM71.0234 23.2468V29.3552L70.9619 30.9548L70.9355 31.4558L76.1475 23.2468H77.9668V32.8796H76.6045V26.991L76.6309 25.8308L76.6748 24.6882L71.4717 32.8796H69.6523V23.2468H71.0234ZM91.3525 23.2468H92.9521L88.7949 27.8962L93.2949 32.8796H91.5898L87.1953 28.0017V32.8796H85.7363V23.2468H87.1953V27.9314L91.3525 23.2468ZM101.012 32.8796L100.722 31.5085H100.651C100.171 32.1121 99.6904 32.5222 99.21 32.739C98.7353 32.95 98.1406 33.0554 97.4258 33.0554C96.4707 33.0554 95.7207 32.8093 95.1758 32.3171C94.6367 31.825 94.3672 31.1248 94.3672 30.2166C94.3672 28.2712 95.9228 27.2517 99.0342 27.158L100.669 27.1052V26.5076C100.669 25.7517 100.505 25.1951 100.177 24.8376C99.8545 24.4744 99.3359 24.2927 98.6211 24.2927C97.8184 24.2927 96.9101 24.5388 95.8965 25.031L95.4482 23.9148C95.9228 23.657 96.4414 23.4548 97.0039 23.3083C97.5723 23.1619 98.1406 23.0886 98.709 23.0886C99.8574 23.0886 100.707 23.3435 101.258 23.8533C101.814 24.363 102.093 25.1804 102.093 26.3054V32.8796H101.012ZM97.7158 31.8513C98.624 31.8513 99.3359 31.6023 99.8516 31.1042C100.373 30.6062 100.634 29.9089 100.634 29.0125V28.1423L99.1748 28.2039C98.0146 28.2449 97.1768 28.4265 96.6611 28.7488C96.1514 29.0652 95.8965 29.5603 95.8965 30.2341C95.8965 30.7615 96.0547 31.1628 96.3711 31.4382C96.6934 31.7136 97.1416 31.8513 97.7158 31.8513ZM106.566 23.2468V27.281H111.963V23.2468H113.422V32.8796H111.963V28.5378H106.566V32.8796H105.107V23.2468H106.566ZM124.883 36.2107H123.468V32.8796H116.735V36.2107H115.329V31.6228H116.085C116.87 30.5564 117.485 29.3054 117.931 27.8699C118.376 26.4343 118.607 24.8933 118.625 23.2468H123.503V31.6228H124.883V36.2107ZM122.097 31.6228V24.3982H119.935C119.858 25.699 119.606 27.0173 119.179 28.3533C118.757 29.6833 118.229 30.7732 117.597 31.6228H122.097ZM128.187 23.2468V29.3552L128.126 30.9548L128.1 31.4558L133.312 23.2468H135.131V32.8796H133.769V26.991L133.795 25.8308L133.839 24.6882L128.636 32.8796H126.816V23.2468H128.187ZM146.592 36.2107H145.177V32.8796H138.444V36.2107H137.038V31.6228H137.794C138.579 30.5564 139.194 29.3054 139.64 27.8699C140.085 26.4343 140.316 24.8933 140.334 23.2468H145.212V31.6228H146.592V36.2107ZM143.806 31.6228V24.3982H141.644C141.567 25.699 141.315 27.0173 140.888 28.3533C140.466 29.6833 139.938 30.7732 139.306 31.6228H143.806ZM154.449 32.8796L154.159 31.5085H154.089C153.608 32.1121 153.128 32.5222 152.647 32.739C152.173 32.95 151.578 33.0554 150.863 33.0554C149.908 33.0554 149.158 32.8093 148.613 32.3171C148.074 31.825 147.805 31.1248 147.805 30.2166C147.805 28.2712 149.36 27.2517 152.472 27.158L154.106 27.1052V26.5076C154.106 25.7517 153.942 25.1951 153.614 24.8376C153.292 24.4744 152.773 24.2927 152.059 24.2927C151.256 24.2927 150.348 24.5388 149.334 25.031L148.886 23.9148C149.36 23.657 149.879 23.4548 150.441 23.3083C151.01 23.1619 151.578 23.0886 152.146 23.0886C153.295 23.0886 154.145 23.3435 154.695 23.8533C155.252 24.363 155.53 25.1804 155.53 26.3054V32.8796H154.449ZM151.153 31.8513C152.062 31.8513 152.773 31.6023 153.289 31.1042C153.811 30.6062 154.071 29.9089 154.071 29.0125V28.1423L152.612 28.2039C151.452 28.2449 150.614 28.4265 150.099 28.7488C149.589 29.0652 149.334 29.5603 149.334 30.2341C149.334 30.7615 149.492 31.1628 149.809 31.4382C150.131 31.7136 150.579 31.8513 151.153 31.8513ZM165.04 24.4949H161.911V32.8796H160.452V24.4949H157.358V23.2468H165.04V24.4949ZM172.871 32.8796L172.581 31.5085H172.511C172.03 32.1121 171.55 32.5222 171.069 32.739C170.595 32.95 170 33.0554 169.285 33.0554C168.33 33.0554 167.58 32.8093 167.035 32.3171C166.496 31.825 166.227 31.1248 166.227 30.2166C166.227 28.2712 167.782 27.2517 170.894 27.158L172.528 27.1052V26.5076C172.528 25.7517 172.364 25.1951 172.036 24.8376C171.714 24.4744 171.195 24.2927 170.48 24.2927C169.678 24.2927 168.77 24.5388 167.756 25.031L167.308 23.9148C167.782 23.657 168.301 23.4548 168.863 23.3083C169.432 23.1619 170 23.0886 170.568 23.0886C171.717 23.0886 172.566 23.3435 173.117 23.8533C173.674 24.363 173.952 25.1804 173.952 26.3054V32.8796H172.871ZM169.575 31.8513C170.483 31.8513 171.195 31.6023 171.711 31.1042C172.232 30.6062 172.493 29.9089 172.493 29.0125V28.1423L171.034 28.2039C169.874 28.2449 169.036 28.4265 168.521 28.7488C168.011 29.0652 167.756 29.5603 167.756 30.2341C167.756 30.7615 167.914 31.1628 168.23 31.4382C168.553 31.7136 169.001 31.8513 169.575 31.8513Z" fill="white"/>
</svg>
