<svg width="150" viewBox="0 0 240 96" fill="none" xmlns="http://www.w3.org/2000/svg">
<g filter="url(#filter0_dd)">
<rect x="20" y="20.0869" width="200" height="55" rx="27.5" fill="#33C7BA"/>
<rect x="20" y="20.0869" width="200" height="55" rx="27.5" fill="url(#paint0_linear)" style="mix-blend-mode:overlay"/>
<path d="M101.963 55.0869H99.6191V42.8115H93.3203V55.0869H90.9863V40.8096H101.963V55.0869ZM115.068 49.667C115.068 51.4313 114.616 52.8083 113.711 53.7979C112.806 54.7874 111.546 55.2822 109.932 55.2822C108.923 55.2822 108.031 55.0544 107.256 54.5986C106.481 54.1429 105.885 53.4886 105.469 52.6357C105.052 51.7829 104.844 50.7933 104.844 49.667C104.844 47.9157 105.293 46.5485 106.191 45.5654C107.09 44.5824 108.356 44.0908 109.99 44.0908C111.553 44.0908 112.79 44.5954 113.701 45.6045C114.613 46.6071 115.068 47.9613 115.068 49.667ZM107.207 49.667C107.207 52.1605 108.128 53.4072 109.971 53.4072C111.794 53.4072 112.705 52.1605 112.705 49.667C112.705 47.1995 111.787 45.9658 109.951 45.9658C108.988 45.9658 108.288 46.2848 107.852 46.9229C107.422 47.5609 107.207 48.4756 107.207 49.667ZM119.912 44.2861V49.8232C119.912 50.4678 119.86 51.415 119.756 52.665L125.176 44.2861H127.979V55.0869H125.771V49.6475C125.771 49.348 125.788 48.863 125.82 48.1924C125.859 47.5218 125.892 47.0335 125.918 46.7275L120.518 55.0869H117.715V44.2861H119.912ZM135.605 55.2822C133.971 55.2822 132.728 54.807 131.875 53.8564C131.029 52.8994 130.605 51.529 130.605 49.7451C130.605 47.9287 131.048 46.5322 131.934 45.5557C132.826 44.5791 134.111 44.0908 135.791 44.0908C136.93 44.0908 137.956 44.3024 138.867 44.7256L138.174 46.5713C137.204 46.1937 136.403 46.0049 135.771 46.0049C133.903 46.0049 132.969 47.2451 132.969 49.7256C132.969 50.9365 133.2 51.848 133.662 52.46C134.131 53.0654 134.814 53.3682 135.713 53.3682C136.735 53.3682 137.702 53.1143 138.613 52.6064V54.6084C138.203 54.8493 137.764 55.0218 137.295 55.126C136.833 55.2301 136.27 55.2822 135.605 55.2822ZM147.852 44.2861H150.371L145.908 49.4912L150.752 55.0869H148.115L143.447 49.6084V55.0869H141.152V44.2861H143.447V49.5303L147.852 44.2861Z" fill="white"/>
</g>
<defs>
<filter id="filter0_dd" x="0" y="0.0869141" width="240" height="95" filterUnits="userSpaceOnUse" color-interpolation-filters="sRGB">
<feFlood flood-opacity="0" result="BackgroundImageFix"/>
<feColorMatrix in="SourceAlpha" type="matrix" values="0 0 0 0 0 0 0 0 0 0 0 0 0 0 0 0 0 0 127 0"/>
<feOffset dx="5" dy="5"/>
<feGaussianBlur stdDeviation="7.5"/>
<feColorMatrix type="matrix" values="0 0 0 0 0 0 0 0 0 0 0 0 0 0 0 0 0 0 0.15 0"/>
<feBlend mode="normal" in2="BackgroundImageFix" result="effect1_dropShadow"/>
<feColorMatrix in="SourceAlpha" type="matrix" values="0 0 0 0 0 0 0 0 0 0 0 0 0 0 0 0 0 0 127 0"/>
<feOffset dx="-5" dy="-5"/>
<feGaussianBlur stdDeviation="7.5"/>
<feColorMatrix type="matrix" values="0 0 0 0 1 0 0 0 0 1 0 0 0 0 1 0 0 0 0.25 0"/>
<feBlend mode="normal" in2="effect1_dropShadow" result="effect2_dropShadow"/>
<feBlend mode="normal" in="SourceGraphic" in2="effect2_dropShadow" result="shape"/>
</filter>
<linearGradient id="paint0_linear" x1="6.84123" y1="47.5869" x2="220" y2="47.5869" gradientUnits="userSpaceOnUse">
<stop stop-color="white"/>
<stop offset="1" stop-color="white" stop-opacity="0.08"/>
</linearGradient>
</defs>
</svg>
